<?xml version="1.0" standalone="no"?>
<!DOCTYPE svg PUBLIC "-//W3C//DTD SVG 1.1//EN" "http://www.w3.org/Graphics/SVG/1.1/DTD/svg11.dtd" >
<svg xmlns="http://www.w3.org/2000/svg">
<metadata>
Created by FontPrep 20130207 at Wed Aug 19 03:02:35 2015
 By Lucas Germano
Copyright (c) 2004 Linotype Library GmbH, www.linotype.com. All rights reserved. This software may not be reproduced, used, displayed, modified, disclosed or transferred without the express written approval of Linotype Library GmbH. Avenir is a trademark of Heidelberger Druckmaschinen AG, exclusively licensed through Linotype Library GmbH, and may be registered in certain jurisdictions. This typeface is original artwork of Adrian Frutiger and Akira Kobayashi. The design may be protected in certain jurisdictions.
</metadata>
<defs>
<font id="9b4c7bb97a15852a038674d2e7642256" horiz-adv-x='1024' >
  <font-face 
    font-family="AvenirNextLTPro-Demi"
    font-weight="600"
    font-stretch="normal"
    units-per-em="2048"
    panose-1="2 11 7 4 2 2 2 2 2 4"
    ascent="1548"
    descent="-500"
    x-height="983"
    cap-height="1450"
    bbox="-438 -512 2441 1960"
    underline-thickness="102"
    underline-position="-102"
    unicode-range="U+000D-FB02"
  />
<missing-glyph horiz-adv-x="1048" 
d="M1049 1470v-1470h-1049v1470h1049zM946 102v1264h-844v-1264h844zM524 1145q-145 0 -168 -195l-102 17q14 141 88 211t186 70t185 -74q72 -74 71 -195q0 -70 -26 -123t-103 -122q-76 -68 -88 -108t-12 -147h-94l-4 35q1 115 29 169t92 118q63 59 82 94q20 35 20 93
t-46 107q-46 50 -110 50zM455 240v137h114v-137h-114z" />
    <glyph glyph-name="IJ" unicode="IJ" horiz-adv-x="1576" 
d="M1430 1450v-981q0 -151 -40 -244q-40 -94 -86 -145t-126 -84t-185 -33q-171 0 -279 86t-147 234l238 67q18 -72 67 -114t117 -41q104 0 144 72q39 73 38 210v973h259zM160 0v1450h258v-1450h-258z" />
    <glyph glyph-name="ij" unicode="ij" horiz-adv-x="1097" 
d="M666 1317q0 59 45 103t111 44t113 -42q46 -42 46 -105t-46 -105t-113 -43q-68 1 -112 45t-44 103zM700 983h246v-1042q0 -318 -177 -400q-73 -33 -157 -33t-133 13l21 209q31 -8 67 -9q80 1 107 55t26 154v1053zM117 1317q0 59 45 103q46 44 112 44t112 -42t46 -105
t-46 -105t-113 -43q-67 1 -111 45t-45 103zM152 0v983h245v-983h-245z" />
    <glyph glyph-name="napostrophe" unicode="&#x22;n" horiz-adv-x="1273" 
d="M-47 1051l133 399h217l-164 -399h-186zM229 0v983h234v-158h4q35 78 118 132t187 55q180 0 271 -116t92 -282v-614h-246v545q0 262 -184 262q-111 0 -170 -79t-60 -187v-541h-246z" />
    <glyph glyph-name="fi" unicode="fi" horiz-adv-x="1214" 
d="M186 0v786h-186v197h186v145q0 199 92 322t306 123q74 0 125 -14l-17 -209q-47 14 -94 14q-166 0 -166 -221v-160h227v-197h-227v-786h-246zM805 1317q0 59 45 103t112 44q66 0 112 -42t46 -105t-46 -105t-112 -43q-66 1 -112 45q-45 44 -45 103zM840 0v983h245v-983
h-245z" />
    <glyph glyph-name="fl" unicode="fl" horiz-adv-x="1214" 
d="M186 0v786h-186v197h186v145q0 199 92 322t306 123q74 0 125 -14l-17 -209q-47 14 -94 14q-166 0 -166 -221v-160h227v-197h-227v-786h-246zM840 0v1548h245v-1548h-245z" />
    <glyph glyph-name=".notdef" horiz-adv-x="1048" 
d="M1049 1470v-1470h-1049v1470h1049zM946 102v1264h-844v-1264h844zM524 1145q-145 0 -168 -195l-102 17q14 141 88 211t186 70t185 -74q72 -74 71 -195q0 -70 -26 -123t-103 -122q-76 -68 -88 -108t-12 -147h-94l-4 35q1 115 29 169t92 118q63 59 82 94q20 35 20 93
t-46 107q-46 50 -110 50zM455 240v137h114v-137h-114z" />
    <glyph glyph-name=".null" horiz-adv-x="1024" 
 />
    <glyph glyph-name=".null" horiz-adv-x="1024" 
 />
    <glyph glyph-name="nonmarkingreturn" horiz-adv-x="681" 
 />
    <glyph glyph-name="CR" unicode="&#xd;" horiz-adv-x="0" 
 />
    <glyph glyph-name="space" unicode=" " horiz-adv-x="512" 
 />
    <glyph glyph-name="exclam" unicode="!" horiz-adv-x="696" 
d="M184 143q0 66 48 113t116 47t116 -45t48 -111q0 -67 -48 -113t-115 -46t-116 44t-49 111zM471 1450v-995h-246v995h246z" />
    <glyph glyph-name="quotedbl" unicode="&#x22;" horiz-adv-x="940" 
d="M547 909v541h209v-541h-209zM184 909v541h209v-541h-209z" />
    <glyph glyph-name="numbersign" unicode="#" horiz-adv-x="1212" 
d="M729 850h-211l-35 -250h211zM96 428v172h207l37 250h-184v172h206l62 428h180l-61 -428h211l61 428h178l-61 -428h184v-172h-209l-35 -250h185v-172h-205l-64 -428h-178l62 428h-213l-62 -428h-178l62 428h-185z" />
    <glyph glyph-name="dollar" unicode="$" horiz-adv-x="1249" 
d="M866 396q0 87 -49 135t-141 79v-422q86 4 138 62t52 146zM383 1077q0 -143 182 -196v385q-78 -8 -130 -56t-52 -133zM676 1610v-135q262 -4 426 -146l-166 -172q-98 109 -260 109v-414q177 -55 294 -138q142 -100 142 -302t-127 -316q-127 -115 -309 -119v-147h-111v147
q-295 10 -481 191l180 172q55 -66 139 -108t162 -44v455q-209 57 -319 149t-109 270q0 177 127 287t301 121v140h111z" />
    <glyph glyph-name="percent" unicode="%" horiz-adv-x="1904" 
d="M440 12l852 1504l170 -78l-852 -1504zM647 1094q0 78 -53 131t-131 53t-131 -53t-53 -131t53 -131t131 -53t131 52q53 54 53 132zM82 1094q0 158 112 270t270 111q158 0 268 -112q112 -111 112 -269t-112 -270t-270 -112t-268 112q-112 112 -112 270zM1626 356
q0 78 -53 131t-131 53t-131 -52q-53 -54 -53 -132t52 -131q54 -53 132 -53t131 53t53 131zM1061 356q0 158 111 270q112 112 270 112t270 -112t111 -270q0 -158 -112 -270q-111 -112 -269 -111q-158 -1 -270 111t-111 270z" />
    <glyph glyph-name="ampersand" unicode="&#x26;" horiz-adv-x="1517" 
d="M352 403q0 -100 75 -163t165 -64q161 0 270 150l-309 321q-201 -74 -201 -244zM672 1288q-72 0 -121 -46t-49 -116q0 -115 129 -231q209 88 209 231q0 68 -48 115t-120 47zM584 -29q-203 0 -344 112t-142 310q0 276 316 412q-156 159 -156 329t122 262t289 91
q167 0 283 -91t117 -261q0 -248 -297 -385l238 -248l168 264h280l-291 -420l338 -346h-327l-160 166q-166 -195 -434 -195z" />
    <glyph glyph-name="quotesingle" unicode="'" horiz-adv-x="577" 
d="M184 909v541h209v-541h-209z" />
    <glyph glyph-name="parenleft" unicode="(" horiz-adv-x="675" 
d="M74 590q0 496 299 909l172 -113q-260 -360 -260 -796t260 -797l-172 -112q-299 413 -299 909z" />
    <glyph glyph-name="parenright" unicode=")" horiz-adv-x="675" 
d="M602 590q0 -496 -299 -909l-172 112q260 361 260 797t-260 796l172 113q299 -413 299 -909z" />
    <glyph glyph-name="asterisk" unicode="*" horiz-adv-x="948" 
d="M561 1450v-291l277 90l53 -164l-279 -90l176 -239l-141 -103l-176 242l-172 -236l-137 105l176 231l-281 97l54 163l278 -96v291h172z" />
    <glyph glyph-name="plus" unicode="+" horiz-adv-x="1363" 
d="M127 725h451v451h208v-451h451v-209h-451v-450h-208v450h-451v209z" />
    <glyph glyph-name="comma" unicode="," 
d="M49 -258l144 541h237l-174 -541h-207z" />
    <glyph glyph-name="hyphen" unicode="-" horiz-adv-x="655" 
d="M573 608v-209h-491v209h491z" />
    <glyph glyph-name="period" unicode="." 
d="M102 143q0 66 48 113t116 47t116 -45t48 -111q0 -67 -48 -113t-115 -46t-116 44t-49 111z" />
    <glyph glyph-name="slash" unicode="/" horiz-adv-x="796" 
d="M791 1487l-639 -1585l-170 61l639 1589z" />
    <glyph glyph-name="zero" unicode="0" horiz-adv-x="1249" 
d="M627 172q258 0 258 599q0 136 -46 306q-26 93 -80 149t-132 56t-133 -56t-82 -148q-47 -161 -47 -354q0 -192 47 -350q27 -90 82 -146t133 -56zM1137 725q0 -356 -133 -559t-378 -203t-379 203t-134 559t134 559t379 203t378 -203t133 -559z" />
    <glyph glyph-name="one" unicode="1" horiz-adv-x="1249" 
d="M571 0v1151l-286 -236l-144 170l453 365h223v-1450h-246z" />
    <glyph glyph-name="two" unicode="2" horiz-adv-x="1249" 
d="M141 0v225l559 549q147 143 148 285q0 99 -66 161t-167 62t-165 -69t-79 -179l-240 37q23 182 158 299t334 117t340 -113t141 -311q0 -129 -60 -230t-174 -208l-417 -400h653v-225h-965z" />
    <glyph glyph-name="three" unicode="3" horiz-adv-x="1249" 
d="M434 657v197h66q309 0 309 219q0 93 -67 151q-66 58 -158 58t-152 -51t-84 -135l-231 59q39 147 170 239t317 93q186 -1 320 -105q133 -104 133 -292q0 -117 -72 -208t-188 -120v-4q133 -27 216 -121t83 -227q0 -211 -152 -329t-350 -118t-336 84q-139 84 -195 258
l230 72q27 -90 102 -148q76 -57 186 -57q111 0 189 59t78 181q0 88 -58 146q-99 99 -294 99h-62z" />
    <glyph glyph-name="four" unicode="4" horiz-adv-x="1249" 
d="M713 512v649h-4l-412 -649h416zM713 0v301h-670v217l616 932h295v-938h203v-211h-203v-301h-241z" />
    <glyph glyph-name="five" unicode="5" horiz-adv-x="1249" 
d="M1034 1450v-221h-592l-14 -314q68 18 170 19q219 0 359 -122q141 -122 141 -346t-152 -364t-377 -139q-178 0 -305 84t-184 234l223 81q31 -86 104 -138t178 -52t183 75t78 215t-93 208t-253 68t-316 -81l25 793h825z" />
    <glyph glyph-name="six" unicode="6" horiz-adv-x="1249" 
d="M342 460q0 -122 77 -205t202 -83t201 79t77 205q0 126 -76 206q-75 80 -199 80t-203 -80t-79 -202zM688 936q193 0 328 -134t135 -346t-151 -352q-152 -140 -378 -141q-226 0 -378 143t-152 355q0 117 36 210t114 218l362 561h299l-371 -537l3 -2q59 25 153 25z" />
    <glyph glyph-name="seven" unicode="7" horiz-adv-x="1249" 
d="M104 1229v221h986v-225l-580 -1225h-289l610 1229h-727z" />
    <glyph glyph-name="eight" unicode="8" horiz-adv-x="1249" 
d="M624 659q-105 0 -179 -69q-73 -70 -73 -180t72 -174q70 -66 180 -66t180 66t70 174t-72 179q-73 70 -178 70zM622 1284q-90 0 -148 -56t-58 -148t57 -151q57 -61 149 -61t152 62q62 62 62 150t-62 146t-152 58zM626 1487q196 -1 326 -107t131 -286q0 -123 -61 -209
t-164 -119v-4q117 -29 195 -125t77 -227q0 -209 -144 -328t-361 -119t-362 119q-144 119 -144 328q0 133 79 228t193 124v4q-225 82 -225 317q0 180 132 292t328 112z" />
    <glyph glyph-name="nine" unicode="9" horiz-adv-x="1249" 
d="M905 991q0 123 -78 207q-77 84 -201 84t-201 -81t-77 -207t76 -206t200 -80t202 80t79 203zM559 514q-193 0 -328 134t-135 346t151 352t378 141t379 -143t151 -355q0 -117 -36 -210t-113 -218l-363 -561h-299l373 539l-2 2q-59 -27 -156 -27z" />
    <glyph glyph-name="colon" unicode=":" horiz-adv-x="614" 
d="M143 836q0 66 48 112t116 47q68 0 116 -45q48 -44 48 -110t-48 -113t-115 -47t-116 45t-49 111zM143 143q0 66 48 113t116 47t116 -45t48 -111q0 -67 -48 -113t-115 -46t-116 44t-49 111z" />
    <glyph glyph-name="semicolon" unicode=";" horiz-adv-x="614" 
d="M143 838q0 66 48 112t116 47q68 0 116 -45q48 -44 48 -110t-48 -113t-115 -47t-116 45t-49 111zM82 -258l143 541h250l-174 -541h-219z" />
    <glyph glyph-name="less" unicode="&#x3c;" horiz-adv-x="1363" 
d="M1200 86l-1036 461v147l1036 461v-225l-692 -309l692 -310v-225z" />
    <glyph glyph-name="equal" unicode="=" horiz-adv-x="1363" 
d="M164 541h1036v-209h-1036v209zM164 909h1036v-209h-1036v209z" />
    <glyph glyph-name="greater" unicode="&#x3e;" horiz-adv-x="1363" 
d="M164 1155l1036 -461v-147l-1036 -461v225l692 310l-692 309v225z" />
    <glyph glyph-name="question" unicode="?" horiz-adv-x="1062" 
d="M389 143q0 66 48 113t116 47t116 -45t48 -111q0 -67 -48 -113t-115 -46t-116 44t-49 111zM672 428h-242v78q0 98 29 162t106 137l92 88q95 86 95 175t-52 142q-52 54 -143 54q-90 0 -146 -62t-61 -151l-252 22q23 193 154 303t320 111q188 -1 314 -105t126 -290
q0 -119 -47 -193t-145 -159t-123 -129q-26 -44 -25 -130v-53z" />
    <glyph glyph-name="at" unicode="@" horiz-adv-x="1638" 
d="M848 -37q-350 0 -566 212t-216 543t228 550t554 219q289 0 502 -163q102 -79 162 -207t61 -288q0 -237 -119 -369t-287 -132q-80 0 -130 39t-50 98h-10q-35 -57 -101 -97t-149 -40q-135 0 -213 91t-78 257t114 306q114 142 288 142q76 0 130 -32t70 -80h2l17 82h182
l-80 -387q-18 -111 -18 -129q0 -82 65 -82q80 0 132 87t53 230q0 242 -151 375q-152 133 -402 133t-412 -171t-162 -434t168 -423t448 -160t492 201l113 -123q-233 -248 -637 -248zM844 956q-90 0 -146 -95t-55 -206q0 -61 30 -109t101 -48q102 0 154 89q51 89 51 189
q0 180 -135 180z" />
    <glyph glyph-name="A" unicode="A" horiz-adv-x="1445" 
d="M492 553h450l-223 590zM-16 0l630 1450h224l624 -1450h-295l-135 332h-629l-131 -332h-288z" />
    <glyph glyph-name="B" unicode="B" horiz-adv-x="1325" 
d="M418 639v-422h231q324 0 324 217q0 111 -76 158t-238 47h-241zM418 1237v-377h229q129 0 197 51t68 147t-70 137q-70 42 -217 42h-207zM160 0v1450h565q184 0 314 -90t130 -275q1 -119 -67 -201t-184 -116v-4q141 -18 227 -108t86 -219q0 -333 -346 -414
q-94 -23 -203 -23h-522z" />
    <glyph glyph-name="C" unicode="C" horiz-adv-x="1425" 
d="M877 1260q-221 0 -361 -152t-141 -384q0 -232 134 -381q134 -148 360 -148t350 167l206 -145q-203 -254 -552 -254t-566 214t-217 554t222 548t565 208q152 0 298 -56t228 -165l-197 -156q-53 74 -144 112t-185 38z" />
    <glyph glyph-name="D" unicode="D" horiz-adv-x="1564" 
d="M418 225h215q178 0 313 65q76 36 130 90t88 143t34 202q0 504 -565 504h-215v-1004zM160 0v1450h514q311 0 540 -157q119 -81 190 -227t71 -334t-71 -332t-189 -229q-237 -171 -541 -171h-514z" />
    <glyph glyph-name="E" unicode="E" horiz-adv-x="1249" 
d="M160 0v1450h960v-225h-702v-369h665v-217h-665v-410h739v-229h-997z" />
    <glyph glyph-name="F" unicode="F" horiz-adv-x="1173" 
d="M160 0v1450h936v-225h-678v-398h639v-217h-639v-610h-258z" />
    <glyph glyph-name="G" unicode="G" horiz-adv-x="1583" 
d="M1430 827v-751q-236 -113 -547 -113q-350 0 -572 213q-221 213 -221 554t222 549t565 208q168 0 314 -49t236 -133l-178 -193q-57 64 -157 106t-213 42q-225 0 -365 -152t-139 -384q0 -232 140 -380q140 -150 376 -149q166 0 289 51v368h-306v213h556z" />
    <glyph glyph-name="H" unicode="H" horiz-adv-x="1513" 
d="M160 0v1450h258v-586h678v586h258v-1450h-258v643h-678v-643h-258z" />
    <glyph glyph-name="I" unicode="I" horiz-adv-x="577" 
d="M160 0v1450h258v-1450h-258z" />
    <glyph glyph-name="J" unicode="J" horiz-adv-x="1019" 
d="M872 1450v-981q0 -249 -126 -389q-46 -51 -126 -84t-184 -33q-170 0 -278 86t-148 234l238 67q18 -72 67 -114t117 -41q104 1 143 73t39 209v973h258z" />
    <glyph glyph-name="K" unicode="K" horiz-adv-x="1411" 
d="M160 0v1450h258v-627h6l606 627h348l-678 -670l723 -780h-362l-637 727h-6v-727h-258z" />
    <glyph glyph-name="L" unicode="L" horiz-adv-x="1046" 
d="M160 0v1450h258v-1221h616v-229h-874z" />
    <glyph glyph-name="M" unicode="M" horiz-adv-x="1884" 
d="M160 0v1450h403l377 -1030h6l373 1030h405v-1450h-256v1165h-4l-440 -1165h-180l-434 1165h-4v-1165h-246z" />
    <glyph glyph-name="N" unicode="N" horiz-adv-x="1597" 
d="M160 0v1450h342l674 -1085h4v1085h258v-1450h-328l-688 1120h-4v-1120h-258z" />
    <glyph glyph-name="O" unicode="O" horiz-adv-x="1738" 
d="M371 726q0 -230 139 -381t359 -151t360 151q139 151 139 381t-138 382t-360 152t-361 -152q-138 -152 -138 -382zM90 732q0 341 218 548t560 207t562 -207t219 -548t-221 -555t-560 -214t-559 214t-219 555z" />
    <glyph glyph-name="P" unicode="P" horiz-adv-x="1249" 
d="M418 817h180q322 0 322 213q0 117 -85 160t-229 43h-188v-416zM160 0v1450h473q547 0 547 -420q0 -226 -156 -328t-408 -102h-198v-600h-258z" />
    <glyph glyph-name="Q" unicode="Q" horiz-adv-x="1744" 
d="M1341 739q0 227 -136 371t-350 145q-214 0 -355 -145q-142 -146 -142 -372t136 -369t353 -143q218 0 356 142q138 144 138 371zM1722 209v-209h-874q-352 0 -562 198t-210 536t220 545q220 208 556 208t553 -208t217 -536q0 -180 -74 -316t-184 -214v-4h358z" />
    <glyph glyph-name="R" unicode="R" horiz-adv-x="1288" 
d="M418 825h211q311 0 311 211q0 106 -84 152t-205 45h-233v-408zM160 0v1450h504q145 0 261 -38q117 -38 195 -135t78 -247t-88 -251t-244 -136l387 -643h-311l-336 614h-188v-614h-258z" />
    <glyph glyph-name="S" unicode="S" horiz-adv-x="1175" 
d="M620 1272q-88 0 -165 -50q-78 -50 -78 -149q0 -49 17 -83q18 -34 62 -60t83 -41q39 -14 113 -38t119 -40q46 -16 111 -52q64 -36 102 -77t66 -108t27 -148q-1 -223 -151 -343t-377 -120q-145 0 -279 54t-219 153l185 172q53 -72 141 -116t184 -44t175 54t79 147
q0 94 -48 135q-28 25 -48 40q-41 31 -213 84q-172 54 -272 131q-121 96 -120 295q2 200 158 310t373 109q115 0 229 -40t193 -116l-168 -184q-41 55 -116 90t-163 35z" />
    <glyph glyph-name="T" unicode="T" horiz-adv-x="1163" 
d="M453 0v1225h-445v225h1147v-225h-444v-1225h-258z" />
    <glyph glyph-name="U" unicode="U" horiz-adv-x="1462" 
d="M1315 1450v-918q0 -258 -165 -414t-419 -155q-254 0 -419 156t-165 413v918h259v-907q0 -145 77 -247q78 -101 248 -101t248 101t78 247v907h258z" />
    <glyph glyph-name="V" unicode="V" horiz-adv-x="1337" 
d="M553 0l-573 1450h288l400 -1116h8l403 1116h279l-582 -1450h-223z" />
    <glyph glyph-name="W" unicode="W" horiz-adv-x="2056" 
d="M436 0l-424 1450h283l280 -1065h5l319 1065h266l314 -1065h4l286 1065h275l-424 -1450h-250l-340 1087h-4l-340 -1087h-250z" />
    <glyph glyph-name="X" unicode="X" horiz-adv-x="1347" 
d="M8 0l502 774l-451 676h312l299 -496l295 496h297l-443 -682l520 -768h-325l-355 569l-340 -569h-311z" />
    <glyph glyph-name="Y" unicode="Y" horiz-adv-x="1273" 
d="M510 0v629l-545 821h316l364 -610l369 610h299l-545 -821v-629h-258z" />
    <glyph glyph-name="Z" unicode="Z" horiz-adv-x="1251" 
d="M72 0v233l788 992h-776v225h1083v-233l-792 -988h805v-229h-1108z" />
    <glyph glyph-name="bracketleft" unicode="[" horiz-adv-x="675" 
d="M516 1499v-160h-184v-1499h184v-159h-393v1818h393z" />
    <glyph glyph-name="backslash" unicode="\" horiz-adv-x="796" 
d="M6 1487l170 65l639 -1589l-170 -61z" />
    <glyph glyph-name="bracketright" unicode="]" horiz-adv-x="675" 
d="M160 -319v159h184v1499h-184v160h393v-1818h-393z" />
    <glyph glyph-name="asciicircum" unicode="^" horiz-adv-x="1363" 
d="M383 702h-242l457 748h168l457 -748h-242l-301 490z" />
    <glyph glyph-name="underscore" unicode="_" horiz-adv-x="1024" 
d="M1024 -154v-153h-1024v153h1024z" />
    <glyph glyph-name="grave" unicode="`" 
d="M160 1450l202 -295h-192l-289 295h279z" />
    <glyph glyph-name="a" unicode="a" horiz-adv-x="1126" 
d="M754 414v35h-56q-375 0 -374 -164q0 -66 50 -95t122 -28q126 0 192 66t66 186zM758 0v125h-6q-37 -66 -120 -108t-205 -42t-236 75t-113 231q0 84 42 146t105 97q162 90 529 90v25q0 86 -64 133t-162 47q-156 0 -268 -112l-127 149q168 156 416 156q343 0 419 -266
q19 -69 19 -148v-598h-229z" />
    <glyph glyph-name="b" unicode="b" horiz-adv-x="1300" 
d="M961 496q0 127 -75 221t-206 94t-211 -98t-80 -221q0 -124 80 -220t211 -96t206 96t75 224zM152 1548h245v-690h6q123 154 331 154t342 -148t134 -368q0 -221 -132 -373t-351 -152q-105 0 -197 46t-141 130h-4v-147h-233v1548z" />
    <glyph glyph-name="c" unicode="c" horiz-adv-x="999" 
d="M616 807q-126 0 -198 -95t-72 -221q0 -127 74 -221t207 -94t204 88l154 -155q-127 -137 -357 -137t-384 140q-154 142 -154 378t152 378q152 143 374 144q110 0 212 -41t159 -113l-168 -147q-29 41 -86 69t-117 27z" />
    <glyph glyph-name="d" unicode="d" horiz-adv-x="1298" 
d="M338 496q0 -128 75 -224t206 -96t211 96t79 220q0 124 -80 221q-81 98 -211 98t-205 -94t-75 -221zM1147 1548v-1548h-234v147h-4q-49 -84 -141 -130t-197 -46q-219 0 -351 152t-132 373t134 368q134 148 342 148t331 -154h6v690h246z" />
    <glyph glyph-name="e" unicode="e" horiz-adv-x="1175" 
d="M1085 479q0 -43 -2 -65h-747q8 -102 90 -172t190 -70q170 0 261 127l163 -131q-145 -197 -422 -197q-231 -1 -379 139q-149 140 -149 376t148 380q148 146 366 146q219 0 350 -138t131 -395zM840 590q0 102 -60 170t-170 68t-188 -68t-86 -170h504z" />
    <glyph glyph-name="f" unicode="f" horiz-adv-x="663" 
d="M186 0v786h-186v197h186v145q0 199 92 322t306 123q74 0 125 -14l-17 -209q-47 14 -94 14q-166 0 -166 -221v-160h227v-197h-227v-786h-246z" />
    <glyph glyph-name="g" unicode="g" horiz-adv-x="1294" 
d="M624 811q-130 0 -207 -89t-77 -219t77 -223q77 -94 206 -94t210 92t81 221q0 130 -80 221t-210 91zM913 983h234v-895q0 -274 -138 -427t-417 -153q-125 0 -260 43t-228 119l142 191q145 -139 344 -140q311 0 311 338v72h-4q-111 -147 -324 -147t-348 148t-135 366
t132 365q132 149 356 149t331 -176h4v147z" />
    <glyph glyph-name="h" unicode="h" horiz-adv-x="1196" 
d="M694 1012q180 0 272 -116t91 -282v-614h-246v541q0 260 -182 260q-111 0 -171 -79t-61 -185v-537h-245v1548h245v-702h4q33 68 112 117t181 49z" />
    <glyph glyph-name="i" unicode="i" horiz-adv-x="548" 
d="M117 1317q0 59 45 103q46 44 112 44t112 -42t46 -105t-46 -105t-113 -43q-67 1 -111 45t-45 103zM152 0v983h245v-983h-245z" />
    <glyph glyph-name="j" unicode="j" horiz-adv-x="548" 
d="M117 1317q0 59 45 103q46 44 112 44t112 -42t46 -105t-46 -105t-113 -43q-67 1 -111 45t-45 103zM152 983h245v-1042q0 -318 -177 -400q-72 -33 -156 -33t-134 13l21 209q31 -8 67 -9q80 1 107 55t27 154v1053z" />
    <glyph glyph-name="k" unicode="k" horiz-adv-x="1112" 
d="M152 0v1548h245v-979h6l373 414h316l-426 -444l452 -539h-325l-390 504h-6v-504h-245z" />
    <glyph glyph-name="l" unicode="l" horiz-adv-x="548" 
d="M152 0v1548h245v-1548h-245z" />
    <glyph glyph-name="m" unicode="m" horiz-adv-x="1822" 
d="M1321 1012q180 0 271 -116t91 -282v-614h-245v545q0 262 -185 262q-106 0 -161 -81t-56 -189v-537h-245v594q-1 96 -47 154t-143 59q-97 0 -152 -79t-56 -187v-541h-246v983h234v-158h4q35 80 115 133t190 54q215 0 307 -187q103 187 324 187z" />
    <glyph glyph-name="n" unicode="n" horiz-adv-x="1191" 
d="M147 0v983h234v-158h4q35 78 118 132t187 55q180 0 272 -116t91 -282v-614h-246v545q0 262 -184 262q-111 0 -170 -79t-60 -187v-541h-246z" />
    <glyph glyph-name="o" unicode="o" horiz-adv-x="1249" 
d="M340 496q0 -128 74 -224t211 -96t211 96t74 224t-74 221q-74 94 -211 94t-211 -94t-74 -221zM90 495q0 228 154 372q154 145 381 145t381 -144t154 -373q0 -228 -155 -376q-155 -147 -380 -147t-380 147q-155 148 -155 376z" />
    <glyph glyph-name="p" unicode="p" horiz-adv-x="1296" 
d="M956 496q0 127 -74 221q-75 94 -206 94t-211 -98t-80 -221q0 -124 80 -220t211 -96t206 96q74 97 74 224zM147 983h236v-137h6q43 68 130 117t210 49q209 0 343 -148t134 -368q0 -221 -132 -373t-351 -152q-103 0 -191 43t-135 117h-4v-623h-246v1475z" />
    <glyph glyph-name="q" unicode="q" horiz-adv-x="1294" 
d="M338 496q0 -128 75 -224t206 -96t211 96t79 220q0 124 -80 221q-81 98 -211 98t-205 -94t-75 -221zM1147 983v-1475h-246v623h-4q-47 -74 -135 -117t-191 -43q-219 0 -351 152t-132 373t134 368t343 148q123 0 210 -49t130 -117h6v137h236z" />
    <glyph glyph-name="r" unicode="r" horiz-adv-x="745" 
d="M147 0v983h236v-164h4q41 88 117 140t170 53q35 0 59 -6v-226q-105 26 -188 -10q-113 -46 -146 -188q-6 -31 -6 -56v-526h-246z" />
    <glyph glyph-name="s" unicode="s" horiz-adv-x="909" 
d="M313 722q0 -52 47 -77t138 -46q152 -35 240 -93q106 -70 106 -222q0 -153 -116 -233t-294 -80q-118 0 -226 43t-177 119l162 152q94 -123 251 -123q63 0 111 28q47 30 47 88t-50 86t-179 58t-208 91q-79 59 -79 199t115 220t276 80q111 0 211 -39t158 -111l-160 -141
q-35 45 -92 76t-123 31t-112 -28q-46 -26 -46 -78z" />
    <glyph glyph-name="t" unicode="t" horiz-adv-x="696" 
d="M178 786h-172v197h172v285h242v-285h246v-197h-246v-456q0 -74 26 -113t96 -39t111 21l9 -193q-70 -27 -164 -26q-180 0 -250 93t-70 255v458z" />
    <glyph glyph-name="u" unicode="u" horiz-adv-x="1191" 
d="M1044 983v-983h-233v158h-4q-35 -78 -118 -132t-187 -55q-180 0 -272 116q-91 116 -91 282v614h246v-545q0 -262 184 -262q111 0 170 79t60 187v541h245z" />
    <glyph glyph-name="v" unicode="v" horiz-adv-x="1050" 
d="M397 0l-397 983h268l258 -717h4l261 717h260l-392 -983h-262z" />
    <glyph glyph-name="w" unicode="w" horiz-adv-x="1646" 
d="M350 0l-342 983h266l205 -704h4l211 704h262l213 -704h5l208 704h256l-340 -983h-249l-224 688h-4l-221 -688h-250z" />
    <glyph glyph-name="x" unicode="x" horiz-adv-x="1099" 
d="M-2 0l399 522l-354 461h295l213 -305l219 305h283l-353 -461l402 -522h-299l-256 358l-258 -358h-291z" />
    <glyph glyph-name="y" unicode="y" horiz-adv-x="1050" 
d="M213 -492q-68 0 -127 15l20 213q45 -14 106 -14q62 0 94 33q32 34 67 120l49 125l-422 983h272l275 -715h4l244 715h256l-465 -1194q-56 -145 -138 -213t-235 -68z" />
    <glyph glyph-name="z" unicode="z" horiz-adv-x="987" 
d="M70 0v217l530 569h-506v197h799v-217l-533 -565h558v-201h-848z" />
    <glyph glyph-name="braceleft" unicode="{" horiz-adv-x="675" 
d="M20 500v180q55 0 99 33q43 33 43 110v406q0 131 76 201t186 69h149v-172h-112q-90 0 -90 -123v-385q0 -107 -67 -163t-134 -64v-4q60 -4 131 -55q70 -51 70 -185v-373q0 -123 90 -122h112v-172h-149q-110 -1 -186 69t-76 201v391q0 86 -43 122q-44 36 -99 36z" />
    <glyph glyph-name="bar" unicode="|" horiz-adv-x="454" 
d="M123 1536h209v-2048h-209v2048z" />
    <glyph glyph-name="braceright" unicode="}" horiz-adv-x="675" 
d="M655 500q-55 0 -98 -36t-43 -122v-391q0 -131 -76 -201t-186 -69h-150v172h113q90 0 90 122v373q0 133 77 191q58 43 124 49v4q-68 8 -134 64t-67 163v385q0 123 -90 123h-113v172h150q110 1 186 -69t76 -201v-406q0 -79 43 -111t98 -32v-180z" />
    <glyph glyph-name="asciitilde" unicode="~" horiz-adv-x="1363" 
d="M903 436q-119 0 -243 78t-195 78q-90 0 -160 -129l-158 133q127 211 314 211q121 0 246 -82q81 -51 113 -63t79 -13q92 0 160 129l158 -133q-127 -209 -314 -209z" />
    <glyph glyph-name="uni00A0" unicode="&#xa0;" horiz-adv-x="512" 
 />
    <glyph glyph-name="exclamdown" unicode="&#xa1;" horiz-adv-x="696" 
d="M184 868q0 66 49 111t116 45t115 -47t48 -113t-48 -110t-116 -45q-68 1 -116 47t-48 112zM471 -438h-246v995h246v-995z" />
    <glyph glyph-name="cent" unicode="&#xa2;" horiz-adv-x="1249" 
d="M614 184v613q-108 -23 -164 -106t-56 -197t56 -198q58 -85 164 -112zM725 1145v-137q236 -8 348 -142l-158 -159q-82 86 -190 92v-615q115 0 199 95l149 -162q-123 -133 -348 -142v-147h-111v147q-206 19 -330 163t-124 356t122 349q122 136 332 165v137h111z" />
    <glyph glyph-name="sterling" unicode="&#xa3;" horiz-adv-x="1249" 
d="M135 0v219h201v426h-201v172h201v170q0 143 67 264q78 144 236 203q88 33 197 33q219 0 360 -123l-145 -170q-82 88 -215 88q-134 0 -192 -93t-58 -212v-160h336v-172h-336v-426h542v-219h-993z" />
    <glyph glyph-name="currency" unicode="&#xa4;" horiz-adv-x="1884" 
d="M944 940q-131 0 -214 -90t-83 -219t83 -219t215 -90t214 90t82 219t-83 219t-214 90zM1499 627q0 -184 -98 -318l190 -190l-45 -45q-28 -29 -52 -54t-46 -45q-66 63 -197 195q-133 -88 -303 -88t-313 92q-66 -68 -201 -199l-45 45q-29 29 -52 54q-24 25 -46 45l194 196
q-92 127 -92 311t88 314l-190 190q49 47 145 144l193 -191q139 95 317 95t311 -93l189 189q49 -47 145 -144l-184 -184q92 -135 92 -319z" />
    <glyph glyph-name="yen" unicode="&#xa5;" horiz-adv-x="1249" 
d="M502 0v317h-361v160h361v158h-361v160h297l-405 655h286l318 -590l305 590h275l-396 -655h287v-160h-360v-158h360v-160h-360v-317h-246z" />
    <glyph glyph-name="brokenbar" unicode="&#xa6;" horiz-adv-x="454" 
d="M123 358h209v-716h-209v716zM123 1382h209v-716h-209v716z" />
    <glyph glyph-name="section" unicode="&#xa7;" horiz-adv-x="1249" 
d="M575 489l213 -88q88 43 89 140q0 67 -44 107t-122 77l-183 82q-119 -49 -118 -143q0 -47 28 -83q28 -35 56 -51t81 -41zM678 1290q-68 0 -125 -35t-57 -103t63 -112q63 -45 171 -89q108 -45 159 -73t107 -71q114 -88 114 -234q0 -81 -47 -153t-119 -109q106 -79 106 -245
t-134 -264t-292 -97q-158 0 -285 59q-128 59 -200 173l203 120q35 -71 108 -107q72 -36 148 -36t137 38t61 118t-100 135q-47 27 -162 71q-116 44 -160 68t-95 62q-103 79 -103 212q0 195 197 297q-125 80 -125 237t129 246t275 89q292 0 431 -176l-168 -150q-41 59 -105 94
t-132 35z" />
    <glyph glyph-name="dieresis" unicode="&#xa8;" 
d="M319 1319q0 57 42 100q43 43 105 43t105 -41t43 -102t-43 -102t-105 -41t-105 43q-42 43 -42 100zM-82 1319q0 57 42 100t104 43t106 -41t43 -102q0 -61 -43 -102q-44 -41 -106 -41t-104 43t-42 100z" />
    <glyph glyph-name="copyright" unicode="&#xa9;" horiz-adv-x="1638" 
d="M164 724q0 -271 192 -463q193 -191 464 -191t463 191q191 191 191 463t-190 464q-192 192 -464 192t-464 -192q-192 -193 -192 -464zM1597 724q0 -320 -227 -544t-550 -225q-323 1 -551 225t-228 544t228 546q228 225 551 225t550 -225q227 -226 227 -546zM602 722
q0 -112 72 -194t196 -82t191 78l119 -139q-111 -123 -319 -123t-342 122t-134 333t135 336t336 125q98 0 186 -38t140 -104l-129 -129q-31 37 -84 62t-113 24q-118 0 -186 -80q-68 -79 -68 -191z" />
    <glyph glyph-name="ordfeminine" unicode="&#xaa;" horiz-adv-x="778" 
d="M487 1114v27h-28q-188 0 -189 -80q0 -64 88 -66q61 0 96 33q33 33 33 86zM500 883v61h-2q-45 -76 -183 -76q-88 0 -151 47q-64 47 -64 122q-1 143 132 182q108 30 255 30v13q0 86 -122 86q-84 0 -142 -64l-90 107q90 90 246 90q270 0 270 -242v-356h-149z" />
    <glyph glyph-name="guillemotleft" unicode="&#xab;" horiz-adv-x="1062" 
d="M983 862l-235 -354l237 -358l-156 -105l-311 463l311 459zM526 862l-235 -354l237 -358l-155 -105l-312 463l312 459z" />
    <glyph glyph-name="logicalnot" unicode="&#xac;" horiz-adv-x="1363" 
d="M1028 301v399h-901v209h1110v-608h-209z" />
    <glyph glyph-name="uni00AD" unicode="&#xad;" horiz-adv-x="655" 
d="M573 608v-209h-491v209h491z" />
    <glyph glyph-name="registered" unicode="&#xae;" horiz-adv-x="1228" 
d="M702 1116q0 25 -22 38q-23 13 -49 13h-78v-110h78q29 0 50 17t21 42zM553 950v-196h-145v532h229q90 0 155 -40t64 -128q0 -53 -30 -91t-76 -54l135 -219h-170l-103 196h-59zM1008 1011q0 163 -115 279t-278 115q-163 0 -279 -116q-116 -117 -115 -279q0 -162 116 -277
q117 -115 279 -115t277 115t115 278zM1081 1012q0 -192 -136 -326t-330 -135q-195 0 -331 134t-136 326q0 191 136 327q138 136 332 136t329 -135q136 -135 136 -327z" />
    <glyph glyph-name="macron" unicode="&#xaf;" 
d="M594 1378v-159h-655v159h655z" />
    <glyph glyph-name="degree" unicode="&#xb0;" horiz-adv-x="819" 
d="M242 1147q0 -70 49 -119t119 -49t118 49t50 119q0 70 -50 119t-118 49q-70 0 -119 -49t-49 -119zM82 1147q0 135 96 231t232 96t231 -96q96 -96 96 -231t-96 -231t-231 -97q-135 0 -232 96q-96 97 -96 232z" />
    <glyph glyph-name="plusminus" unicode="&#xb1;" horiz-adv-x="1363" 
d="M164 66v208h1036v-208h-1036zM586 883v293h196v-293h418v-209h-418v-293h-196v293h-422v209h422z" />
    <glyph glyph-name="twosuperior" unicode="&#xb2;" horiz-adv-x="819" 
d="M711 748v-168h-596v155l331 330q74 74 74 131t-31 85t-79 28t-84 -38q-35 -38 -39 -100l-181 25q14 121 98 199t209 78q124 0 211 -69q86 -69 86 -195t-141 -263l-204 -198h346z" />
    <glyph glyph-name="threesuperior" unicode="&#xb3;" horiz-adv-x="819" 
d="M303 961v145h57q66 0 110 28t44 79t-32 77t-76 25q-44 0 -74 -30q-31 -30 -41 -79l-176 43q29 98 110 162q82 63 199 63t198 -60q80 -62 80 -185t-112 -187q135 -51 135 -193t-93 -212t-220 -70q-256 0 -330 230l174 51q39 -119 147 -119q55 0 96 29q40 29 40 88
q0 115 -181 115h-55z" />
    <glyph glyph-name="acute" unicode="&#xb4;" 
d="M170 1155l203 295h278l-289 -295h-192z" />
    <glyph glyph-name="mu" unicode="&#xb5;" horiz-adv-x="1175" 
d="M139 983h246v-498q0 -204 80 -261q39 -28 100 -27q115 1 170 71t56 178v537h245v-983h-233v158h-4q-84 -182 -281 -183q-92 0 -133 50v-492h-246v1450z" />
    <glyph glyph-name="paragraph" unicode="&#xb6;" horiz-adv-x="1228" 
d="M504 -258v950q-197 0 -319 104t-122 269q0 199 126 292t352 93h551v-1708h-185v1561h-219v-1561h-184z" />
    <glyph glyph-name="periodcentered" unicode="&#xb7;" 
d="M102 596q0 66 48 113t116 47t116 -45t48 -111t-48 -113t-115 -47t-116 45t-49 111z" />
    <glyph glyph-name="cedilla" unicode="&#xb8;" 
d="M311 -129q215 0 215 -170q0 -102 -84 -147q-84 -46 -202 -46t-217 54l47 98q78 -41 168 -41q117 0 116 84q0 74 -108 74q-43 0 -80 -13l-47 52l127 184h119l-93 -131q16 2 39 2z" />
    <glyph glyph-name="onesuperior" unicode="&#xb9;" horiz-adv-x="819" 
d="M537 1450v-879h-193v650l-149 -125l-109 127l281 227h170z" />
    <glyph glyph-name="ordmasculine" unicode="&#xba;" horiz-adv-x="778" 
d="M532 1178q0 64 -38 108t-105 43q-69 0 -105 -44t-36 -108q0 -63 37 -109t105 -46t105 45q37 47 37 111zM700 1177q0 -133 -88 -219t-223 -86t-223 86t-88 218t88 218q88 85 223 85t223 -85t88 -217z" />
    <glyph glyph-name="guillemotright" unicode="&#xbb;" horiz-adv-x="1062" 
d="M80 150l235 354l-237 358l155 105l312 -463l-312 -459zM537 150l235 354l-237 358l155 105l311 -463l-311 -459z" />
    <glyph glyph-name="onequarter" unicode="&#xbc;" horiz-adv-x="1843" 
d="M537 1450v-879h-193v650l-149 -125l-109 127l281 227h170zM381 12l852 1504l160 -78l-852 -1504zM1397 336v305h-2l-197 -305h199zM1397 0v174h-389v152l366 553h199v-543h119v-162h-119v-174h-176z" />
    <glyph glyph-name="onehalf" unicode="&#xbd;" horiz-adv-x="1843" 
d="M537 1450v-879h-193v650l-149 -125l-109 127l281 227h170zM1720 168v-168h-596v156l332 329q74 73 74 131t-31 86t-80 27q-49 0 -84 -38t-39 -99l-180 24q14 121 98 199t208 78t211 -69q87 -68 87 -194t-141 -263l-205 -199h346zM381 12l852 1504l160 -78l-852 -1504z
" />
    <glyph glyph-name="threequarters" unicode="&#xbe;" horiz-adv-x="1843" 
d="M303 961v145h57q66 0 110 28t44 79t-32 77t-76 25q-44 0 -74 -30q-31 -30 -41 -79l-176 43q29 98 110 162q82 63 199 63t198 -60q80 -62 80 -185t-112 -187q135 -51 135 -193t-93 -212t-220 -70q-256 0 -330 230l174 51q39 -119 147 -119q55 0 96 29q40 29 40 88
q0 115 -181 115h-55zM381 12l852 1504l160 -78l-852 -1504zM1397 336v305h-2l-197 -305h199zM1397 0v174h-389v152l366 553h199v-543h119v-162h-119v-174h-176z" />
    <glyph glyph-name="questiondown" unicode="&#xbf;" horiz-adv-x="1062" 
d="M682 868q0 -66 -48 -112t-116 -47q-68 0 -116 45q-48 44 -48 110t48 113t115 47t116 -45t49 -111zM399 584h242v-78q0 -98 -29 -162t-106 -137l-92 -88q-94 -86 -94 -175q0 -88 52 -142t142 -54t146 62t61 151l252 -22q-23 -193 -154 -304t-320 -111t-315 105
q-125 104 -125 291q0 119 47 193q46 74 144 159q98 84 124 128t25 130v54z" />
    <glyph glyph-name="Agrave" unicode="&#xc0;" horiz-adv-x="1445" 
d="M623 1860l202 -295h-192l-289 295h279zM492 553h450l-223 590zM-16 0l630 1450h224l624 -1450h-295l-135 332h-629l-131 -332h-288z" />
    <glyph glyph-name="Aacute" unicode="&#xc1;" horiz-adv-x="1445" 
d="M616 1565l203 295h279l-289 -295h-193zM492 553h450l-223 590zM-16 0l630 1450h224l624 -1450h-295l-135 332h-629l-131 -332h-288z" />
    <glyph glyph-name="Acircumflex" unicode="&#xc2;" horiz-adv-x="1445" 
d="M1100 1565h-234l-141 184l-141 -184h-230l236 295h276zM492 553h450l-223 590zM-16 0l630 1450h224l624 -1450h-295l-135 332h-629l-131 -332h-288z" />
    <glyph glyph-name="Atilde" unicode="&#xc3;" horiz-adv-x="1445" 
d="M578 1833q74 0 164 -38t130 -38q68 0 95 86h135q-45 -260 -230 -260q-76 0 -162 39t-132 39q-66 0 -95 -88h-135q45 260 230 260zM492 553h450l-223 590zM-16 0l630 1450h224l624 -1450h-295l-135 332h-629l-131 -332h-288z" />
    <glyph glyph-name="Adieresis" unicode="&#xc4;" horiz-adv-x="1445" 
d="M782 1729q0 57 42 100t104 43t106 -41q43 -41 43 -102t-43 -103t-105 -41q-62 0 -105 43q-42 44 -42 101zM381 1729q0 57 42 100t104 43q61 0 105 -41t44 -102t-43 -103t-105 -41q-62 -1 -105 43q-42 44 -42 101zM492 553h450l-223 590zM-16 0l630 1450h224l624 -1450
h-295l-135 332h-629l-131 -332h-288z" />
    <glyph glyph-name="Aring" unicode="&#xc5;" horiz-adv-x="1445" 
d="M844 1751q0 51 -35 84t-86 33t-86 -34t-35 -84t35 -83t86 -33t86 33t35 84zM938 1751q0 -90 -61 -149q-61 -60 -153 -60t-154 60t-62 148q0 90 61 150t153 60t155 -59q61 -60 61 -150zM492 553h450l-223 590zM-16 0l630 1450h224l624 -1450h-295l-135 332h-629l-131 -332
h-288z" />
    <glyph glyph-name="AE" unicode="&#xc6;" horiz-adv-x="2142" 
d="M1083 602v623h-30l-383 -623h413zM1083 0v381h-548l-234 -381h-313l927 1450h1098v-225h-672v-369h635v-217h-635v-410h709v-229h-967z" />
    <glyph glyph-name="Ccedilla" unicode="&#xc7;" horiz-adv-x="1425" 
d="M877 1260q-221 0 -361 -152t-141 -384q0 -232 134 -381q134 -148 360 -148t350 167l206 -145q-188 -240 -528 -252l-66 -96q16 2 39 2q215 0 215 -170q0 -102 -84 -147q-83 -46 -201 -46t-218 54l47 98q78 -41 168 -41q117 0 116 84q0 74 -108 74q-43 0 -80 -13l-47 52
l104 151q-309 27 -500 236q-192 209 -192 539t222 537q222 208 565 208q152 0 298 -56t228 -165l-197 -156q-53 74 -144 112t-185 38z" />
    <glyph glyph-name="Egrave" unicode="&#xc8;" horiz-adv-x="1249" 
d="M606 1860l203 -295h-193l-288 295h278zM160 0v1450h960v-225h-702v-369h665v-217h-665v-410h739v-229h-997z" />
    <glyph glyph-name="Eacute" unicode="&#xc9;" horiz-adv-x="1249" 
d="M518 1565l203 295h278l-288 -295h-193zM160 0v1450h960v-225h-702v-369h665v-217h-665v-410h739v-229h-997z" />
    <glyph glyph-name="Ecircumflex" unicode="&#xca;" horiz-adv-x="1249" 
d="M1022 1565h-234l-141 184l-141 -184h-230l236 295h276zM160 0v1450h960v-225h-702v-369h665v-217h-665v-410h739v-229h-997z" />
    <glyph glyph-name="Edieresis" unicode="&#xcb;" horiz-adv-x="1249" 
d="M705 1729q0 57 41 100q42 43 104 43t106 -41q43 -41 43 -102t-43 -103t-105 -41q-62 0 -105 43q-41 44 -41 101zM303 1729q0 57 42 100q43 43 105 43t105 -41t43 -102t-43 -103t-105 -41q-62 0 -105 43q-42 44 -42 101zM160 0v1450h960v-225h-702v-369h665v-217h-665
v-410h739v-229h-997z" />
    <glyph glyph-name="Igrave" unicode="&#xcc;" horiz-adv-x="577" 
d="M213 1860l203 -295h-193l-289 295h279zM160 0v1450h258v-1450h-258z" />
    <glyph glyph-name="Iacute" unicode="&#xcd;" horiz-adv-x="577" 
d="M160 1565l202 295h279l-289 -295h-192zM160 0v1450h258v-1450h-258z" />
    <glyph glyph-name="Icircumflex" unicode="&#xce;" horiz-adv-x="577" 
d="M659 1565h-233l-141 184l-142 -184h-229l236 295h276zM160 0v1450h258v-1450h-258z" />
    <glyph glyph-name="Idieresis" unicode="&#xcf;" horiz-adv-x="577" 
d="M342 1729q0 57 42 100t104 43t106 -41t43 -102q0 -61 -43 -103q-44 -42 -106 -41q-62 -1 -104 43t-42 101zM-59 1729q0 57 42 100t104 43q61 0 105 -41t44 -102t-43 -103t-105 -41q-62 -1 -105 43q-42 44 -42 101zM160 0v1450h258v-1450h-258z" />
    <glyph glyph-name="Eth" unicode="&#xd0;" horiz-adv-x="1564" 
d="M420 233h192q262 0 425 121t163 372t-146 371t-399 120h-235v-381h442v-172h-442v-431zM162 0v664h-135v172h135v614h571q307 0 522 -188t215 -537q0 -177 -70 -321q-125 -254 -430 -359q-132 -45 -268 -45h-540z" />
    <glyph glyph-name="Ntilde" unicode="&#xd1;" horiz-adv-x="1597" 
d="M649 1833q74 0 164 -38t131 -38q68 0 94 86h136q-45 -260 -230 -260q-76 0 -162 39t-133 39q-65 0 -94 -88h-135q45 260 229 260zM160 0v1450h342l674 -1085h4v1085h258v-1450h-328l-688 1120h-4v-1120h-258z" />
    <glyph glyph-name="Ograve" unicode="&#xd2;" horiz-adv-x="1738" 
d="M809 1860l203 -295h-193l-289 295h279zM371 726q0 -230 139 -381t359 -151t360 151q139 151 139 381t-138 382t-360 152t-361 -152q-138 -152 -138 -382zM90 732q0 341 218 548t560 207t562 -207t219 -548t-221 -555t-560 -214t-559 214t-219 555z" />
    <glyph glyph-name="Oacute" unicode="&#xd3;" horiz-adv-x="1738" 
d="M739 1565l203 295h279l-289 -295h-193zM371 726q0 -230 139 -381t359 -151t360 151q139 151 139 381t-138 382t-360 152t-361 -152q-138 -152 -138 -382zM90 732q0 341 218 548t560 207t562 -207t219 -548t-221 -555t-560 -214t-559 214t-219 555z" />
    <glyph glyph-name="Ocircumflex" unicode="&#xd4;" horiz-adv-x="1738" 
d="M1251 1565h-233l-141 184l-142 -184h-229l235 295h277zM371 726q0 -230 139 -381t359 -151t360 151q139 151 139 381t-138 382t-360 152t-361 -152q-138 -152 -138 -382zM90 732q0 341 218 548t560 207t562 -207t219 -548t-221 -555t-560 -214t-559 214t-219 555z" />
    <glyph glyph-name="Otilde" unicode="&#xd5;" horiz-adv-x="1738" 
d="M729 1833q74 0 164 -38t131 -38q68 0 94 86h135q-45 -260 -229 -260q-76 0 -162 39t-133 39q-65 0 -94 -88h-135q45 260 229 260zM371 726q0 -230 139 -381t359 -151t360 151q139 151 139 381t-138 382t-360 152t-361 -152q-138 -152 -138 -382zM90 732q0 341 218 548
t560 207t562 -207t219 -548t-221 -555t-560 -214t-559 214t-219 555z" />
    <glyph glyph-name="Odieresis" unicode="&#xd6;" horiz-adv-x="1738" 
d="M928 1729q0 57 42 100t104 43t106 -41t43 -102q0 -61 -43 -103q-44 -42 -106 -41q-62 -1 -104 43t-42 101zM526 1729q0 57 42 100t104 43t106 -41q43 -41 43 -102t-43 -103t-105 -41q-62 0 -105 43q-42 44 -42 101zM371 726q0 -230 139 -381t359 -151t360 151
q139 151 139 381t-138 382t-360 152t-361 -152q-138 -152 -138 -382zM90 732q0 341 218 548t560 207t562 -207t219 -548t-221 -555t-560 -214t-559 214t-219 555z" />
    <glyph glyph-name="multiply" unicode="&#xd7;" horiz-adv-x="1363" 
d="M307 1141l375 -375l373 373l143 -144l-371 -370l379 -381l-151 -152l-375 371l-371 -371l-151 150l379 372l-377 381z" />
    <glyph glyph-name="Oslash" unicode="&#xd8;" horiz-adv-x="1738" 
d="M868 1266q-230 0 -370 -152t-140 -368t93 -343l714 775q-115 88 -297 88zM880 188q214 0 356 152q144 152 144 380t-116 365l-721 -784q123 -113 337 -113zM90 742q0 332 218 538q218 207 558 207q266 0 461 -127l174 190l101 -88l-170 -186q217 -211 217 -547
q-1 -336 -221 -548t-562 -218q-289 0 -491 158l-174 -189l-103 88l178 193q-186 197 -186 529z" />
    <glyph glyph-name="Ugrave" unicode="&#xd9;" horiz-adv-x="1462" 
d="M692 1860l203 -295h-193l-288 295h278zM1315 1450v-918q0 -258 -165 -414t-419 -155q-254 0 -419 156t-165 413v918h259v-907q0 -145 77 -247q78 -101 248 -101t248 101t78 247v907h258z" />
    <glyph glyph-name="Uacute" unicode="&#xda;" horiz-adv-x="1462" 
d="M596 1565l203 295h278l-289 -295h-192zM1315 1450v-918q0 -258 -165 -414t-419 -155q-254 0 -419 156t-165 413v918h259v-907q0 -145 77 -247q78 -101 248 -101t248 101t78 247v907h258z" />
    <glyph glyph-name="Ucircumflex" unicode="&#xdb;" horiz-adv-x="1462" 
d="M1108 1565h-234l-141 184l-141 -184h-230l236 295h276zM1315 1450v-918q0 -258 -165 -414t-419 -155q-254 0 -419 156t-165 413v918h259v-907q0 -145 77 -247q78 -101 248 -101t248 101t78 247v907h258z" />
    <glyph glyph-name="Udieresis" unicode="&#xdc;" horiz-adv-x="1462" 
d="M788 1729q0 57 42 100t104 43t106 -41q43 -41 43 -102t-43 -103t-105 -41q-62 0 -105 43q-42 44 -42 101zM387 1729q0 57 42 100t104 43q61 0 105 -41t44 -102t-43 -103t-105 -41q-62 -1 -105 43q-42 44 -42 101zM1315 1450v-918q0 -258 -165 -414t-419 -155
q-254 0 -419 156t-165 413v918h259v-907q0 -145 77 -247q78 -101 248 -101t248 101t78 247v907h258z" />
    <glyph glyph-name="Yacute" unicode="&#xdd;" horiz-adv-x="1273" 
d="M545 1565l203 295h278l-289 -295h-192zM510 0v629l-545 821h316l364 -610l369 610h299l-545 -821v-629h-258z" />
    <glyph glyph-name="Thorn" unicode="&#xde;" horiz-adv-x="1249" 
d="M418 543h180q322 0 322 213q0 118 -85 160t-229 42h-188v-415zM160 0v1450h258v-274h215q547 0 547 -420q0 -226 -156 -328t-408 -102h-198v-326h-258z" />
    <glyph glyph-name="germandbls" unicode="&#xdf;" horiz-adv-x="1284" 
d="M147 0v1038q0 231 124 383t376 152q193 0 316 -115t122 -284q0 -106 -62 -194t-157 -112v-4q154 -26 245 -138t91 -271q0 -213 -137 -346t-369 -134q-90 0 -178 23v207q61 -20 144 -21q132 0 210 77t78 210t-89 204t-226 70h-27v209h31q90 0 146 54q57 54 57 141
q0 86 -52 147t-153 62q-133 0 -188 -98t-56 -234v-1026h-246z" />
    <glyph glyph-name="agrave" unicode="&#xe0;" horiz-adv-x="1126" 
d="M483 1450l203 -295h-192l-289 295h278zM754 414v35h-56q-375 0 -374 -164q0 -66 50 -95t122 -28q126 0 192 66t66 186zM758 0v125h-6q-37 -66 -120 -108t-205 -42t-236 75t-113 231q0 84 42 146t105 97q162 90 529 90v25q0 86 -64 133t-162 47q-156 0 -268 -112l-127 149
q168 156 416 156q343 0 419 -266q19 -69 19 -148v-598h-229z" />
    <glyph glyph-name="aacute" unicode="&#xe1;" horiz-adv-x="1126" 
d="M399 1155l203 295h279l-289 -295h-193zM754 414v35h-56q-375 0 -374 -164q0 -66 50 -95t122 -28q126 0 192 66t66 186zM758 0v125h-6q-37 -66 -120 -108t-205 -42t-236 75t-113 231q0 84 42 146t105 97q162 90 529 90v25q0 86 -64 133t-162 47q-156 0 -268 -112l-127 149
q168 156 416 156q343 0 419 -266q19 -69 19 -148v-598h-229z" />
    <glyph glyph-name="acircumflex" unicode="&#xe2;" horiz-adv-x="1126" 
d="M934 1155h-234l-141 184l-141 -184h-230l236 295h276zM754 414v35h-56q-375 0 -374 -164q0 -66 50 -95t122 -28q126 0 192 66t66 186zM758 0v125h-6q-37 -66 -120 -108t-205 -42t-236 75t-113 231q0 84 42 146t105 97q162 90 529 90v25q0 86 -64 133t-162 47
q-156 0 -268 -112l-127 149q168 156 416 156q343 0 419 -266q19 -69 19 -148v-598h-229z" />
    <glyph glyph-name="atilde" unicode="&#xe3;" horiz-adv-x="1126" 
d="M408 1423q74 0 164 -38t130 -37q68 0 95 86h135q-45 -260 -230 -260q-76 0 -162 38t-132 39q-66 0 -95 -88h-135q45 260 230 260zM754 414v35h-56q-375 0 -374 -164q0 -66 50 -95t122 -28q126 0 192 66t66 186zM758 0v125h-6q-37 -66 -120 -108t-205 -42t-236 75
t-113 231q0 84 42 146t105 97q162 90 529 90v25q0 86 -64 133t-162 47q-156 0 -268 -112l-127 149q168 156 416 156q343 0 419 -266q19 -69 19 -148v-598h-229z" />
    <glyph glyph-name="adieresis" unicode="&#xe4;" horiz-adv-x="1126" 
d="M612 1319q0 57 42 100t104 43t106 -41q43 -41 43 -102t-43 -102t-105 -41t-105 43q-42 43 -42 100zM211 1319q0 57 42 100t104 43q61 0 105 -41t44 -102t-43 -102t-105 -41t-105 43q-42 43 -42 100zM754 414v35h-56q-375 0 -374 -164q0 -66 50 -95t122 -28q126 0 192 66
t66 186zM758 0v125h-6q-37 -66 -120 -108t-205 -42t-236 75t-113 231q0 84 42 146t105 97q162 90 529 90v25q0 86 -64 133t-162 47q-156 0 -268 -112l-127 149q168 156 416 156q343 0 419 -266q19 -69 19 -148v-598h-229z" />
    <glyph glyph-name="aring" unicode="&#xe5;" horiz-adv-x="1126" 
d="M672 1341q0 51 -35 84t-86 33t-86 -34t-35 -84t35 -83t86 -33t86 34q35 32 35 83zM766 1341q0 -90 -61 -149t-153 -59t-154 59t-62 148q0 90 61 150t153 60t155 -59q61 -60 61 -150zM754 414v35h-56q-375 0 -374 -164q0 -66 50 -95t122 -28q126 0 192 66t66 186zM758 0
v125h-6q-37 -66 -120 -108t-205 -42t-236 75t-113 231q0 84 42 146t105 97q162 90 529 90v25q0 86 -64 133t-162 47q-156 0 -268 -112l-127 149q168 156 416 156q343 0 419 -266q19 -69 19 -148v-598h-229z" />
    <glyph glyph-name="ae" unicode="&#xe6;" horiz-adv-x="1816" 
d="M1481 590q1 102 -59 170t-171 68t-189 -68t-85 -170h504zM754 381v33h-56q-194 0 -284 -26t-90 -98t50 -100q50 -29 122 -28q126 0 192 58t66 161zM1251 1012q213 0 344 -138t131 -395q0 -43 -2 -65h-747q12 -106 92 -174t188 -68q168 0 261 129l161 -133
q-143 -197 -415 -197t-396 197q-104 -193 -411 -193q-206 0 -318 130q-61 73 -61 173q0 199 205 261q103 31 209 41t262 10v20q0 209 -224 209q-72 0 -146 -32t-124 -80l-125 149q166 156 414 156q119 0 204 -48t130 -120q122 168 368 168z" />
    <glyph glyph-name="ccedilla" unicode="&#xe7;" horiz-adv-x="999" 
d="M616 807q-126 0 -198 -95t-72 -221q0 -127 74 -221t207 -94t204 88l154 -155q-119 -127 -338 -138l-72 -102q16 2 39 2q215 0 215 -170q0 -102 -84 -147q-83 -46 -201 -46t-218 54l47 98q78 -41 168 -41q117 0 116 84q0 74 -108 74q-43 0 -80 -13l-47 52l110 161
q-194 27 -318 163t-124 360t152 368q152 143 374 144q110 0 212 -41t159 -113l-168 -147q-29 41 -86 69t-117 27z" />
    <glyph glyph-name="egrave" unicode="&#xe8;" horiz-adv-x="1175" 
d="M532 1450l203 -295h-192l-289 295h278zM1085 479q0 -43 -2 -65h-747q8 -102 90 -172t190 -70q170 0 261 127l163 -131q-145 -197 -422 -197q-231 -1 -379 139q-149 140 -149 376t148 380q148 146 366 146q219 0 350 -138t131 -395zM840 590q0 102 -60 170t-170 68
t-188 -68t-86 -170h504z" />
    <glyph glyph-name="eacute" unicode="&#xe9;" horiz-adv-x="1175" 
d="M473 1155l203 295h278l-288 -295h-193zM1085 479q0 -43 -2 -65h-747q8 -102 90 -172t190 -70q170 0 261 127l163 -131q-145 -197 -422 -197q-231 -1 -379 139q-149 140 -149 376t148 380q148 146 366 146q219 0 350 -138t131 -395zM840 590q0 102 -60 170t-170 68
t-188 -68t-86 -170h504z" />
    <glyph glyph-name="ecircumflex" unicode="&#xea;" horiz-adv-x="1175" 
d="M991 1155h-233l-142 184l-141 -184h-229l235 295h277zM1085 479q0 -43 -2 -65h-747q8 -102 90 -172t190 -70q170 0 261 127l163 -131q-145 -197 -422 -197q-231 -1 -379 139q-149 140 -149 376t148 380q148 146 366 146q219 0 350 -138t131 -395zM840 590q0 102 -60 170
t-170 68t-188 -68t-86 -170h504z" />
    <glyph glyph-name="edieresis" unicode="&#xeb;" horiz-adv-x="1175" 
d="M668 1319q0 57 42 100t104 43t106 -41t43 -102q0 -61 -43 -102q-44 -41 -106 -41t-104 43t-42 100zM266 1319q0 57 42 100t104 43t106 -41q43 -41 43 -102t-43 -102t-105 -41t-105 43q-42 43 -42 100zM1085 479q0 -43 -2 -65h-747q8 -102 90 -172t190 -70q170 0 261 127
l163 -131q-145 -197 -422 -197q-231 -1 -379 139q-149 140 -149 376t148 380q148 146 366 146q219 0 350 -138t131 -395zM840 590q0 102 -60 170t-170 68t-188 -68t-86 -170h504z" />
    <glyph glyph-name="igrave" unicode="&#xec;" horiz-adv-x="548" 
d="M193 1450l202 -295h-192l-289 295h279zM152 0v983h245v-983h-245z" />
    <glyph glyph-name="iacute" unicode="&#xed;" horiz-adv-x="548" 
d="M154 1155l202 295h279l-289 -295h-192zM152 0v983h245v-983h-245z" />
    <glyph glyph-name="icircumflex" unicode="&#xee;" horiz-adv-x="548" 
d="M649 1155h-233l-142 184l-141 -184h-229l235 295h277zM152 0v983h245v-983h-245z" />
    <glyph glyph-name="idieresis" unicode="&#xef;" horiz-adv-x="548" 
d="M330 1319q0 57 42 100t104 43t106 -41t43 -102q0 -61 -43 -102q-44 -41 -106 -41t-104 43t-42 100zM-72 1319q0 57 42 100t104 43t106 -41q43 -41 43 -102t-43 -102t-105 -41t-105 43q-42 43 -42 100zM152 0v983h245v-983h-245z" />
    <glyph glyph-name="eth" unicode="&#xf0;" horiz-adv-x="1249" 
d="M625 176q137 0 213 94t76 222t-76 221q-76 94 -213 94t-213 -94t-76 -221q0 -128 76 -222t213 -94zM638 -29q-242 -1 -395 145t-153 374t151 375q151 146 367 147q145 0 230 -82l4 4q-131 213 -260 319l-222 -102l-122 117l225 102q-43 47 -160 133l193 113
q94 -74 178 -152l231 109l131 -115l-239 -110q365 -399 364 -791q0 -260 -140 -423q-141 -163 -383 -163z" />
    <glyph glyph-name="ntilde" unicode="&#xf1;" horiz-adv-x="1191" 
d="M453 1423q73 0 163 -38t132 -37q68 0 94 86h135q-45 -260 -229 -260q-76 0 -162 38t-133 39q-66 0 -95 -88h-135q45 260 230 260zM147 0v983h234v-158h4q35 78 118 132t187 55q180 0 272 -116t91 -282v-614h-246v545q0 262 -184 262q-111 0 -170 -79t-60 -187v-541h-246z
" />
    <glyph glyph-name="ograve" unicode="&#xf2;" horiz-adv-x="1249" 
d="M573 1450l203 -295h-192l-289 295h278zM340 496q0 -128 74 -224t211 -96t211 96t74 224t-74 221q-74 94 -211 94t-211 -94t-74 -221zM90 495q0 228 154 372q154 145 381 145t381 -144t154 -373q0 -228 -155 -376q-155 -147 -380 -147t-380 147q-155 148 -155 376z" />
    <glyph glyph-name="oacute" unicode="&#xf3;" horiz-adv-x="1249" 
d="M477 1155l203 295h278l-288 -295h-193zM340 496q0 -128 74 -224t211 -96t211 96t74 224t-74 221q-74 94 -211 94t-211 -94t-74 -221zM90 495q0 228 154 372q154 145 381 145t381 -144t154 -373q0 -228 -155 -376q-155 -147 -380 -147t-380 147q-155 148 -155 376z" />
    <glyph glyph-name="ocircumflex" unicode="&#xf4;" horiz-adv-x="1249" 
d="M1001 1155h-233l-141 184l-142 -184h-229l236 295h276zM340 496q0 -128 74 -224t211 -96t211 96t74 224t-74 221q-74 94 -211 94t-211 -94t-74 -221zM90 495q0 228 154 372q154 145 381 145t381 -144t154 -373q0 -228 -155 -376q-155 -147 -380 -147t-380 147
q-155 148 -155 376z" />
    <glyph glyph-name="otilde" unicode="&#xf5;" horiz-adv-x="1249" 
d="M481 1423q74 0 164 -38t131 -37q68 0 94 86h136q-45 -260 -230 -260q-76 0 -162 38t-133 39q-65 0 -94 -88h-135q45 260 229 260zM340 496q0 -128 74 -224t211 -96t211 96t74 224t-74 221q-74 94 -211 94t-211 -94t-74 -221zM90 495q0 228 154 372q154 145 381 145
t381 -144t154 -373q0 -228 -155 -376q-155 -147 -380 -147t-380 147q-155 148 -155 376z" />
    <glyph glyph-name="odieresis" unicode="&#xf6;" horiz-adv-x="1249" 
d="M682 1319q0 57 42 100t104 43t106 -41t43 -102q0 -61 -43 -102q-44 -41 -106 -41t-104 43t-42 100zM281 1319q0 57 42 100t104 43t105 -41t43 -102t-43 -102t-105 -41t-104 43t-42 100zM340 496q0 -128 74 -224t211 -96t211 96t74 224t-74 221q-74 94 -211 94t-211 -94
t-74 -221zM90 495q0 228 154 372q154 145 381 145t381 -144t154 -373q0 -228 -155 -376q-155 -147 -380 -147t-380 147q-155 148 -155 376z" />
    <glyph glyph-name="divide" unicode="&#xf7;" horiz-adv-x="1363" 
d="M1200 512h-1036v219h1036v-219zM528 252q0 63 45 108q45 46 109 46t108 -46q46 -46 46 -108t-45 -108t-109 -46t-109 45q-45 46 -45 109zM528 989q0 63 45 109t109 45q64 0 108 -45q46 -44 46 -108t-45 -109t-109 -45t-109 45t-45 108z" />
    <glyph glyph-name="oslash" unicode="&#xf8;" horiz-adv-x="1249" 
d="M1159 476q0 -212 -153 -359q-154 -145 -364 -145t-343 104l-143 -146l-82 84l137 140q-121 137 -121 352t154 360q154 146 364 146t340 -103l144 148l86 -82l-142 -146q123 -141 123 -353zM641 170q129 0 203 97t74 215t-44 186l-428 -435q66 -63 195 -63zM625 819
q-139 0 -216 -100q-77 -101 -77 -221t45 -179l424 437q-74 63 -176 63z" />
    <glyph glyph-name="ugrave" unicode="&#xf9;" horiz-adv-x="1191" 
d="M541 1450l202 -295h-192l-289 295h279zM1044 983v-983h-233v158h-4q-35 -78 -118 -132t-187 -55q-180 0 -272 116q-91 116 -91 282v614h246v-545q0 -262 184 -262q111 0 170 79t60 187v541h245z" />
    <glyph glyph-name="uacute" unicode="&#xfa;" horiz-adv-x="1191" 
d="M461 1155l203 295h278l-289 -295h-192zM1044 983v-983h-233v158h-4q-35 -78 -118 -132t-187 -55q-180 0 -272 116q-91 116 -91 282v614h246v-545q0 -262 184 -262q111 0 170 79t60 187v541h245z" />
    <glyph glyph-name="ucircumflex" unicode="&#xfb;" horiz-adv-x="1191" 
d="M973 1155h-234l-141 184l-141 -184h-230l236 295h276zM1044 983v-983h-233v158h-4q-35 -78 -118 -132t-187 -55q-180 0 -272 116q-91 116 -91 282v614h246v-545q0 -262 184 -262q111 0 170 79t60 187v541h245z" />
    <glyph glyph-name="udieresis" unicode="&#xfc;" horiz-adv-x="1191" 
d="M651 1319q0 57 42 100q43 43 105 43t105 -41t43 -102t-43 -102t-105 -41t-105 43q-42 43 -42 100zM250 1319q0 57 42 100t104 43t106 -41t43 -102q0 -61 -43 -102q-44 -41 -106 -41t-104 43t-42 100zM1044 983v-983h-233v158h-4q-35 -78 -118 -132t-187 -55
q-180 0 -272 116q-91 116 -91 282v614h246v-545q0 -262 184 -262q111 0 170 79t60 187v541h245z" />
    <glyph glyph-name="yacute" unicode="&#xfd;" horiz-adv-x="1050" 
d="M420 1155l203 295h278l-289 -295h-192zM213 -492q-68 0 -127 15l20 213q45 -14 106 -14q62 0 94 33q32 34 67 120l49 125l-422 983h272l275 -715h4l244 715h256l-465 -1194q-56 -145 -138 -213t-235 -68z" />
    <glyph glyph-name="thorn" unicode="&#xfe;" horiz-adv-x="1300" 
d="M961 496q0 127 -75 221t-206 94t-211 -98t-80 -221q0 -124 80 -220t211 -96t206 96t75 224zM152 1548h245v-690h6q123 154 331 154t342 -148t134 -368q0 -221 -132 -373t-351 -152q-105 0 -195 45t-131 119h-4v-602h-245v2015z" />
    <glyph glyph-name="ydieresis" unicode="&#xff;" horiz-adv-x="1050" 
d="M602 1319q0 57 42 100t104 43t106 -41q43 -41 43 -102t-43 -102t-105 -41t-105 43q-42 43 -42 100zM201 1319q0 57 42 100t104 43q61 0 105 -41t44 -102t-43 -102t-105 -41t-105 43q-42 43 -42 100zM213 -492q-68 0 -127 15l20 213q45 -14 106 -14q62 0 94 33
q32 34 67 120l49 125l-422 983h272l275 -715h4l244 715h256l-465 -1194q-56 -145 -138 -213t-235 -68z" />
    <glyph glyph-name="Amacron" unicode="&#x100;" horiz-adv-x="1445" 
d="M1055 1788v-160h-656v160h656zM492 553h450l-223 590zM-16 0l630 1450h224l624 -1450h-295l-135 332h-629l-131 -332h-288z" />
    <glyph glyph-name="amacron" unicode="&#x101;" horiz-adv-x="1126" 
d="M909 1378v-159h-655v159h655zM754 414v35h-56q-375 0 -374 -164q0 -66 50 -95t122 -28q126 0 192 66t66 186zM758 0v125h-6q-37 -66 -120 -108t-205 -42t-236 75t-113 231q0 84 42 146t105 97q162 90 529 90v25q0 86 -64 133t-162 47q-156 0 -268 -112l-127 149
q168 156 416 156q343 0 419 -266q19 -69 19 -148v-598h-229z" />
    <glyph glyph-name="Abreve" unicode="&#x102;" horiz-adv-x="1445" 
d="M377 1860h137q25 -135 211 -136q94 0 143 27t70 109h135q-14 -148 -107 -222t-244 -74t-244 75q-93 74 -101 221zM492 553h450l-223 590zM-16 0l630 1450h224l624 -1450h-295l-135 332h-629l-131 -332h-288z" />
    <glyph glyph-name="abreve" unicode="&#x103;" horiz-adv-x="1126" 
d="M571 1315q94 0 144 26q49 27 69 109h136q-14 -147 -108 -221t-244 -74q-151 0 -244 74t-101 221h137q25 -135 211 -135zM754 414v35h-56q-375 0 -374 -164q0 -66 50 -95t122 -28q126 0 192 66t66 186zM758 0v125h-6q-37 -66 -120 -108t-205 -42t-236 75t-113 231
q0 84 42 146t105 97q162 90 529 90v25q0 86 -64 133t-162 47q-156 0 -268 -112l-127 149q168 156 416 156q343 0 419 -266q19 -69 19 -148v-598h-229z" />
    <glyph glyph-name="Aogonek" unicode="&#x104;" horiz-adv-x="1445" 
d="M492 553h450l-223 590zM1194 -479q-96 0 -159 49q-62 49 -62 130t58 162t134 140l-133 330h-629l-131 -332h-288l630 1450h224l624 -1450h-174q-156 -145 -155 -250q-1 -38 27 -66t77 -28t100 43l52 -100q-99 -78 -195 -78z" />
    <glyph glyph-name="aogonek" unicode="&#x105;" horiz-adv-x="1126" 
d="M754 414v35h-56q-375 0 -374 -164q0 -66 50 -95t122 -28q126 0 192 66t66 186zM772 -479q-96 0 -159 49q-62 49 -62 131t62 166t143 145h2v113h-6q-37 -66 -120 -108t-205 -42t-236 75t-113 231q0 84 42 146t105 97q162 90 529 90v25q0 86 -64 133t-162 47
q-156 0 -268 -112l-127 149q168 156 416 156q343 0 419 -266q19 -69 19 -148v-598h-121q-156 -145 -155 -250q-1 -38 27 -66t77 -28t100 43l52 -100q-99 -78 -195 -78z" />
    <glyph glyph-name="Cacute" unicode="&#x106;" horiz-adv-x="1425" 
d="M676 1565l203 295h278l-289 -295h-192zM877 1260q-221 0 -361 -152t-141 -384q0 -232 134 -381q134 -148 360 -148t350 167l206 -145q-203 -254 -552 -254t-566 214t-217 554t222 548t565 208q152 0 298 -56t228 -165l-197 -156q-53 74 -144 112t-185 38z" />
    <glyph glyph-name="cacute" unicode="&#x107;" horiz-adv-x="999" 
d="M469 1155l203 295h278l-288 -295h-193zM616 807q-126 0 -198 -95t-72 -221q0 -127 74 -221t207 -94t204 88l154 -155q-127 -137 -357 -137t-384 140q-154 142 -154 378t152 378q152 143 374 144q110 0 212 -41t159 -113l-168 -147q-29 41 -86 69t-117 27z" />
    <glyph glyph-name="Ccircumflex" unicode="&#x108;" horiz-adv-x="1425" 
d="M1251 1565h-233l-141 184l-142 -184h-229l235 295h277zM877 1260q-221 0 -361 -152t-141 -384q0 -232 134 -381q134 -148 360 -148t350 167l206 -145q-203 -254 -552 -254t-566 214t-217 554t222 548t565 208q152 0 298 -56t228 -165l-197 -156q-53 74 -144 112t-185 38z
" />
    <glyph glyph-name="ccircumflex" unicode="&#x109;" horiz-adv-x="999" 
d="M989 1155h-233l-142 184l-141 -184h-229l235 295h277zM616 807q-126 0 -198 -95t-72 -221q0 -127 74 -221t207 -94t204 88l154 -155q-127 -137 -357 -137t-384 140q-154 142 -154 378t152 378q152 143 374 144q110 0 212 -41t159 -113l-168 -147q-29 41 -86 69t-117 27z
" />
    <glyph glyph-name="Cdotaccent" unicode="&#x10a;" horiz-adv-x="1425" 
d="M715 1726q0 60 45 104q46 44 112 44t112 -42t46 -106t-46 -105q-46 -42 -113 -42t-111 44t-45 103zM877 1260q-221 0 -361 -152t-141 -384q0 -232 134 -381q134 -148 360 -148t350 167l206 -145q-203 -254 -552 -254t-566 214t-217 554t222 548t565 208q152 0 298 -56
t228 -165l-197 -156q-53 74 -144 112t-185 38z" />
    <glyph glyph-name="cdotaccent" unicode="&#x10b;" horiz-adv-x="999" 
d="M455 1317q0 59 45 103q46 44 112 44t112 -42t46 -105t-46 -105t-113 -43q-67 1 -111 45t-45 103zM616 807q-126 0 -198 -95t-72 -221q0 -127 74 -221t207 -94t204 88l154 -155q-127 -137 -357 -137t-384 140q-154 142 -154 378t152 378q152 143 374 144q110 0 212 -41
t159 -113l-168 -147q-29 41 -86 69t-117 27z" />
    <glyph glyph-name="Ccaron" unicode="&#x10c;" horiz-adv-x="1425" 
d="M498 1860h233l141 -185l142 185h225l-235 -295h-273zM877 1260q-221 0 -361 -152t-141 -384q0 -232 134 -381q134 -148 360 -148t350 167l206 -145q-203 -254 -552 -254t-566 214t-217 554t222 548t565 208q152 0 298 -56t228 -165l-197 -156q-53 74 -144 112t-185 38z
" />
    <glyph glyph-name="ccaron" unicode="&#x10d;" horiz-adv-x="999" 
d="M248 1450h233l142 -184l141 184h225l-235 -295h-273zM616 807q-126 0 -198 -95t-72 -221q0 -127 74 -221t207 -94t204 88l154 -155q-127 -137 -357 -137t-384 140q-154 142 -154 378t152 378q152 143 374 144q110 0 212 -41t159 -113l-168 -147q-29 41 -86 69t-117 27z
" />
    <glyph glyph-name="Dcaron" unicode="&#x10e;" horiz-adv-x="1564" 
d="M334 1860h233l142 -185l141 185h225l-235 -295h-273zM418 225h215q178 0 313 65q76 36 130 90t88 143t34 202q0 504 -565 504h-215v-1004zM160 0v1450h514q311 0 540 -157q119 -81 190 -227t71 -334t-71 -332t-189 -229q-237 -171 -541 -171h-514z" />
    <glyph glyph-name="dcaron" unicode="&#x10f;" horiz-adv-x="1474" 
d="M1202 1051l133 399h217l-163 -399h-187zM338 496q0 -128 75 -224t206 -96t211 96t79 220q0 124 -80 221q-81 98 -211 98t-205 -94t-75 -221zM1147 1548v-1548h-234v147h-4q-49 -84 -141 -130t-197 -46q-219 0 -351 152t-132 373t134 368q134 148 342 148t331 -154h6v690
h246z" />
    <glyph glyph-name="Dcroat" unicode="&#x110;" horiz-adv-x="1564" 
d="M420 233h192q262 0 425 121t163 372t-146 371t-399 120h-235v-381h442v-172h-442v-431zM162 0v664h-135v172h135v614h571q307 0 522 -188t215 -537q0 -177 -70 -321q-125 -254 -430 -359q-132 -45 -268 -45h-540z" />
    <glyph glyph-name="dcroat" unicode="&#x111;" horiz-adv-x="1298" 
d="M338 496q0 -128 75 -224t206 -96t211 96t79 220q0 124 -80 221q-81 98 -211 98t-205 -94t-75 -221zM1257 1321v-154h-110v-1167h-234v147h-4q-49 -84 -141 -130t-197 -46q-219 0 -351 152t-132 373t134 368q134 148 342 148t331 -154h6v309h-348v154h348v227h246v-227
h110z" />
    <glyph glyph-name="Emacron" unicode="&#x112;" horiz-adv-x="1249" 
d="M977 1788v-160h-655v160h655zM160 0v1450h960v-225h-702v-369h665v-217h-665v-410h739v-229h-997z" />
    <glyph glyph-name="emacron" unicode="&#x113;" horiz-adv-x="1175" 
d="M940 1378v-159h-655v159h655zM1085 479q0 -43 -2 -65h-747q8 -102 90 -172t190 -70q170 0 261 127l163 -131q-145 -197 -422 -197q-231 -1 -379 139q-149 140 -149 376t148 380q148 146 366 146q219 0 350 -138t131 -395zM840 590q0 102 -60 170t-170 68t-188 -68
t-86 -170h504z" />
    <glyph glyph-name="Ebreve" unicode="&#x114;" horiz-adv-x="1249" 
d="M299 1860h137q25 -135 211 -136q94 0 144 27q49 27 69 109h135q-14 -148 -107 -222t-244 -74t-244 75q-93 74 -101 221zM160 0v1450h960v-225h-702v-369h665v-217h-665v-410h739v-229h-997z" />
    <glyph glyph-name="ebreve" unicode="&#x115;" horiz-adv-x="1175" 
d="M616 1315q94 0 144 26q49 27 69 109h136q-13 -147 -107 -221t-245 -74t-244 74t-101 221h138q25 -135 210 -135zM1085 479q0 -43 -2 -65h-747q8 -102 90 -172t190 -70q170 0 261 127l163 -131q-145 -197 -422 -197q-231 -1 -379 139q-149 140 -149 376t148 380
q148 146 366 146q219 0 350 -138t131 -395zM840 590q0 102 -60 170t-170 68t-188 -68t-86 -170h504z" />
    <glyph glyph-name="Edotaccent" unicode="&#x116;" horiz-adv-x="1249" 
d="M500 1726q0 60 45 104t111 44t113 -42q46 -42 46 -106t-46 -105q-46 -42 -113 -42q-68 0 -112 44t-44 103zM160 0v1450h960v-225h-702v-369h665v-217h-665v-410h739v-229h-997z" />
    <glyph glyph-name="edotaccent" unicode="&#x117;" horiz-adv-x="1175" 
d="M455 1317q0 59 45 103q46 44 112 44t112 -42t46 -105t-46 -105t-113 -43q-67 1 -111 45t-45 103zM1085 479q0 -43 -2 -65h-747q8 -102 90 -172t190 -70q170 0 261 127l163 -131q-145 -197 -422 -197q-231 -1 -379 139q-149 140 -149 376t148 380q148 146 366 146
q219 0 350 -138t131 -395zM840 590q0 102 -60 170t-170 68t-188 -68t-86 -170h504z" />
    <glyph glyph-name="Eogonek" unicode="&#x118;" horiz-adv-x="1249" 
d="M160 0v1450h960v-225h-702v-369h665v-217h-665v-410h739v-229h-53q-156 -145 -156 -250q0 -38 28 -66t76 -28t101 43l51 -100q-98 -78 -194 -78t-159 49t-63 129t56 160t133 141h-817z" />
    <glyph glyph-name="eogonek" unicode="&#x119;" horiz-adv-x="1175" 
d="M840 590q0 102 -60 170t-170 68t-188 -68t-86 -170h504zM666 -479q-96 0 -159 49q-62 49 -63 133q0 129 156 268q-226 7 -368 145t-142 372t148 378q148 146 366 146q219 0 350 -138t131 -395q0 -43 -2 -65h-747q8 -102 90 -172t190 -70q170 0 261 127l163 -131
q-111 -150 -299 -184q-137 -137 -137 -234q0 -38 28 -66t77 -28t100 43l51 -100q-98 -78 -194 -78z" />
    <glyph glyph-name="Ecaron" unicode="&#x11a;" horiz-adv-x="1249" 
d="M276 1860h234l141 -185l142 185h225l-236 -295h-272zM160 0v1450h960v-225h-702v-369h665v-217h-665v-410h739v-229h-997z" />
    <glyph glyph-name="ecaron" unicode="&#x11b;" horiz-adv-x="1175" 
d="M246 1450h233l142 -184l141 184h225l-235 -295h-273zM1085 479q0 -43 -2 -65h-747q8 -102 90 -172t190 -70q170 0 261 127l163 -131q-145 -197 -422 -197q-231 -1 -379 139q-149 140 -149 376t148 380q148 146 366 146q219 0 350 -138t131 -395zM840 590q0 102 -60 170
t-170 68t-188 -68t-86 -170h504z" />
    <glyph glyph-name="Gcircumflex" unicode="&#x11c;" horiz-adv-x="1583" 
d="M1255 1565h-233l-141 184l-142 -184h-229l235 295h277zM1430 827v-751q-236 -113 -547 -113q-350 0 -572 213q-221 213 -221 554t222 549t565 208q168 0 314 -49t236 -133l-178 -193q-57 64 -157 106t-213 42q-225 0 -365 -152t-139 -384q0 -232 140 -380
q140 -150 376 -149q166 0 289 51v368h-306v213h556z" />
    <glyph glyph-name="gcircumflex" unicode="&#x11d;" horiz-adv-x="1294" 
d="M1038 1155h-233l-141 184l-142 -184h-229l235 295h277zM624 811q-130 0 -207 -89t-77 -219t77 -223q77 -94 206 -94t210 92t81 221q0 130 -80 221t-210 91zM913 983h234v-895q0 -274 -138 -427t-417 -153q-125 0 -260 43t-228 119l142 191q145 -139 344 -140
q311 0 311 338v72h-4q-111 -147 -324 -147t-348 148t-135 366t132 365q132 149 356 149t331 -176h4v147z" />
    <glyph glyph-name="Gbreve" unicode="&#x11e;" horiz-adv-x="1583" 
d="M532 1860h138q25 -135 211 -136q94 0 143 27t70 109h135q-13 -148 -107 -222t-244 -74t-244 75q-94 74 -102 221zM1430 827v-751q-236 -113 -547 -113q-350 0 -572 213q-221 213 -221 554t222 549t565 208q168 0 314 -49t236 -133l-178 -193q-57 64 -157 106t-213 42
q-225 0 -365 -152t-139 -384q0 -232 140 -380q140 -150 376 -149q166 0 289 51v368h-306v213h556z" />
    <glyph glyph-name="gbreve" unicode="&#x11f;" horiz-adv-x="1294" 
d="M641 1315q94 1 143 27t70 108h135q-14 -147 -107 -221t-244 -74t-244 74t-101 221h137q25 -135 211 -135zM624 811q-130 0 -207 -89t-77 -219t77 -223q77 -94 206 -94t210 92t81 221q0 130 -80 221t-210 91zM913 983h234v-895q0 -274 -138 -427t-417 -153q-125 0 -260 43
t-228 119l142 191q145 -139 344 -140q311 0 311 338v72h-4q-111 -147 -324 -147t-348 148t-135 366t132 365q132 149 356 149t331 -176h4v147z" />
    <glyph glyph-name="Gdotaccent" unicode="&#x120;" horiz-adv-x="1583" 
d="M725 1726q0 60 45 104t112 44q66 0 112 -42t46 -106t-46 -105q-46 -42 -112 -42t-112 44q-45 44 -45 103zM1430 827v-751q-236 -113 -547 -113q-350 0 -572 213q-221 213 -221 554t222 549t565 208q168 0 314 -49t236 -133l-178 -193q-57 64 -157 106t-213 42
q-225 0 -365 -152t-139 -384q0 -232 140 -380q140 -150 376 -149q166 0 289 51v368h-306v213h556z" />
    <glyph glyph-name="gdotaccent" unicode="&#x121;" horiz-adv-x="1294" 
d="M489 1317q-1 59 45 103t112 44t113 -42q46 -42 46 -105t-46 -105t-113 -43q-67 1 -112 45t-45 103zM624 811q-130 0 -207 -89t-77 -219t77 -223q77 -94 206 -94t210 92t81 221q0 130 -80 221t-210 91zM913 983h234v-895q0 -274 -138 -427t-417 -153q-125 0 -260 43
t-228 119l142 191q145 -139 344 -140q311 0 311 338v72h-4q-111 -147 -324 -147t-348 148t-135 366t132 365q132 149 356 149t331 -176h4v147z" />
    <glyph glyph-name="Gcommaaccent" unicode="&#x122;" horiz-adv-x="1583" 
d="M657 -492l134 400h217l-164 -400h-187zM1430 827v-751q-236 -113 -547 -113q-350 0 -572 213q-221 213 -221 554t222 549t565 208q168 0 314 -49t236 -133l-178 -193q-57 64 -157 106t-213 42q-225 0 -365 -152t-139 -384q0 -232 140 -380q140 -150 376 -149
q166 0 289 51v368h-306v213h556z" />
    <glyph glyph-name="gcommaaccent" unicode="&#x123;" horiz-adv-x="1294" 
d="M819 1554l-133 -399h-217l164 399h186zM624 811q-130 0 -207 -89t-77 -219t77 -223q77 -94 206 -94t210 92t81 221q0 130 -80 221t-210 91zM913 983h234v-895q0 -274 -138 -427t-417 -153q-125 0 -260 43t-228 119l142 191q145 -139 344 -140q311 0 311 338v72h-4
q-111 -147 -324 -147t-348 148t-135 366t132 365q132 149 356 149t331 -176h4v147z" />
    <glyph glyph-name="Hcircumflex" unicode="&#x124;" horiz-adv-x="1513" 
d="M1133 1565h-234l-141 184l-142 -184h-229l236 295h276zM160 0v1450h258v-586h678v586h258v-1450h-258v643h-678v-643h-258z" />
    <glyph glyph-name="hcircumflex" unicode="&#x125;" horiz-adv-x="1196" 
d="M975 1630h-234l-141 185l-141 -185h-230l236 295h276zM694 1012q180 0 272 -116t91 -282v-614h-246v541q0 260 -182 260q-111 0 -171 -79t-61 -185v-537h-245v1548h245v-702h4q33 68 112 117t181 49z" />
    <glyph glyph-name="Hbar" unicode="&#x126;" horiz-adv-x="1513" 
d="M418 864h678v160h-678v-160zM160 0v1450h258v-272h678v272h258v-1450h-258v643h-678v-643h-258z" />
    <glyph glyph-name="hbar" unicode="&#x127;" horiz-adv-x="1196" 
d="M745 1321v-154h-348v-321h4q33 68 112 117t181 49q180 0 272 -116t91 -282v-614h-246v541q0 260 -182 260q-111 0 -171 -79t-61 -185v-537h-245v1167h-111v154h111v227h245v-227h348z" />
    <glyph glyph-name="Itilde" unicode="&#x128;" horiz-adv-x="577" 
d="M141 1833q74 0 164 -38t131 -38q68 0 94 86h136q-45 -260 -230 -260q-76 0 -162 39t-133 39q-65 0 -94 -88h-135q45 260 229 260zM160 0v1450h258v-1450h-258z" />
    <glyph glyph-name="itilde" unicode="&#x129;" horiz-adv-x="548" 
d="M131 1423q74 0 164 -38t131 -37q68 0 94 86h135q-45 -260 -229 -260q-76 0 -162 38t-133 39q-65 0 -94 -88h-135q45 260 229 260zM152 0v983h245v-983h-245z" />
    <glyph glyph-name="Imacron" unicode="&#x12a;" horiz-adv-x="577" 
d="M616 1788v-160h-655v160h655zM160 0v1450h258v-1450h-258z" />
    <glyph glyph-name="imacron" unicode="&#x12b;" horiz-adv-x="548" 
d="M606 1378v-159h-655v159h655zM152 0v983h245v-983h-245z" />
    <glyph glyph-name="Iogonek" unicode="&#x12e;" horiz-adv-x="577" 
d="M160 0v1450h258v-1450h-27q-156 -145 -155 -250q0 -38 28 -66t76 -28q49 0 100 43l52 -100q-98 -78 -194 -78t-160 49q-62 49 -62 129t56 160t132 141h-104z" />
    <glyph glyph-name="iogonek" unicode="&#x12f;" horiz-adv-x="548" 
d="M117 1317q0 59 45 103q46 44 112 44t112 -42t46 -105t-46 -105t-113 -43q-67 1 -111 45t-45 103zM152 0v983h245v-983h-39q-156 -145 -155 -250q-1 -38 27 -66t77 -28t101 43l51 -100q-99 -78 -195 -78t-159 49q-62 49 -62 129t56 160t132 141h-79z" />
    <glyph glyph-name="Idotaccent" unicode="&#x130;" horiz-adv-x="577" 
d="M129 1726q0 60 45 104t112 44q66 0 112 -42t46 -106t-46 -105q-46 -42 -112 -42t-112 44q-45 44 -45 103zM160 0v1450h258v-1450h-258z" />
    <glyph glyph-name="dotlessi" unicode="&#x131;" horiz-adv-x="548" 
d="M152 0v983h245v-983h-245z" />
    <glyph glyph-name="Jcircumflex" unicode="&#x134;" horiz-adv-x="1019" 
d="M1114 1565h-233l-142 184l-141 -184h-229l235 295h277zM872 1450v-981q0 -249 -126 -389q-46 -51 -126 -84t-184 -33q-170 0 -278 86t-148 234l238 67q18 -72 67 -114t117 -41q104 1 143 73t39 209v973h258z" />
    <glyph glyph-name="jcircumflex" unicode="&#x135;" horiz-adv-x="548" 
d="M647 1155h-233l-142 184l-141 -184h-229l235 295h277zM152 983h245v-1042q0 -318 -177 -400q-72 -33 -156 -33t-134 13l21 209q31 -8 67 -9q80 1 107 55t27 154v1053z" />
    <glyph glyph-name="Kcommaaccent" unicode="&#x136;" horiz-adv-x="1411" 
d="M510 -492l133 400h217l-164 -400h-186zM160 0v1450h258v-627h6l606 627h348l-678 -670l723 -780h-362l-637 727h-6v-727h-258z" />
    <glyph glyph-name="kcommaaccent" unicode="&#x137;" horiz-adv-x="1112" 
d="M371 -492l133 400h217l-164 -400h-186zM152 0v1548h245v-979h6l373 414h316l-426 -444l452 -539h-325l-390 504h-6v-504h-245z" />
    <glyph glyph-name="Lacute" unicode="&#x139;" horiz-adv-x="1046" 
d="M190 1565l203 295h279l-289 -295h-193zM160 0v1450h258v-1221h616v-229h-874z" />
    <glyph glyph-name="lacute" unicode="&#x13a;" horiz-adv-x="548" 
d="M152 1622l202 295h279l-289 -295h-192zM152 0v1548h245v-1548h-245z" />
    <glyph glyph-name="Lcommaaccent" unicode="&#x13b;" horiz-adv-x="1046" 
d="M383 -492l133 400h217l-164 -400h-186zM160 0v1450h258v-1221h616v-229h-874z" />
    <glyph glyph-name="lcommaaccent" unicode="&#x13c;" horiz-adv-x="548" 
d="M59 -492l134 400h217l-164 -400h-187zM152 0v1548h245v-1548h-245z" />
    <glyph glyph-name="Lcaron" unicode="&#x13d;" horiz-adv-x="1046" 
d="M545 1051l133 399h217l-164 -399h-186zM160 0v1450h258v-1221h616v-229h-874z" />
    <glyph glyph-name="lcaron" unicode="&#x13e;" horiz-adv-x="720" 
d="M449 1051l133 399h217l-164 -399h-186zM152 0v1548h245v-1548h-245z" />
    <glyph glyph-name="Ldot" unicode="&#x13f;" horiz-adv-x="1046" 
d="M590 866q0 60 45 104t111 44t113 -42q46 -42 46 -106t-46 -105q-46 -42 -113 -42q-68 0 -112 44t-44 103zM160 0v1450h258v-1221h616v-229h-874z" />
    <glyph glyph-name="ldot" unicode="&#x140;" horiz-adv-x="800" 
d="M485 928q0 59 45 103t112 44t113 -42t46 -105q0 -64 -46 -106t-113 -42t-112 44t-45 104zM152 0v1548h245v-1548h-245z" />
    <glyph glyph-name="Lslash" unicode="&#x141;" horiz-adv-x="1046" 
d="M160 0v412l-144 -127v225l144 127v813h258v-614l422 370v-223l-422 -373v-381h616v-229h-874z" />
    <glyph glyph-name="lslash" unicode="&#x142;" horiz-adv-x="548" 
d="M152 0v610l-142 -141v223l142 142v714h245v-522l142 141v-219l-142 -139v-809h-245z" />
    <glyph glyph-name="Nacute" unicode="&#x143;" horiz-adv-x="1597" 
d="M633 1565l203 295h278l-289 -295h-192zM160 0v1450h342l674 -1085h4v1085h258v-1450h-328l-688 1120h-4v-1120h-258z" />
    <glyph glyph-name="nacute" unicode="&#x144;" horiz-adv-x="1191" 
d="M444 1155l203 295h279l-289 -295h-193zM147 0v983h234v-158h4q35 78 118 132t187 55q180 0 272 -116t91 -282v-614h-246v545q0 262 -184 262q-111 0 -170 -79t-60 -187v-541h-246z" />
    <glyph glyph-name="Ncommaaccent" unicode="&#x145;" horiz-adv-x="1597" 
d="M592 -492l133 400h217l-164 -400h-186zM160 0v1450h342l674 -1085h4v1085h258v-1450h-328l-688 1120h-4v-1120h-258z" />
    <glyph glyph-name="ncommaaccent" unicode="&#x146;" horiz-adv-x="1191" 
d="M387 -492l133 400h217l-164 -400h-186zM147 0v983h234v-158h4q35 78 118 132t187 55q180 0 272 -116t91 -282v-614h-246v545q0 262 -184 262q-111 0 -170 -79t-60 -187v-541h-246z" />
    <glyph glyph-name="Ncaron" unicode="&#x147;" horiz-adv-x="1597" 
d="M426 1860h233l142 -185l141 185h225l-235 -295h-273zM160 0v1450h342l674 -1085h4v1085h258v-1450h-328l-688 1120h-4v-1120h-258z" />
    <glyph glyph-name="ncaron" unicode="&#x148;" horiz-adv-x="1191" 
d="M219 1450h234l141 -184l141 184h226l-236 -295h-272zM147 0v983h234v-158h4q35 78 118 132t187 55q180 0 272 -116t91 -282v-614h-246v545q0 262 -184 262q-111 0 -170 -79t-60 -187v-541h-246z" />
    <glyph glyph-name="Omacron" unicode="&#x14c;" horiz-adv-x="1738" 
d="M1198 1788v-160h-655v160h655zM371 726q0 -230 139 -381t359 -151t360 151q139 151 139 381t-138 382t-360 152t-361 -152q-138 -152 -138 -382zM90 732q0 341 218 548t560 207t562 -207t219 -548t-221 -555t-560 -214t-559 214t-219 555z" />
    <glyph glyph-name="omacron" unicode="&#x14d;" horiz-adv-x="1249" 
d="M952 1378v-159h-655v159h655zM340 496q0 -128 74 -224t211 -96t211 96t74 224t-74 221q-74 94 -211 94t-211 -94t-74 -221zM90 495q0 228 154 372q154 145 381 145t381 -144t154 -373q0 -228 -155 -376q-155 -147 -380 -147t-380 147q-155 148 -155 376z" />
    <glyph glyph-name="Obreve" unicode="&#x14e;" horiz-adv-x="1738" 
d="M522 1860h137q25 -135 211 -136q94 0 144 27q49 27 69 109h136q-13 -148 -107 -222t-245 -74t-244 75q-93 74 -101 221zM371 726q0 -230 139 -381t359 -151t360 151q139 151 139 381t-138 382t-360 152t-361 -152q-138 -152 -138 -382zM90 732q0 341 218 548t560 207
t562 -207t219 -548t-221 -555t-560 -214t-559 214t-219 555z" />
    <glyph glyph-name="obreve" unicode="&#x14f;" horiz-adv-x="1249" 
d="M625 1315q94 1 143 27t70 108h135q-13 -147 -107 -221t-244 -74t-244 74t-102 221h138q25 -135 211 -135zM340 496q0 -128 74 -224t211 -96t211 96t74 224t-74 221q-74 94 -211 94t-211 -94t-74 -221zM90 495q0 228 154 372q154 145 381 145t381 -144t154 -373
q0 -228 -155 -376q-155 -147 -380 -147t-380 147q-155 148 -155 376z" />
    <glyph glyph-name="Ohungarumlaut" unicode="&#x150;" horiz-adv-x="1738" 
d="M977 1565l203 295h278l-289 -295h-192zM557 1565l203 295h278l-288 -295h-193zM371 726q0 -230 139 -381t359 -151t360 151q139 151 139 381t-138 382t-360 152t-361 -152q-138 -152 -138 -382zM90 732q0 341 218 548t560 207t562 -207t219 -548t-221 -555t-560 -214
t-559 214t-219 555z" />
    <glyph glyph-name="ohungarumlaut" unicode="&#x151;" horiz-adv-x="1249" 
d="M745 1155l203 295h279l-289 -295h-193zM326 1155l202 295h279l-289 -295h-192zM340 496q0 -128 74 -224t211 -96t211 96t74 224t-74 221q-74 94 -211 94t-211 -94t-74 -221zM90 495q0 228 154 372q154 145 381 145t381 -144t154 -373q0 -228 -155 -376
q-155 -147 -380 -147t-380 147q-155 148 -155 376z" />
    <glyph glyph-name="OE" unicode="&#x152;" horiz-adv-x="2103" 
d="M891 1450h1083v-225h-671v-369h634v-217h-634v-410h708v-229h-1120q-305 0 -542 171q-118 85 -188 228q-71 143 -71 332t71 335t189 227q231 157 541 157zM1044 229v996h-112q-565 0 -565 -500q0 -139 49 -241t135 -154q164 -101 381 -101h112z" />
    <glyph glyph-name="oe" unicode="&#x153;" horiz-adv-x="1964" 
d="M1628 590q0 102 -59 170t-170 68t-189 -68t-86 -170h504zM340 496q0 -128 74 -224t211 -96t211 96t74 224t-74 221q-74 94 -211 94t-211 -94t-74 -221zM1386 1012q226 0 357 -138t131 -395q0 -43 -2 -65h-748q12 -106 92 -174t189 -68q168 0 260 129l162 -133
q-143 -197 -422 -197q-127 1 -231 51t-168 136q-64 -86 -166 -136t-224 -51q-226 -1 -376 147t-150 378t151 372q151 143 375 144q124 0 228 -52t168 -139q148 191 374 191z" />
    <glyph glyph-name="Racute" unicode="&#x154;" horiz-adv-x="1288" 
d="M459 1565l203 295h278l-289 -295h-192zM418 825h211q311 0 311 211q0 106 -84 152t-205 45h-233v-408zM160 0v1450h504q145 0 261 -38q117 -38 195 -135t78 -247t-88 -251t-244 -136l387 -643h-311l-336 614h-188v-614h-258z" />
    <glyph glyph-name="racute" unicode="&#x155;" horiz-adv-x="745" 
d="M211 1155l203 295h278l-289 -295h-192zM147 0v983h236v-164h4q41 88 117 140t170 53q35 0 59 -6v-226q-105 26 -188 -10q-113 -46 -146 -188q-6 -31 -6 -56v-526h-246z" />
    <glyph glyph-name="Rcommaaccent" unicode="&#x156;" horiz-adv-x="1288" 
d="M434 -492l133 400h217l-163 -400h-187zM418 825h211q311 0 311 211q0 106 -84 152t-205 45h-233v-408zM160 0v1450h504q145 0 261 -38q117 -38 195 -135t78 -247t-88 -251t-244 -136l387 -643h-311l-336 614h-188v-614h-258z" />
    <glyph glyph-name="rcommaaccent" unicode="&#x157;" horiz-adv-x="745" 
d="M57 -492l133 400h218l-164 -400h-187zM147 0v983h236v-164h4q41 88 117 140t170 53q35 0 59 -6v-226q-105 26 -188 -10q-113 -46 -146 -188q-6 -31 -6 -56v-526h-246z" />
    <glyph glyph-name="Rcaron" unicode="&#x158;" horiz-adv-x="1288" 
d="M254 1860h233l142 -185l141 185h225l-235 -295h-273zM418 825h211q311 0 311 211q0 106 -84 152t-205 45h-233v-408zM160 0v1450h504q145 0 261 -38q117 -38 195 -135t78 -247t-88 -251t-244 -136l387 -643h-311l-336 614h-188v-614h-258z" />
    <glyph glyph-name="rcaron" unicode="&#x159;" horiz-adv-x="745" 
d="M59 1450h234l141 -184l141 184h226l-236 -295h-272zM147 0v983h236v-164h4q41 88 117 140t170 53q35 0 59 -6v-226q-105 26 -188 -10q-113 -46 -146 -188q-6 -31 -6 -56v-526h-246z" />
    <glyph glyph-name="Sacute" unicode="&#x15a;" horiz-adv-x="1175" 
d="M477 1565l203 295h278l-288 -295h-193zM620 1272q-88 0 -165 -50q-78 -50 -78 -149q0 -49 17 -83q18 -34 62 -60t83 -41q39 -14 113 -38t119 -40q46 -16 111 -52q64 -36 102 -77t66 -108t27 -148q-1 -223 -151 -343t-377 -120q-145 0 -279 54t-219 153l185 172
q53 -72 141 -116t184 -44t175 54t79 147q0 94 -48 135q-28 25 -48 40q-41 31 -213 84q-172 54 -272 131q-121 96 -120 295q2 200 158 310t373 109q115 0 229 -40t193 -116l-168 -184q-41 55 -116 90t-163 35z" />
    <glyph glyph-name="sacute" unicode="&#x15b;" horiz-adv-x="909" 
d="M324 1155l202 295h279l-289 -295h-192zM313 722q0 -52 47 -77t138 -46q152 -35 240 -93q106 -70 106 -222q0 -153 -116 -233t-294 -80q-118 0 -226 43t-177 119l162 152q94 -123 251 -123q63 0 111 28q47 30 47 88t-50 86t-179 58t-208 91q-79 59 -79 199t115 220t276 80
q111 0 211 -39t158 -111l-160 -141q-35 45 -92 76t-123 31t-112 -28q-46 -26 -46 -78z" />
    <glyph glyph-name="Scircumflex" unicode="&#x15c;" horiz-adv-x="1175" 
d="M1012 1565h-234l-141 184l-141 -184h-230l236 295h276zM620 1272q-88 0 -165 -50q-78 -50 -78 -149q0 -49 17 -83q18 -34 62 -60t83 -41q39 -14 113 -38t119 -40q46 -16 111 -52q64 -36 102 -77t66 -108t27 -148q-1 -223 -151 -343t-377 -120q-145 0 -279 54t-219 153
l185 172q53 -72 141 -116t184 -44t175 54t79 147q0 94 -48 135q-28 25 -48 40q-41 31 -213 84q-172 54 -272 131q-121 96 -120 295q2 200 158 310t373 109q115 0 229 -40t193 -116l-168 -184q-41 55 -116 90t-163 35z" />
    <glyph glyph-name="scircumflex" unicode="&#x15d;" horiz-adv-x="909" 
d="M856 1155h-233l-142 184l-141 -184h-229l235 295h277zM313 722q0 -52 47 -77t138 -46q152 -35 240 -93q106 -70 106 -222q0 -153 -116 -233t-294 -80q-118 0 -226 43t-177 119l162 152q94 -123 251 -123q63 0 111 28q47 30 47 88t-50 86t-179 58t-208 91q-79 59 -79 199
t115 220t276 80q111 0 211 -39t158 -111l-160 -141q-35 45 -92 76t-123 31t-112 -28q-46 -26 -46 -78z" />
    <glyph glyph-name="Scedilla" unicode="&#x15e;" horiz-adv-x="1175" 
d="M620 1272q-88 0 -165 -50q-78 -50 -78 -149q0 -49 17 -83q18 -34 62 -60t83 -41q39 -14 113 -38t119 -40q46 -16 111 -52q64 -36 102 -77t66 -108t27 -148q0 -205 -130 -323t-333 -136l-67 -98q16 2 39 2q215 0 215 -170q0 -102 -84 -147q-84 -46 -202 -46t-218 54l47 98
q78 -41 168 -41q117 0 117 84q0 74 -109 74q-43 0 -80 -13l-47 52l103 149q-133 11 -252 63t-193 142l185 172q53 -72 141 -116t184 -44t175 54t79 147q0 94 -48 135q-28 25 -48 40q-41 31 -213 84q-172 54 -272 131q-121 96 -120 295q2 200 158 310t373 109q115 0 229 -40
t193 -116l-168 -184q-41 55 -116 90t-163 35z" />
    <glyph glyph-name="scedilla" unicode="&#x15f;" horiz-adv-x="909" 
d="M313 722q0 -52 47 -77t138 -46q152 -35 240 -93q106 -70 106 -215q0 -147 -98 -225t-252 -93l-74 -104q16 2 39 2q215 0 215 -170q0 -102 -84 -147q-84 -46 -202 -46t-218 54l47 98q78 -41 168 -41q117 0 117 84q0 74 -109 74q-43 0 -80 -13l-47 52l109 159
q-221 20 -344 158l162 152q94 -123 251 -123q63 0 111 28q47 30 47 88t-50 86t-179 58t-208 91q-79 59 -79 199t115 220t276 80q111 0 211 -39t158 -111l-160 -141q-35 45 -92 76t-123 31t-112 -28q-46 -26 -46 -78z" />
    <glyph glyph-name="Scaron" unicode="&#x160;" horiz-adv-x="1175" 
d="M262 1860h234l141 -185l141 185h226l-236 -295h-272zM620 1272q-88 0 -165 -50q-78 -50 -78 -149q0 -49 17 -83q18 -34 62 -60t83 -41q39 -14 113 -38t119 -40q46 -16 111 -52q64 -36 102 -77t66 -108t27 -148q-1 -223 -151 -343t-377 -120q-145 0 -279 54t-219 153
l185 172q53 -72 141 -116t184 -44t175 54t79 147q0 94 -48 135q-28 25 -48 40q-41 31 -213 84q-172 54 -272 131q-121 96 -120 295q2 200 158 310t373 109q115 0 229 -40t193 -116l-168 -184q-41 55 -116 90t-163 35z" />
    <glyph glyph-name="scaron" unicode="&#x161;" horiz-adv-x="909" 
d="M96 1450h234l141 -184l141 184h226l-236 -295h-272zM313 722q0 -52 47 -77t138 -46q152 -35 240 -93q106 -70 106 -222q0 -153 -116 -233t-294 -80q-118 0 -226 43t-177 119l162 152q94 -123 251 -123q63 0 111 28q47 30 47 88t-50 86t-179 58t-208 91q-79 59 -79 199
t115 220t276 80q111 0 211 -39t158 -111l-160 -141q-35 45 -92 76t-123 31t-112 -28q-46 -26 -46 -78z" />
    <glyph glyph-name="Tcommaaccent" unicode="&#x162;" horiz-adv-x="1163" 
d="M367 -492l133 400h217l-164 -400h-186zM453 0v1225h-445v225h1147v-225h-444v-1225h-258z" />
    <glyph glyph-name="tcommaaccent" unicode="&#x163;" horiz-adv-x="696" 
d="M201 -492l133 400h217l-164 -400h-186zM178 786h-172v197h172v285h242v-285h246v-197h-246v-456q0 -74 26 -113t96 -39t111 21l9 -193q-70 -27 -164 -26q-180 0 -250 93t-70 255v458z" />
    <glyph glyph-name="Tcaron" unicode="&#x164;" horiz-adv-x="1163" 
d="M215 1860h234l141 -185l141 185h225l-235 -295h-272zM453 0v1225h-445v225h1147v-225h-444v-1225h-258z" />
    <glyph glyph-name="tcaron" unicode="&#x165;" horiz-adv-x="737" 
d="M475 1098l133 399h217l-163 -399h-187zM178 786h-172v197h172v285h242v-285h246v-197h-246v-456q0 -74 26 -113t96 -39t111 21l9 -193q-70 -27 -164 -26q-180 0 -250 93t-70 255v458z" />
    <glyph glyph-name="Tbar" unicode="&#x166;" horiz-adv-x="1163" 
d="M1036 1038v-153h-325v-885h-258v885h-306v153h306v187h-445v225h1147v-225h-444v-187h325z" />
    <glyph glyph-name="tbar" unicode="&#x167;" horiz-adv-x="696" 
d="M625 602v-153h-205v-119q0 -74 26 -113t96 -39t111 21l9 -193q-70 -27 -164 -26q-180 0 -250 93t-70 255v121h-153v153h153v184h-172v197h172v285h242v-285h246v-197h-246v-184h205z" />
    <glyph glyph-name="Utilde" unicode="&#x168;" horiz-adv-x="1462" 
d="M592 1833q74 0 164 -38t131 -38q68 0 94 86h135q-45 -260 -229 -260q-76 0 -162 39t-133 39q-65 0 -94 -88h-136q45 260 230 260zM1315 1450v-918q0 -258 -165 -414t-419 -155q-254 0 -419 156t-165 413v918h259v-907q0 -145 77 -247q78 -101 248 -101t248 101t78 247
v907h258z" />
    <glyph glyph-name="utilde" unicode="&#x169;" horiz-adv-x="1191" 
d="M449 1423q73 0 163 -38t131 -37q68 0 95 86h135q-45 -260 -230 -260q-76 0 -162 38t-132 39q-66 0 -95 -88h-135q45 260 230 260zM1044 983v-983h-233v158h-4q-35 -78 -118 -132t-187 -55q-180 0 -272 116q-91 116 -91 282v614h246v-545q0 -262 184 -262q111 0 170 79
t60 187v541h245z" />
    <glyph glyph-name="Umacron" unicode="&#x16a;" horiz-adv-x="1462" 
d="M1067 1788v-160h-655v160h655zM1315 1450v-918q0 -258 -165 -414t-419 -155q-254 0 -419 156t-165 413v918h259v-907q0 -145 77 -247q78 -101 248 -101t248 101t78 247v907h258z" />
    <glyph glyph-name="umacron" unicode="&#x16b;" horiz-adv-x="1191" 
d="M922 1378v-159h-656v159h656zM1044 983v-983h-233v158h-4q-35 -78 -118 -132t-187 -55q-180 0 -272 116q-91 116 -91 282v614h246v-545q0 -262 184 -262q111 0 170 79t60 187v541h245z" />
    <glyph glyph-name="Ubreve" unicode="&#x16c;" horiz-adv-x="1462" 
d="M381 1860h137q25 -135 211 -136q94 0 143 27t70 109h135q-14 -148 -107 -222t-244 -74t-244 75q-93 74 -101 221zM1315 1450v-918q0 -258 -165 -414t-419 -155q-254 0 -419 156t-165 413v918h259v-907q0 -145 77 -247q78 -101 248 -101t248 101t78 247v907h258z" />
    <glyph glyph-name="ubreve" unicode="&#x16d;" horiz-adv-x="1191" 
d="M592 1315q94 1 143 27t70 108h135q-14 -147 -107 -221t-244 -74t-244 74t-101 221h137q25 -135 211 -135zM1044 983v-983h-233v158h-4q-35 -78 -118 -132t-187 -55q-180 0 -272 116q-91 116 -91 282v614h246v-545q0 -262 184 -262q111 0 170 79t60 187v541h245z" />
    <glyph glyph-name="Uring" unicode="&#x16e;" horiz-adv-x="1462" 
d="M860 1751q0 51 -35 84t-86 33t-86 -34t-35 -84t35 -83t86 -33t86 33t35 84zM954 1751q0 -90 -61 -149q-61 -60 -153 -60t-153 60q-63 60 -63 148q0 90 62 150t153 60q92 0 154 -59q61 -60 61 -150zM1315 1450v-918q0 -258 -165 -414t-419 -155q-254 0 -419 156t-165 413
v918h259v-907q0 -145 77 -247q78 -101 248 -101t248 101t78 247v907h258z" />
    <glyph glyph-name="uring" unicode="&#x16f;" horiz-adv-x="1191" 
d="M711 1341q0 51 -35 84t-86 33t-86 -34t-35 -84t35 -83t86 -33t86 34q35 32 35 83zM805 1341q1 -90 -61 -149t-153 -59t-154 59q-62 59 -62 148q0 90 61 150q62 60 154 60t154 -60t61 -149zM1044 983v-983h-233v158h-4q-35 -78 -118 -132t-187 -55q-180 0 -272 116
q-91 116 -91 282v614h246v-545q0 -262 184 -262q111 0 170 79t60 187v541h245z" />
    <glyph glyph-name="Uhungarumlaut" unicode="&#x170;" horiz-adv-x="1462" 
d="M836 1565l202 295h279l-289 -295h-192zM416 1565l202 295h279l-289 -295h-192zM1315 1450v-918q0 -258 -165 -414t-419 -155q-254 0 -419 156t-165 413v918h259v-907q0 -145 77 -247q78 -101 248 -101t248 101t78 247v907h258z" />
    <glyph glyph-name="uhungarumlaut" unicode="&#x171;" horiz-adv-x="1191" 
d="M694 1155l203 295h279l-289 -295h-193zM274 1155l203 295h279l-289 -295h-193zM1044 983v-983h-233v158h-4q-35 -78 -118 -132t-187 -55q-180 0 -272 116q-91 116 -91 282v614h246v-545q0 -262 184 -262q111 0 170 79t60 187v541h245z" />
    <glyph glyph-name="Uogonek" unicode="&#x172;" horiz-adv-x="1462" 
d="M772 -479q-96 0 -159 49q-62 49 -62 133q0 123 147 262q-242 10 -396 164t-155 403v918h259v-907q0 -145 77 -247q78 -101 248 -101t248 101t78 247v907h258v-918q0 -230 -133 -380t-346 -181q-125 -129 -125 -221q-1 -38 27 -66t77 -28t100 43l52 -100q-99 -78 -195 -78
z" />
    <glyph glyph-name="uogonek" unicode="&#x173;" horiz-adv-x="1191" 
d="M834 -479q-96 0 -159 49t-63 130t61 165q60 84 138 143v150h-4q-35 -78 -118 -132t-187 -55q-180 0 -272 116q-91 116 -91 282v614h246v-545q0 -262 184 -262q111 0 170 79t60 187v541h245v-983h-116q-156 -145 -156 -250q0 -38 28 -66t77 -28t100 43l51 -100
q-98 -78 -194 -78z" />
    <glyph glyph-name="Wcircumflex" unicode="&#x174;" horiz-adv-x="2056" 
d="M1403 1565h-234l-141 184l-141 -184h-230l236 295h276zM436 0l-424 1450h283l280 -1065h5l319 1065h266l314 -1065h4l286 1065h275l-424 -1450h-250l-340 1087h-4l-340 -1087h-250z" />
    <glyph glyph-name="wcircumflex" unicode="&#x175;" horiz-adv-x="1646" 
d="M1200 1155h-233l-142 184l-141 -184h-229l235 295h277zM350 0l-342 983h266l205 -704h4l211 704h262l213 -704h5l208 704h256l-340 -983h-249l-224 688h-4l-221 -688h-250z" />
    <glyph glyph-name="Ycircumflex" unicode="&#x176;" horiz-adv-x="1273" 
d="M1018 1565h-234l-141 184l-141 -184h-230l236 295h276zM510 0v629l-545 821h316l364 -610l369 610h299l-545 -821v-629h-258z" />
    <glyph glyph-name="ycircumflex" unicode="&#x177;" horiz-adv-x="1050" 
d="M918 1155h-234l-141 184l-142 -184h-229l236 295h276zM213 -492q-68 0 -127 15l20 213q45 -14 106 -14q62 0 94 33q32 34 67 120l49 125l-422 983h272l275 -715h4l244 715h256l-465 -1194q-56 -145 -138 -213t-235 -68z" />
    <glyph glyph-name="Ydieresis" unicode="&#x178;" horiz-adv-x="1273" 
d="M698 1729q0 57 42 100t104 43t106 -41q43 -41 43 -102t-43 -103t-105 -41q-62 0 -105 43q-42 44 -42 101zM297 1729q0 57 42 100t104 43q61 0 105 -41t44 -102t-43 -103t-105 -41q-62 -1 -105 43q-42 44 -42 101zM510 0v629l-545 821h316l364 -610l369 610h299l-545 -821
v-629h-258z" />
    <glyph glyph-name="Zacute" unicode="&#x179;" horiz-adv-x="1251" 
d="M479 1565l203 295h279l-289 -295h-193zM72 0v233l788 992h-776v225h1083v-233l-792 -988h805v-229h-1108z" />
    <glyph glyph-name="zacute" unicode="&#x17a;" horiz-adv-x="987" 
d="M356 1155l203 295h279l-289 -295h-193zM70 0v217l530 569h-506v197h799v-217l-533 -565h558v-201h-848z" />
    <glyph glyph-name="Zdotaccent" unicode="&#x17b;" horiz-adv-x="1251" 
d="M475 1726q0 60 45 104t112 44q66 0 112 -42t46 -106t-46 -105q-46 -42 -112 -42t-112 44q-45 44 -45 103zM72 0v233l788 992h-776v225h1083v-233l-792 -988h805v-229h-1108z" />
    <glyph glyph-name="zdotaccent" unicode="&#x17c;" horiz-adv-x="987" 
d="M340 1317q0 59 45 103t112 44t113 -42t45 -105q0 -63 -46 -105q-47 -42 -113 -43q-66 1 -111 45t-45 103zM70 0v217l530 569h-506v197h799v-217l-533 -565h558v-201h-848z" />
    <glyph glyph-name="Zcaron" unicode="&#x17d;" horiz-adv-x="1251" 
d="M258 1860h234l141 -185l141 185h225l-235 -295h-272zM72 0v233l788 992h-776v225h1083v-233l-792 -988h805v-229h-1108z" />
    <glyph glyph-name="zcaron" unicode="&#x17e;" horiz-adv-x="987" 
d="M133 1450h234l141 -184l141 184h225l-235 -295h-272zM70 0v217l530 569h-506v197h799v-217l-533 -565h558v-201h-848z" />
    <glyph glyph-name="florin" unicode="&#x192;" horiz-adv-x="1249" 
d="M983 872v-184h-283l-116 -590q-39 -198 -131 -290t-252 -93q-113 0 -209 49l92 189q42 -29 106 -29t99 53t55 160l109 551h-232v184h268l46 228q35 174 118 274q84 100 250 101q123 0 240 -64l-94 -190q-55 33 -105 33t-81 -18q-61 -34 -93 -192l-37 -172h250z" />
    <glyph glyph-name="Scommaaccent" unicode="&#x218;" horiz-adv-x="1175" 
d="M362 -492l134 400h217l-164 -400h-187zM620 1272q-88 0 -165 -50q-78 -50 -78 -149q0 -49 17 -83q18 -34 62 -60t83 -41q39 -14 113 -38t119 -40q46 -16 111 -52q64 -36 102 -77t66 -108t27 -148q-1 -223 -151 -343t-377 -120q-145 0 -279 54t-219 153l185 172
q53 -72 141 -116t184 -44t175 54t79 147q0 94 -48 135q-28 25 -48 40q-41 31 -213 84q-172 54 -272 131q-121 96 -120 295q2 200 158 310t373 109q115 0 229 -40t193 -116l-168 -184q-41 55 -116 90t-163 35z" />
    <glyph glyph-name="scommaaccent" unicode="&#x219;" horiz-adv-x="909" 
d="M240 -492l133 400h217l-164 -400h-186zM313 722q0 -52 47 -77t138 -46q152 -35 240 -93q106 -70 106 -222q0 -153 -116 -233t-294 -80q-118 0 -226 43t-177 119l162 152q94 -123 251 -123q63 0 111 28q47 30 47 88t-50 86t-179 58t-208 91q-79 59 -79 199t115 220t276 80
q111 0 211 -39t158 -111l-160 -141q-35 45 -92 76t-123 31t-112 -28q-46 -26 -46 -78z" />
    <glyph glyph-name="uni021A" unicode="&#x21a;" horiz-adv-x="1163" 
d="M367 -492l133 400h217l-164 -400h-186zM453 0v1225h-445v225h1147v-225h-444v-1225h-258z" />
    <glyph glyph-name="uni021B" unicode="&#x21b;" horiz-adv-x="696" 
d="M201 -492l133 400h217l-164 -400h-186zM178 786h-172v197h172v285h242v-285h246v-197h-246v-456q0 -74 26 -113t96 -39t111 21l9 -193q-70 -27 -164 -26q-180 0 -250 93t-70 255v458z" />
    <glyph glyph-name="circumflex" unicode="&#x2c6;" 
d="M639 1155h-233l-142 184l-141 -184h-229l235 295h277z" />
    <glyph glyph-name="caron" unicode="&#x2c7;" 
d="M-104 1450h233l141 -184l142 184h225l-236 -295h-272z" />
    <glyph glyph-name="uni02C9" unicode="&#x2c9;" 
d="M594 1788v-160h-655v160h655z" />
    <glyph glyph-name="breve" unicode="&#x2d8;" 
d="M266 1315q94 0 144 26q49 27 69 109h135q-14 -147 -107 -221t-244 -74t-244 74t-101 221h137q25 -135 211 -135z" />
    <glyph glyph-name="dotaccent" unicode="&#x2d9;" 
d="M111 1317q0 59 45 103q46 44 112 44t112 -42t46 -105t-46 -105t-113 -43q-67 1 -111 45t-45 103z" />
    <glyph glyph-name="ring" unicode="&#x2da;" 
d="M387 1341q0 51 -35 84t-86 33t-86 -34t-35 -84t35 -83t86 -33t86 34q35 32 35 83zM481 1341q0 -90 -61 -149q-60 -59 -152 -59t-154 59t-62 148q0 90 60 150q62 60 154 60t154 -59q61 -60 61 -150z" />
    <glyph glyph-name="ogonek" unicode="&#x2db;" 
d="M220 -479q-96 0 -160 49q-62 49 -62 131t62 166t143 145h125q-62 -53 -116 -128t-54 -124q0 -48 28 -76t76 -28q49 0 100 43l52 -100q-98 -78 -194 -78z" />
    <glyph glyph-name="tilde" unicode="&#x2dc;" 
d="M119 1423q74 0 164 -38t131 -37q68 0 94 86h135q-45 -260 -229 -260q-76 0 -162 38t-133 39q-65 0 -94 -88h-136q45 260 230 260z" />
    <glyph glyph-name="hungarumlaut" unicode="&#x2dd;" 
d="M379 1155l203 295h278l-289 -295h-192zM-41 1155l203 295h278l-288 -295h-193z" />
    <glyph glyph-name="uni0394" unicode="&#x394;" horiz-adv-x="1402" 
d="M1063 213l-379 977l-354 -977h733zM1386 0h-1370l553 1458h236z" />
    <glyph glyph-name="uni03A9" unicode="&#x3a9;" horiz-adv-x="1554" 
d="M1436 0h-566v387q152 31 237 149t85 290t-120 304t-306 132t-306 -130t-120 -306t81 -288t234 -151v-387h-561v217h352v66q-178 55 -265 200t-87 344q0 281 195 465t477 184t476 -180t194 -462q0 -206 -86 -352t-269 -199v-66h355v-217z" />
    <glyph glyph-name="uni03BC" unicode="&#x3bc;" horiz-adv-x="1175" 
d="M139 983h246v-498q0 -204 80 -261q39 -28 100 -27q115 1 170 71t56 178v537h245v-983h-233v158h-4q-84 -182 -281 -183q-92 0 -133 50v-492h-246v1450z" />
    <glyph glyph-name="pi" unicode="&#x3c0;" horiz-adv-x="1214" 
d="M983 -14q-117 0 -160 68t-43 200v520h-374v-774h-240v774h-143v209h1159v-209h-162v-485q0 -37 3 -59t21 -41t58 -19t86 20v-163q-88 -41 -205 -41z" />
    <glyph glyph-name="endash" unicode="&#x2013;" horiz-adv-x="819" 
d="M758 598v-188h-697v188h697z" />
    <glyph glyph-name="emdash" unicode="&#x2014;" horiz-adv-x="1228" 
d="M1167 598v-188h-1106v188h1106z" />
    <glyph glyph-name="quoteleft" unicode="&#x2018;" horiz-adv-x="552" 
d="M467 1450l-143 -541h-238l174 541h207z" />
    <glyph glyph-name="quoteright" unicode="&#x2019;" horiz-adv-x="552" 
d="M86 909l143 541h238l-174 -541h-207z" />
    <glyph glyph-name="quotesinglbase" unicode="&#x201a;" horiz-adv-x="552" 
d="M86 -258l143 541h238l-174 -541h-207z" />
    <glyph glyph-name="quotedblleft" unicode="&#x201c;" horiz-adv-x="952" 
d="M866 1450l-143 -541h-238l174 541h207zM467 1450l-143 -541h-238l174 541h207z" />
    <glyph glyph-name="quotedblright" unicode="&#x201d;" horiz-adv-x="952" 
d="M86 909l143 541h238l-174 -541h-207zM485 909l144 541h237l-174 -541h-207z" />
    <glyph glyph-name="quotedblbase" unicode="&#x201e;" horiz-adv-x="952" 
d="M86 -258l143 541h238l-174 -541h-207zM485 -258l144 541h237l-174 -541h-207z" />
    <glyph glyph-name="dagger" unicode="&#x2020;" horiz-adv-x="1214" 
d="M723 1450v-416h407v-196h-407v-1096h-234v1096h-405v196h405v416h234z" />
    <glyph glyph-name="daggerdbl" unicode="&#x2021;" horiz-adv-x="1214" 
d="M723 1450v-379h395v-197h-395v-555h395v-196h-395v-381h-234v381h-393v196h393v555h-393v197h393v379h234z" />
    <glyph glyph-name="bullet" unicode="&#x2022;" horiz-adv-x="1024" 
d="M150 725q0 152 105 257t257 105t257 -105t105 -257t-105 -257q-105 -106 -257 -106t-257 106t-105 257z" />
    <glyph glyph-name="ellipsis" unicode="&#x2026;" horiz-adv-x="2048" 
d="M1542 143q0 66 48 113t116 47t116 -45t48 -111q0 -67 -48 -113t-115 -46t-116 44t-49 111zM860 143q0 66 48 113t116 47t116 -45t48 -111q0 -67 -48 -113t-115 -46t-116 44t-49 111zM178 143q0 66 48 113t116 47t116 -45t48 -111q0 -67 -48 -113t-115 -46t-116 44
t-49 111z" />
    <glyph glyph-name="perthousand" unicode="&#x2030;" horiz-adv-x="2519" 
d="M340 12l852 1504l170 -78l-852 -1504zM264 1114q0 -78 50 -128t126 -50t127 50t51 127t-50 127t-127 50t-127 -49t-50 -127zM80 1114q0 150 105 255t255 105t256 -104q106 -106 106 -256t-106 -256t-256 -106t-255 106t-105 256zM1903 337q0 -77 50 -127t126 -50t127 51
t51 127t-50 126t-127 50t-127 -50t-50 -127zM1718 338q0 150 106 255t255 105q150 0 256 -105t106 -255t-106 -256t-256 -106q-149 0 -255 106t-106 256zM1092 337q0 -77 50 -127t126 -50t127 51t51 127t-50 126t-127 50t-127 -50t-50 -127zM907 338q-1 150 105 255t256 105
t256 -105t106 -255t-106 -256t-256 -106t-256 106t-105 256z" />
    <glyph glyph-name="guilsinglleft" unicode="&#x2039;" horiz-adv-x="606" 
d="M526 862l-235 -354l237 -358l-155 -105l-312 463l312 459z" />
    <glyph glyph-name="guilsinglright" unicode="&#x203a;" horiz-adv-x="606" 
d="M80 150l235 354l-237 358l155 105l312 -463l-312 -459z" />
    <glyph glyph-name="fraction" unicode="&#x2044;" horiz-adv-x="204" 
d="M-438 12l852 1504l159 -78l-852 -1504z" />
    <glyph glyph-name="Euro" unicode="&#x20ac;" horiz-adv-x="1249" 
d="M816 -37q-244 0 -402 137t-211 355h-172l57 176h92q-2 31 -2 88t6 100h-147l61 176h113q59 225 233 359t394 133q220 0 350 -68l-78 -205q-94 58 -242 58t-259 -74q-110 -74 -150 -203h590l-58 -176h-571q-6 -43 -6 -102t4 -86h524l-55 -176h-438q29 -119 137 -197
t261 -78q152 0 265 68l84 -197q-136 -88 -380 -88z" />
    <glyph glyph-name="afii61289" unicode="&#x2113;" horiz-adv-x="1024" 
d="M692 1167q0 63 -24 107q-25 43 -65 43q-39 0 -67 -50t-28 -134v-379q184 202 184 413zM508 299q0 -152 148 -152q70 0 165 78h4l82 -125q-147 -129 -307 -129t-246 79q-84 79 -84 210v131l-114 -106h-4l-86 129l202 174v499q0 170 96 280t233 110q136 0 213 -80t77 -213
q0 -299 -379 -635v-250z" />
    <glyph glyph-name="trademark" unicode="&#x2122;" horiz-adv-x="2048" 
d="M952 606v844h291l201 -549l201 549h290v-844h-209v549h-4l-206 -549h-144l-207 549h-4v-549h-209zM332 606v660h-250v184h709v-184h-250v-660h-209z" />
    <glyph glyph-name="Omega" unicode="&#x2126;" horiz-adv-x="1554" 
d="M1436 0h-566v387q152 31 237 149t85 290t-120 304t-306 132t-306 -130t-120 -306t81 -288t234 -151v-387h-561v217h352v66q-178 55 -265 200t-87 344q0 281 195 465t477 184t476 -180t194 -462q0 -206 -86 -352t-269 -199v-66h355v-217z" />
    <glyph glyph-name="estimated" unicode="&#x212e;" horiz-adv-x="1236" 
d="M322 604h596v297q-130 123 -302 123t-294 -123v-297zM322 530v-370q121 -121 296 -121q250 0 396 246l71 -43q-94 -147 -200 -212t-267 -65q-236 0 -382 162q-146 163 -146 405t146 403t382 161t382 -158t149 -408h-827z" />
    <glyph glyph-name="partialdiff" unicode="&#x2202;" horiz-adv-x="1138" 
d="M565 723q-131 0 -195 -85t-65 -208q1 -123 59 -204t183 -81q125 1 199 127t69 269l-2 51q-117 131 -248 131zM1053 747q0 -406 -153 -608q-56 -74 -150 -120t-220 -46q-200 0 -324 132t-124 333t123 328t319 127q158 0 293 -113v58q4 162 -61 302q-33 70 -98 114t-150 44
q-125 0 -250 -100l-121 143q175 135 343 135t280 -64q112 -65 174 -174q119 -215 119 -491z" />
    <glyph glyph-name="Delta" unicode="&#x2206;" horiz-adv-x="1402" 
d="M1063 213l-379 977l-354 -977h733zM1386 0h-1370l553 1458h236z" />
    <glyph glyph-name="product" unicode="&#x220f;" horiz-adv-x="1517" 
d="M1391 -438h-234v1837h-797v-1837h-233v2048h1264v-2048z" />
    <glyph glyph-name="summation" unicode="&#x2211;" horiz-adv-x="1327" 
d="M1278 -438h-1227v182l621 854l-594 829v183h1173v-211h-864l563 -799l-600 -827h928v-211z" />
    <glyph glyph-name="minus" unicode="&#x2212;" horiz-adv-x="1363" 
d="M127 725h1110v-209h-1110v209z" />
    <glyph glyph-name="uni2215" unicode="&#x2215;" horiz-adv-x="204" 
d="M-438 12l852 1504l159 -78l-852 -1504z" />
    <glyph glyph-name="uni2219" unicode="&#x2219;" 
d="M102 596q0 66 48 113t116 47t116 -45t48 -111t-48 -113t-115 -47t-116 45t-49 111z" />
    <glyph glyph-name="radical" unicode="&#x221a;" horiz-adv-x="1099" 
d="M1124 1610l-432 -2048h-217l-311 649l-105 -51l-84 184l304 139l264 -559l344 1686h237z" />
    <glyph glyph-name="infinity" unicode="&#x221e;" horiz-adv-x="1669" 
d="M717 530q-166 176 -283 177q-70 1 -114 -51t-44 -126t44 -120t120 -45q130 -1 277 165zM1235 362q74 0 116 48t42 123t-44 125t-120 51q-113 0 -277 -179q152 -168 283 -168zM1577 538q0 -160 -94 -266t-252 -106q-115 0 -206 60t-189 169q-55 -57 -87 -88
q-98 -95 -170 -117q-73 -22 -137 -22q-158 0 -254 104t-96 264t93 263q93 104 249 104q121 0 212 -63t190 -181q98 117 188 182t209 64q156 0 250 -104t94 -263z" />
    <glyph glyph-name="integral" unicode="&#x222b;" horiz-adv-x="1251" 
d="M473 1014q0 20 -1 80q-4 216 22 302t49 112t53 53q53 47 156 48q102 1 172 -39t71 -118q-1 -47 -31 -77q-30 -29 -80 -29t-77 38t-39 74q-12 37 -35 37q-33 0 -33 -53l9 -250v-1206q0 -170 -52 -288q-60 -138 -243 -138q-86 0 -157 38t-71 117q0 47 32 78t76 31t71 -24
t33 -52q18 -75 48 -74q35 0 35 54v41l-8 208v1037z" />
    <glyph glyph-name="approxequal" unicode="&#x2248;" horiz-adv-x="1363" 
d="M406 287q-54 0 -88 -42t-44 -98h-145q14 147 88 249t211 104q92 0 266 -68q186 -68 250 -68q116 1 139 134h146q-16 -154 -88 -253t-215 -100q-92 0 -280 71t-240 71zM406 713q-50 0 -83 -42q-34 -42 -44 -100h-146q14 147 82 242q78 113 217 113q92 0 266 -68
q186 -68 251 -68q117 1 138 134h146q-16 -152 -89 -252t-216 -101q-96 0 -279 72q-193 70 -243 70z" />
    <glyph glyph-name="notequal" unicode="&#x2260;" horiz-adv-x="1363" 
d="M1200 332h-541l-151 -295l-180 92l102 203h-266v209h371l77 159h-448v209h553l147 293l185 -90l-105 -203h256v-209h-360l-78 -159h438v-209z" />
    <glyph glyph-name="lessequal" unicode="&#x2264;" horiz-adv-x="1363" 
d="M1200 8h-1036v219h1036v-219zM1200 295l-1036 348v221l1036 363v-232l-735 -241l735 -230v-229z" />
    <glyph glyph-name="greaterequal" unicode="&#x2265;" horiz-adv-x="1363" 
d="M164 8v219h1036v-219h-1036zM164 295v229l735 230l-735 241v232l1036 -363v-221z" />
    <glyph glyph-name="lozenge" unicode="&#x25ca;" horiz-adv-x="1214" 
d="M850 729l-244 584l-241 -584l241 -586zM1073 729l-364 -801h-205l-363 801l363 801h205z" />
    <glyph glyph-name="uniF8FF" unicode="&#xf8ff;" horiz-adv-x="1048" 
d="M1049 1470v-1470h-1049v1470h1049zM946 102v1264h-844v-1264h844zM524 1145q-145 0 -168 -195l-102 17q14 141 88 211t186 70t185 -74q72 -74 71 -195q0 -70 -26 -123t-103 -122q-76 -68 -88 -108t-12 -147h-94l-4 35q1 115 29 169t92 118q63 59 82 94q20 35 20 93
t-46 107q-46 50 -110 50zM455 240v137h114v-137h-114z" />
    <glyph glyph-name="ydieresis.sc" horiz-adv-x="1044" 
d="M582 1380q0 56 42 100t104 44t106 -41t43 -103q0 -62 -43 -102q-44 -41 -106 -41t-104 43t-42 100zM180 1380q0 56 42 100t104 44t106 -41q43 -41 43 -103t-43 -102q-43 -41 -105 -41t-105 43q-42 43 -42 100zM397 0v453l-413 657h292l252 -448l250 448h283l-414 -657
v-453h-250z" />
    <glyph glyph-name="n.sc" horiz-adv-x="1298" 
d="M156 0v1110h303l440 -766h4v766h240v-1110h-303l-441 768h-4v-768h-239z" />
    <glyph glyph-name="umacron.sc" horiz-adv-x="1218" 
d="M934 1440v-160h-655v160h655zM1075 1110v-694q0 -205 -133 -325t-334 -120t-333 120t-132 325v694h250v-676q-1 -106 55 -172t161 -66t161 66q55 66 55 172v676h250z" />
    <glyph glyph-name="ohungarumlaut.sc" horiz-adv-x="1400" 
d="M823 1217l203 294h279l-289 -294h-193zM403 1217l203 294h279l-289 -294h-193zM699 915q-153 0 -246 -99t-93 -260t94 -258t246 -97t245 97t93 258t-93 260t-246 99zM90 560q0 259 173 419t437 160t438 -159t173 -419q0 -260 -174 -425q-175 -165 -437 -165t-436 165
t-174 424z" />
    <glyph glyph-name="iogonek.sc" horiz-adv-x="561" 
d="M298 -492q-96 0 -160 50q-62 50 -62 131q0 82 62 166t143 145h-125v1110h250v-1110q-62 -53 -116 -128t-54 -124t28 -77q28 -27 76 -27q49 0 100 43l52 -101q-98 -78 -194 -78z" />
    <glyph glyph-name="p.sc" horiz-adv-x="1024" 
d="M399 614h107q207 0 207 154q0 139 -191 139h-123v-293zM156 0v1110h376q205 0 318 -86t113 -253t-115 -260t-322 -93h-127v-418h-243z" />
    <glyph glyph-name="macron.sc" 
d="M594 1440v-160h-655v160h655z" />
    <glyph glyph-name="ugrave.sc" horiz-adv-x="1218" 
d="M520 1511l203 -294h-193l-288 294h278zM1075 1110v-694q0 -205 -133 -325t-334 -120t-333 120t-132 325v694h250v-676q-1 -106 55 -172t161 -66t161 66q55 66 55 172v676h250z" />
    <glyph glyph-name="oe.sc" horiz-adv-x="1677" 
d="M700 889q-154 0 -244 -89t-91 -246q0 -157 91 -243t244 -86h93v664h-93zM1559 1110v-207h-517v-233h490v-197h-490v-260h543v-213h-885q-262 0 -434 153t-172 407t171 402t435 148h859z" />
    <glyph glyph-name="udieresis.sc" horiz-adv-x="1218" 
d="M666 1380q0 56 42 100t104 44t106 -41t43 -103q0 -62 -43 -102q-44 -41 -106 -41t-104 43t-42 100zM264 1380q0 56 42 100t104 44t106 -41q43 -41 43 -103t-43 -102q-43 -41 -105 -41t-105 43q-42 43 -42 100zM1075 1110v-694q0 -205 -133 -325t-334 -120t-333 120
t-132 325v694h250v-676q-1 -106 55 -172t161 -66t161 66q55 66 55 172v676h250z" />
    <glyph glyph-name="grave.sc" 
d="M160 1511l202 -294h-192l-289 294h279z" />
    <glyph glyph-name="hungarumlaut.cap" 
d="M379 1565l203 295h278l-289 -295h-192zM-41 1565l203 295h278l-288 -295h-193z" />
    <glyph glyph-name="otilde.sc" horiz-adv-x="1400" 
d="M844 1409q68 0 94 86h135q-45 -260 -229 -260q-76 0 -162 39t-133 39q-65 0 -94 -88h-136q23 119 74 189t141 71q90 0 179 -38q90 -38 131 -38zM699 915q-153 0 -246 -99t-93 -260t94 -258t246 -97t245 97t93 258t-93 260t-246 99zM90 560q0 259 173 419t437 160
t438 -159t173 -419q0 -260 -174 -425q-175 -165 -437 -165t-436 165t-174 424z" />
    <glyph glyph-name="imacron.sc" horiz-adv-x="561" 
d="M612 1440v-160h-655v160h655zM156 0v1110h250v-1110h-250z" />
    <glyph glyph-name="ocircumflex.sc" horiz-adv-x="1400" 
d="M1069 1217h-233l-142 184l-141 -184h-229l235 294h277zM699 915q-153 0 -246 -99t-93 -260t94 -258t246 -97t245 97t93 258t-93 260t-246 99zM90 560q0 259 173 419t437 160t438 -159t173 -419q0 -260 -174 -425q-175 -165 -437 -165t-436 165t-174 424z" />
    <glyph glyph-name="perthousand.sc" horiz-adv-x="2152" 
d="M338 23l637 1118l160 -80l-637 -1118zM1911 264q0 51 -34 84t-85 33t-85 -33t-34 -84t34 -85t85 -34t85 34t34 85zM1499 264q0 121 86 206t207 85t206 -85t85 -206t-85 -206t-206 -85t-207 85t-86 206zM487 838q0 51 -33 84q-34 32 -85 32t-85 -32t-34 -84q0 -51 34 -85
t85 -34t85 34q33 34 33 85zM78 838q0 122 86 206t205 84t205 -85t85 -205q0 -120 -85 -205q-86 -84 -206 -84t-205 84t-85 205zM1235 264q0 51 -34 84t-85 33t-85 -33t-34 -84t34 -85t85 -34t85 34t34 85zM823 264q0 121 86 206t207 85t206 -85t85 -206t-85 -206t-206 -85
t-207 85t-86 206z" />
    <glyph glyph-name="napostrophe.sc" horiz-adv-x="1495" 
d="M-57 711l133 399h217l-164 -399h-186zM352 0v1110h303l441 -766h4v766h239v-1110h-303l-440 768h-4v-768h-240z" />
    <glyph glyph-name="ij.sc" horiz-adv-x="1404" 
d="M1270 1110v-758q0 -138 -67 -250q-37 -59 -109 -95t-174 -36q-260 0 -345 275l232 65q35 -115 111 -114q54 0 78 40t24 125v748h250zM156 0v1110h250v-1110h-250z" />
    <glyph glyph-name="percent.sc" horiz-adv-x="1484" 
d="M338 23l637 1118l160 -80l-637 -1118zM487 838q0 51 -33 84q-34 32 -85 32t-85 -32t-34 -84q0 -51 34 -85t85 -34t85 34q33 34 33 85zM78 838q0 122 86 206t205 84t205 -85t85 -205q0 -120 -85 -205q-86 -84 -206 -84t-205 84t-85 205zM1235 264q0 51 -34 84t-85 33
t-85 -33t-34 -84t34 -85t85 -34t85 34t34 85zM823 264q0 121 86 206t207 85t206 -85t85 -206t-85 -206t-206 -85t-207 85t-86 206z" />
    <glyph glyph-name="obreve.sc" horiz-adv-x="1400" 
d="M700 1376q94 0 144 27q49 27 69 108h136q-13 -147 -107 -221t-245 -74t-244 74t-101 221h137q25 -135 211 -135zM699 915q-153 0 -246 -99t-93 -260t94 -258t246 -97t245 97t93 258t-93 260t-246 99zM90 560q0 259 173 419t437 160t438 -159t173 -419q0 -260 -174 -425
q-175 -165 -437 -165t-436 165t-174 424z" />
    <glyph glyph-name="two.onum" horiz-adv-x="1148" 
d="M1028 0h-895v205l115 71q319 205 401 279q117 103 117 197t-55 143t-158 49q-166 0 -254 -162l-190 105q69 123 187 193t267 69q205 0 328 -95t123 -269t-143 -305q-75 -68 -133 -110t-169 -112l-77 -47v-6h536v-205z" />
    <glyph glyph-name="nine.sc" horiz-adv-x="1056" 
d="M705 755q1 81 -51 128t-127 47t-125 -49t-50 -129t51 -128t125 -48t126 48q52 50 51 131zM109 751q0 168 121 278q122 110 301 110t299 -111q120 -110 120 -280t-133 -373l-242 -375h-294l288 410l-4 4q-49 -18 -102 -19q-152 0 -253 94t-101 262z" />
    <glyph glyph-name="oacute.sc" horiz-adv-x="1400" 
d="M561 1217l203 294h278l-288 -294h-193zM699 915q-153 0 -246 -99t-93 -260t94 -258t246 -97t245 97t93 258t-93 260t-246 99zM90 560q0 259 173 419t437 160t438 -159t173 -419q0 -260 -174 -425q-175 -165 -437 -165t-436 165t-174 424z" />
    <glyph glyph-name="idotaccent.sc" horiz-adv-x="561" 
d="M111 1378q0 60 45 104q46 44 112 44t112 -42t46 -106t-46 -105q-46 -42 -113 -42t-111 44t-45 103zM156 0v1110h250v-1110h-250z" />
    <glyph glyph-name="ucircumflex.sc" horiz-adv-x="1218" 
d="M985 1217h-233l-142 184l-141 -184h-229l235 294h277zM1075 1110v-694q0 -205 -133 -325t-334 -120t-333 120t-132 325v694h250v-676q-1 -106 55 -172t161 -66t161 66q55 66 55 172v676h250z" />
    <glyph glyph-name="macron.cap" 
d="M594 1788v-160h-655v160h655z" />
    <glyph glyph-name="oslash.sc" horiz-adv-x="1400" 
d="M1051 559q0 113 -54 203l-499 -516q78 -58 218 -58t238 102t97 269zM683 928q-143 0 -239 -104t-96 -248q0 -146 64 -244l508 522q-94 74 -237 74zM698 -29q-207 0 -366 111l-142 -150l-84 84l138 142q-154 160 -154 410t173 411q173 160 435 160q221 0 385 -115l140 145
l88 -82l-142 -143q141 -160 141 -402t-173 -406q-174 -165 -439 -165z" />
    <glyph glyph-name="yacute.sc" horiz-adv-x="1044" 
d="M391 1217l203 294h278l-288 -294h-193zM397 0v453l-413 657h292l252 -448l250 448h283l-414 -657v-453h-250z" />
    <glyph glyph-name="uhungarumlaut.sc" horiz-adv-x="1218" 
d="M731 1217l203 294h278l-288 -294h-193zM311 1217l203 294h279l-289 -294h-193zM1075 1110v-694q0 -205 -133 -325t-334 -120t-333 120t-132 325v694h250v-676q-1 -106 55 -172t161 -66t161 66q55 66 55 172v676h250z" />
    <glyph glyph-name="omacron.sc" horiz-adv-x="1400" 
d="M1028 1440v-160h-655v160h655zM699 915q-153 0 -246 -99t-93 -260t94 -258t246 -97t245 97t93 258t-93 260t-246 99zM90 560q0 259 173 419t437 160t438 -159t173 -419q0 -260 -174 -425q-175 -165 -437 -165t-436 165t-174 424z" />
    <glyph glyph-name="z.sc" horiz-adv-x="1071" 
d="M102 0v201l566 706h-559v203h854v-207l-560 -698h566v-205h-867z" />
    <glyph glyph-name="questiondown.sc" horiz-adv-x="899" 
d="M334 702h237v-34q0 -100 -96 -191l-67 -63q-63 -57 -64 -127q0 -37 28 -68t77 -31q109 0 118 125l246 -22q-17 -160 -121 -240t-265 -80t-248 89t-87 212q0 82 30 146t102 122t91 84q18 26 19 70v8zM610 971q0 -66 -46 -111t-114 -45t-113 43q-46 43 -46 109q0 67 46 111
t113 44q68 0 114 -42t46 -109z" />
    <glyph glyph-name="idieresis.sc" horiz-adv-x="561" 
d="M336 1380q0 56 42 100t104 44t106 -41t43 -103q0 -62 -43 -102q-44 -41 -106 -41t-104 43t-42 100zM-66 1380q0 56 42 100t104 44t106 -41q43 -41 43 -103t-43 -102q-43 -41 -105 -41t-105 43q-42 43 -42 100zM156 0v1110h250v-1110h-250z" />
    <glyph glyph-name="one.sc" horiz-adv-x="1056" 
d="M481 0v803l-200 -168l-144 164l381 311h207v-1110h-244z" />
    <glyph glyph-name="question.sc" horiz-adv-x="899" 
d="M567 408h-237v34q0 100 96 191l68 63q63 57 63 127q0 37 -28 68t-76 31q-109 0 -119 -125l-246 22q18 160 122 240t264 80q161 0 248 -89t87 -212q0 -82 -30 -146q-31 -64 -103 -122t-90 -84t-19 -70v-8zM291 139q0 66 46 111t114 45q67 0 113 -43t46 -109
q0 -67 -46 -111t-112 -44t-114 42q-47 42 -47 109z" />
    <glyph glyph-name="iacute.sc" horiz-adv-x="561" 
d="M166 1217l203 294h278l-289 -294h-192zM156 0v1110h250v-1110h-250z" />
    <glyph glyph-name="three.sc" horiz-adv-x="1056" 
d="M387 483v189h74q197 0 196 141q0 53 -36 89q-37 36 -93 36t-96 -35q-41 -35 -57 -98l-230 55q33 127 139 203t258 76q150 0 256 -81t105 -229q0 -180 -168 -245v-6q197 -55 197 -256q0 -166 -121 -258t-281 -93q-328 0 -428 281l232 72q43 -147 190 -148q68 0 116 36
t48 114t-66 118t-163 39h-72z" />
    <glyph glyph-name="ordfeminine.sc" horiz-adv-x="778" 
d="M467 1110l-78 207l-78 -207h156zM737 877h-180l-47 116h-244l-45 -116h-176l258 602h174z" />
    <glyph glyph-name="l.sc" horiz-adv-x="886" 
d="M156 0v1110h250v-891h452v-219h-702z" />
    <glyph glyph-name="scommaaccent.sc" horiz-adv-x="1007" 
d="M262 -492l133 400h217l-163 -400h-187zM515 930q-71 0 -119 -28t-48 -86t50 -87t148 -52t149 -45q53 -22 107 -59q116 -78 113 -231q0 -188 -124 -280q-125 -91 -314 -91q-125 0 -241 47t-191 134l174 176q43 -62 115 -100t148 -38t124 30q49 30 49 94t-52 96t-191 64
q-139 34 -224 104q-84 70 -84 208q0 172 123 262t295 91q119 0 227 -43t169 -125l-170 -162q-38 51 -100 86t-133 35z" />
    <glyph glyph-name="uring.sc" horiz-adv-x="1218" 
d="M731 1403q0 51 -35 84t-86 33t-86 -34t-35 -84t35 -83t86 -33t86 33t35 84zM825 1403q0 -89 -61 -149q-60 -60 -152 -60t-154 59t-62 149t60 149q62 61 154 61t154 -60t61 -149zM1075 1110v-694q0 -205 -133 -325t-334 -120t-333 120t-132 325v694h250v-676
q-1 -106 55 -172t161 -66t161 66q55 66 55 172v676h250z" />
    <glyph glyph-name="i.sc" horiz-adv-x="561" 
d="M156 0v1110h250v-1110h-250z" />
    <glyph glyph-name="hcircumflex.sc" horiz-adv-x="1267" 
d="M1008 1217h-234l-141 184l-141 -184h-230l236 294h276zM156 0v1110h250v-436h456v436h250v-1110h-250v467h-456v-467h-250z" />
    <glyph glyph-name="ograve.sc" horiz-adv-x="1400" 
d="M612 1511l203 -294h-192l-289 294h278zM699 915q-153 0 -246 -99t-93 -260t94 -258t246 -97t245 97t93 258t-93 260t-246 99zM90 560q0 259 173 419t437 160t438 -159t173 -419q0 -260 -174 -425q-175 -165 -437 -165t-436 165t-174 424z" />
    <glyph glyph-name="ycircumflex.sc" horiz-adv-x="1044" 
d="M903 1217h-233l-142 184l-141 -184h-229l235 294h277zM397 0v453l-413 657h292l252 -448l250 448h283l-414 -657v-453h-250z" />
    <glyph glyph-name="o.sc" horiz-adv-x="1400" 
d="M699 915q-153 0 -246 -99t-93 -260t94 -258t246 -97t245 97t93 258t-93 260t-246 99zM90 560q0 259 173 419t437 160t438 -159t173 -419q0 -260 -174 -425q-175 -165 -437 -165t-436 165t-174 424z" />
    <glyph glyph-name="scircumflex.sc" horiz-adv-x="1007" 
d="M893 1217h-234l-141 184l-141 -184h-230l236 294h276zM515 930q-71 0 -119 -28t-48 -86t50 -87t148 -52t149 -45q53 -22 107 -59q116 -78 113 -231q0 -188 -124 -280q-125 -91 -314 -91q-125 0 -241 47t-191 134l174 176q43 -62 115 -100t148 -38t124 30q49 30 49 94
t-52 96t-191 64q-139 34 -224 104q-84 70 -84 208q0 172 123 262t295 91q119 0 227 -43t169 -125l-170 -162q-38 51 -100 86t-133 35z" />
    <glyph glyph-name="j.sc" horiz-adv-x="829" 
d="M694 1110v-758q0 -140 -66 -250q-36 -59 -109 -95t-175 -36q-260 0 -344 275l231 65q35 -115 111 -114q55 0 79 40t23 125v748h250z" />
    <glyph glyph-name="igrave.sc" horiz-adv-x="561" 
d="M201 1511l202 -294h-192l-289 294h279zM156 0v1110h250v-1110h-250z" />
    <glyph glyph-name="aring.sc" horiz-adv-x="1191" 
d="M717 1403q0 51 -35 84t-86 33t-86 -34t-35 -84t35 -83t86 -33t86 33t35 84zM811 1403q0 -89 -61 -149q-60 -60 -152 -60t-155 59q-62 59 -62 149t61 149q62 61 154 61t154 -60t61 -149zM440 438h303l-153 383zM-4 0l481 1110h240l479 -1110h-278l-99 242h-457l-96 -242
h-270z" />
    <glyph glyph-name="ring.sc" 
d="M387 1403q0 51 -35 84t-86 33t-86 -34t-35 -84t35 -83t86 -33t86 33t35 84zM481 1403q0 -89 -61 -149q-60 -60 -152 -60t-154 59t-62 149t60 149q62 61 154 61t154 -60t61 -149z" />
    <glyph glyph-name="hungarumlaut.sc" 
d="M379 1217l203 294h278l-289 -294h-192zM-41 1217l203 294h278l-288 -294h-193z" />
    <glyph glyph-name="sterling.sc" horiz-adv-x="1056" 
d="M123 0v205h125v268h-125v168h125v119q0 145 103 257q103 111 279 111t300 -104l-139 -162q-69 70 -139 70t-114 -47t-44 -135v-109h225v-168h-225v-268h383v-205h-754z" />
    <glyph glyph-name="nacute.sc" horiz-adv-x="1298" 
d="M502 1217l203 294h278l-289 -294h-192zM156 0v1110h303l440 -766h4v766h240v-1110h-303l-441 768h-4v-768h-239z" />
    <glyph glyph-name="ubreve.sc" horiz-adv-x="1218" 
d="M606 1376q94 0 144 27q49 27 69 108h135q-14 -147 -107 -221t-244 -74t-244 74t-101 221h137q25 -135 211 -135zM1075 1110v-694q0 -205 -133 -325t-334 -120t-333 120t-132 325v694h250v-676q-1 -106 55 -172t161 -66t161 66q55 66 55 172v676h250z" />
    <glyph glyph-name="seven.sc" horiz-adv-x="1056" 
d="M141 897v213h781v-197l-433 -913h-280l459 897h-527z" />
    <glyph glyph-name="odieresis.sc" horiz-adv-x="1400" 
d="M750 1380q0 56 42 100t104 44t105 -41t43 -103t-43 -102q-43 -41 -105 -41t-104 43t-42 100zM348 1380q0 56 42 100t104 44t106 -41q43 -41 43 -103t-43 -102q-43 -41 -105 -41t-105 43q-42 43 -42 100zM699 915q-153 0 -246 -99t-93 -260t94 -258t246 -97t245 97t93 258
t-93 260t-246 99zM90 560q0 259 173 419t437 160t438 -159t173 -419q0 -260 -174 -425q-175 -165 -437 -165t-436 165t-174 424z" />
    <glyph glyph-name="zcaron.sc" horiz-adv-x="1071" 
d="M172 1511h234l141 -184l141 184h225l-235 -294h-272zM102 0v201l566 706h-559v203h854v-207l-560 -698h566v-205h-867z" />
    <glyph glyph-name="nine.onum" horiz-adv-x="1280" 
d="M913 659q-1 121 -77 201t-198 80t-198 -79t-76 -201t76 -200t198 -77q122 0 199 78q76 78 76 198zM575 195q-195 0 -327 129q-132 128 -131 340q0 212 148 348q147 136 375 137q228 0 376 -137t147 -377q-1 -241 -193 -523t-452 -489l-211 121q143 109 274 244
q130 135 203 256l-6 4q-70 -53 -203 -53z" />
    <glyph glyph-name="germandbls.sc" horiz-adv-x="2015" 
d="M1523 930q-71 0 -119 -28t-48 -86t50 -87t148 -52t149 -45q52 -22 106 -59q114 -78 114 -231q0 -188 -125 -280t-313 -91q-125 0 -242 47t-190 134l174 176q43 -62 115 -100t147 -38q76 0 125 30t49 94t-52 96q-51 32 -191 64q-140 34 -224 104t-84 208q0 172 123 262
t295 91q118 0 226 -43t169 -125l-170 -162q-37 51 -99 86t-133 35zM515 930q-71 0 -119 -28t-48 -86t50 -87t148 -52t149 -45q53 -22 107 -59q116 -78 113 -231q0 -188 -124 -280q-125 -91 -314 -91q-125 0 -241 47t-191 134l174 176q43 -62 115 -100t148 -38t124 30
q49 30 49 94t-52 96t-191 64q-139 34 -224 104q-84 70 -84 208q0 172 123 262t295 91q119 0 227 -43t169 -125l-170 -162q-38 51 -100 86t-133 35z" />
    <glyph glyph-name="aacute.sc" horiz-adv-x="1191" 
d="M479 1217l203 294h279l-289 -294h-193zM440 438h303l-153 383zM-4 0l481 1110h240l479 -1110h-278l-99 242h-457l-96 -242h-270z" />
    <glyph glyph-name="q.sc" horiz-adv-x="1390" 
d="M689 915q-140 0 -234 -98q-95 -98 -95 -257t92 -257t240 -98q146 0 235 97t89 258t-93 258q-94 97 -234 97zM1356 205v-205h-670q-272 0 -434 148t-162 408t170 422q170 161 429 161t427 -151q168 -152 168 -396t-162 -381v-6h234z" />
    <glyph glyph-name="exclamdown.sc" horiz-adv-x="630" 
d="M156 969q0 65 47 109t113 44t113 -46q46 -46 46 -112t-46 -109q-46 -44 -114 -44q-67 0 -113 46t-46 112zM438 0h-245v702h245v-702z" />
    <glyph glyph-name="jcircumflex.sc" horiz-adv-x="829" 
d="M944 1217h-233l-142 184l-141 -184h-229l235 294h277zM694 1110v-758q0 -140 -66 -250q-36 -59 -109 -95t-175 -36q-260 0 -344 275l231 65q35 -115 111 -114q55 0 79 40t23 125v748h250z" />
    <glyph glyph-name="lacute.sc" horiz-adv-x="886" 
d="M184 1217l203 294h279l-289 -294h-193zM156 0v1110h250v-891h452v-219h-702z" />
    <glyph glyph-name="zacute.sc" horiz-adv-x="1071" 
d="M356 1217l203 294h279l-289 -294h-193zM102 0v201l566 706h-559v203h854v-207l-560 -698h566v-205h-867z" />
    <glyph glyph-name="six.onum" horiz-adv-x="1280" 
d="M913 450q-1 122 -75 200t-196 77q-122 0 -199 -78q-77 -77 -77 -197t78 -201q76 -81 198 -81t197 79q74 79 74 201zM705 915q195 -1 327 -129t131 -340q0 -212 -148 -348q-149 -136 -377 -137q-228 0 -375 136q-146 136 -146 378q0 241 191 519t452 485l209 -121
q-143 -106 -273 -238t-200 -254l6 -4q70 53 203 53z" />
    <glyph glyph-name="k.sc" horiz-adv-x="1165" 
d="M156 0v1110h250v-459h4l405 459h330l-498 -516l524 -594h-335l-426 520h-4v-520h-250z" />
    <glyph glyph-name="tcommaaccent.sc" horiz-adv-x="913" 
d="M246 -492l133 400h217l-164 -400h-186zM332 0v899h-324v211h897v-211h-323v-899h-250z" />
    <glyph glyph-name="r.sc" horiz-adv-x="1083" 
d="M406 623h126q197 0 197 151q0 133 -180 133h-143v-284zM156 0v1110h403q186 0 304 -81t118 -253q0 -116 -60 -196t-155 -111l264 -469h-295l-221 432h-108v-432h-250z" />
    <glyph glyph-name="lslash.sc" horiz-adv-x="886" 
d="M156 1110h250v-274l221 188v-219l-221 -188v-402h452v-215h-702v404l-136 -115v221l136 115v485z" />
    <glyph glyph-name="scaron.sc" horiz-adv-x="1007" 
d="M152 1511h233l141 -184l142 184h225l-236 -294h-272zM515 930q-71 0 -119 -28t-48 -86t50 -87t148 -52t149 -45q53 -22 107 -59q116 -78 113 -231q0 -188 -124 -280q-125 -91 -314 -91q-125 0 -241 47t-191 134l174 176q43 -62 115 -100t148 -38t124 30q49 30 49 94
t-52 96t-191 64q-139 34 -224 104q-84 70 -84 208q0 172 123 262t295 91q119 0 227 -43t169 -125l-170 -162q-38 51 -100 86t-133 35z" />
    <glyph glyph-name="icircumflex.sc" horiz-adv-x="561" 
d="M655 1217h-233l-141 184l-142 -184h-229l235 294h277zM156 0v1110h250v-1110h-250z" />
    <glyph glyph-name="itilde.sc" horiz-adv-x="561" 
d="M137 1485q74 0 164 -38t131 -38q68 0 94 86h136q-45 -260 -230 -260q-76 0 -162 39t-133 39q-65 0 -94 -88h-135q23 119 65 180q59 80 164 80zM156 0v1110h250v-1110h-250z" />
    <glyph glyph-name="s.sc" horiz-adv-x="1007" 
d="M515 930q-71 0 -119 -28t-48 -86t50 -87t148 -52t149 -45q53 -22 107 -59q116 -78 113 -231q0 -188 -124 -280q-125 -91 -314 -91q-125 0 -241 47t-191 134l174 176q43 -62 115 -100t148 -38t124 30q49 30 49 94t-52 96t-191 64q-139 34 -224 104q-84 70 -84 208
q0 172 123 262t295 91q119 0 227 -43t169 -125l-170 -162q-38 51 -100 86t-133 35z" />
    <glyph glyph-name="hbar.sc" horiz-adv-x="1267" 
d="M156 0v1110h250v-168h456v168h250v-1110h-250v467h-456v-467h-250zM862 819h-456v-155h456v155z" />
    <glyph glyph-name="y.sc" horiz-adv-x="1044" 
d="M397 0v453l-413 657h292l252 -448l250 448h283l-414 -657v-453h-250z" />
    <glyph glyph-name="kcommaaccent.sc" horiz-adv-x="1165" 
d="M377 -492l133 400h217l-164 -400h-186zM156 0v1110h250v-459h4l405 459h330l-498 -516l524 -594h-335l-426 520h-4v-520h-250z" />
    <glyph glyph-name="zdotaccent.sc" horiz-adv-x="1071" 
d="M385 1378q0 60 45 104t112 44q66 0 112 -42t46 -106t-46 -105q-46 -42 -112 -42t-112 44q-45 44 -45 103zM102 0v201l566 706h-559v203h854v-207l-560 -698h566v-205h-867z" />
    <glyph glyph-name="exclam.sc" horiz-adv-x="630" 
d="M156 141q0 66 46 112t114 46t113 -44q46 -44 46 -110q0 -65 -46 -111t-113 -46q-68 0 -114 44t-46 109zM438 1110v-702h-245v702h245z" />
    <glyph glyph-name="a.sc" horiz-adv-x="1191" 
d="M440 438h303l-153 383zM-4 0l481 1110h240l479 -1110h-278l-99 242h-457l-96 -242h-270z" />
    <glyph glyph-name="h.sc" horiz-adv-x="1267" 
d="M156 0v1110h250v-436h456v436h250v-1110h-250v467h-456v-467h-250z" />
    <glyph glyph-name="m.sc" horiz-adv-x="1527" 
d="M156 0v1110h356l258 -735h6l252 735h344v-1110h-235v788h-4l-283 -788h-174l-283 788h-4v-788h-233z" />
    <glyph glyph-name="tilde.sc" 
d="M414 1409q68 0 94 86h135q-45 -260 -229 -260q-76 0 -162 39t-133 39q-65 0 -94 -88h-136q23 119 74 189t141 71q90 0 179 -38q90 -38 131 -38z" />
    <glyph glyph-name="grave.cap" 
d="M207 1860l203 -295h-193l-289 295h279z" />
    <glyph glyph-name="seven.onum" horiz-adv-x="1118" 
d="M88 903v215h934v-209q-360 -719 -584 -1282l-254 62q276 616 578 1214h-674z" />
    <glyph glyph-name="tbar.sc" horiz-adv-x="913" 
d="M803 707v-154h-221v-553h-250v553h-221v154h221v192h-324v211h897v-211h-323v-192h221z" />
    <glyph glyph-name="acute.cap" 
d="M123 1565l203 295h278l-289 -295h-192z" />
    <glyph glyph-name="wcircumflex.sc" horiz-adv-x="1691" 
d="M1219 1217h-234l-141 184l-142 -184h-229l236 294h276zM350 0l-338 1110h277l200 -778h5l215 778h276l217 -778h4l205 778h268l-336 -1110h-270l-225 766h-4l-226 -766h-268z" />
    <glyph glyph-name="ebreve.sc" horiz-adv-x="1040" 
d="M541 1376q94 0 143 27t70 108h135q-13 -147 -107 -221t-244 -74t-244 74q-93 74 -101 221h137q25 -135 211 -135zM156 0v1110h766v-207h-516v-233h489v-197h-489v-260h542v-213h-792z" />
    <glyph glyph-name="ncommaaccent.sc" horiz-adv-x="1298" 
d="M440 -492l133 400h218l-164 -400h-187zM156 0v1110h303l440 -766h4v766h240v-1110h-303l-441 768h-4v-768h-239z" />
    <glyph glyph-name="three.onum" horiz-adv-x="1144" 
d="M1020 160q0 -244 -172 -376t-442 -132q-139 0 -242 20l35 213q84 -20 194 -20q176 0 276 75q99 75 99 200q0 126 -84 192t-240 65q-84 0 -215 -30l-47 176q274 190 488 362v8h-523v205h816v-217q-199 -172 -439 -334v-6q33 4 64 4q186 1 309 -113t123 -292z" />
    <glyph glyph-name="one.onum" horiz-adv-x="872" 
d="M635 0h-246v836l-192 -156l-134 166l349 272h223v-1118z" />
    <glyph glyph-name="ntilde.sc" horiz-adv-x="1298" 
d="M791 1409q68 0 94 86h135q-45 -260 -229 -260q-76 0 -162 39t-133 39q-66 0 -95 -88h-135q23 119 74 189q50 70 140 71q90 0 180 -38t131 -38zM156 0v1110h303l440 -766h4v766h240v-1110h-303l-441 768h-4v-768h-239z" />
    <glyph glyph-name="w.sc" horiz-adv-x="1691" 
d="M350 0l-338 1110h277l200 -778h5l215 778h276l217 -778h4l205 778h268l-336 -1110h-270l-225 766h-4l-226 -766h-268z" />
    <glyph glyph-name="acute.sc" 
d="M170 1217l203 294h278l-289 -294h-192z" />
    <glyph glyph-name="four.sc" horiz-adv-x="1056" 
d="M588 408v428h-6l-265 -428h271zM588 0v213h-516v193l454 704h291v-702h148v-195h-148v-213h-229z" />
    <glyph glyph-name="Euro.sc" horiz-adv-x="1056" 
d="M687 -29q-173 0 -303 89t-181 268h-162l57 166h76q-2 10 -2 54t4 64h-123l58 166h92q53 170 189 265t301 95t292 -55l-80 -198q-80 53 -184 53t-178 -45t-103 -115h430l-49 -166h-413q-12 -72 0 -118h374l-53 -166h-289q53 -152 265 -152q104 0 192 51l72 -190
q-109 -66 -282 -66z" />
    <glyph glyph-name="dotaccent.cap" 
d="M111 1726q0 60 45 104q46 44 112 44t112 -42t46 -106t-46 -105q-46 -42 -113 -42t-111 44t-45 103z" />
    <glyph glyph-name="aogonek.sc" horiz-adv-x="1191" 
d="M934 -492q-96 0 -158 50t-63 131q0 82 62 166t143 145l-99 242h-457l-96 -242h-270l481 1110h240l479 -1110h-154q-61 -53 -115 -128q-55 -75 -55 -124t28 -77q28 -27 78 -27t99 43l51 -101q-98 -78 -194 -78zM440 438h303l-153 383z" />
    <glyph glyph-name="five.onum" horiz-adv-x="1134" 
d="M997 1118v-215h-544l-43 -307q55 12 114 12q205 0 336 -118t131 -322q0 -252 -166 -384t-428 -132q-139 0 -247 20l34 213q82 -20 191 -20q367 0 366 297q0 126 -89 192t-224 66t-262 -37l78 735h753z" />
    <glyph glyph-name="florin.sc" horiz-adv-x="1056" 
d="M834 705v-181h-195l-61 -344q-33 -188 -124 -272t-253 -84q-117 0 -189 51l92 180q26 -31 90 -31t99 49q35 48 51 146l53 305h-155v181h180l24 147q20 131 108 204q88 72 214 72q127 0 223 -65l-94 -186q-53 39 -117 38q-86 0 -104 -116l-17 -94h175z" />
    <glyph glyph-name="atilde.sc" horiz-adv-x="1191" 
d="M217 1225q50 260 214 260q89 0 179 -38t131 -38q68 0 95 86h135q-45 -260 -230 -260q-76 0 -162 39t-133 39q-65 0 -94 -88h-135zM440 438h303l-153 383zM-4 0l481 1110h240l479 -1110h-278l-99 242h-457l-96 -242h-270z" />
    <glyph glyph-name="dollar.sc" horiz-adv-x="1056" 
d="M471 686v229q-49 -5 -76 -37t-26 -71q0 -86 102 -121zM677 310q0 100 -102 141v-252q102 11 102 111zM575 1249v-139q182 -10 314 -117l-152 -162q-66 74 -162 84v-256q336 -96 336 -333q0 -136 -91 -228t-245 -98v-141h-104v141q-215 14 -360 150l170 163
q88 -109 190 -112v278q-182 51 -258 125t-76 200t88 212t246 96v137h104z" />
    <glyph glyph-name="ccedilla.sc" horiz-adv-x="1157" 
d="M365 561q0 -158 90 -259q89 -101 241 -101t246 131l197 -150q-149 -202 -432 -210l-72 -103q16 2 39 2q215 0 215 -170q0 -102 -84 -147q-84 -46 -202 -46t-218 54l47 98q78 -41 168 -41q117 0 117 84q0 74 -109 74q-43 0 -80 -13l-47 52l111 160q-206 23 -340 156
q-162 161 -162 424t173 423q173 159 441 159t414 -184l-190 -157q-84 119 -234 119t-239 -99q-90 -98 -90 -256z" />
    <glyph glyph-name="gbreve.sc" horiz-adv-x="1259" 
d="M709 1376q94 0 143 27t70 108h135q-13 -147 -107 -221t-244 -74t-244 74t-102 221h138q25 -135 211 -135zM1147 647v-581q-193 -94 -453 -94t-433 163q-171 164 -171 425t172 420t446 159t433 -148l-174 -190q-91 115 -257 115t-256 -99q-90 -98 -89 -258q0 -160 97 -261
t255 -101q102 0 182 30v228h-225v192h473z" />
    <glyph glyph-name="lcaron.sc" horiz-adv-x="886" 
d="M512 711l133 399h217l-164 -399h-186zM156 0v1110h250v-891h452v-219h-702z" />
    <glyph glyph-name="racute.sc" horiz-adv-x="1083" 
d="M369 1217l202 294h279l-289 -294h-192zM406 623h126q197 0 197 151q0 133 -180 133h-143v-284zM156 0v1110h403q186 0 304 -81t118 -253q0 -116 -60 -196t-155 -111l264 -469h-295l-221 432h-108v-432h-250z" />
    <glyph glyph-name="dcroat.sc" horiz-adv-x="1275" 
d="M406 207h131q266 0 347 180q32 72 32 173q-1 282 -236 333q-63 14 -143 14h-131v-237h253v-168h-253v-295zM156 0v502h-138v168h138v440h419q244 0 421 -121q90 -61 140 -172t50 -260q0 -269 -181 -413t-438 -144h-411z" />
    <glyph glyph-name="four.onum" horiz-adv-x="1241" 
d="M1184 10h-219v-358h-236v358h-651v215l540 924h256l-555 -932h410v463h234v-463h221v-207z" />
    <glyph glyph-name="tilde.cap" 
d="M119 1833q74 0 164 -38t131 -38q68 0 94 86h135q-45 -260 -229 -260q-76 0 -162 39t-133 39q-65 0 -94 -88h-136q45 260 230 260z" />
    <glyph glyph-name="utilde.sc" horiz-adv-x="1218" 
d="M758 1409q68 0 94 86h135q-45 -260 -229 -260q-76 0 -162 39t-133 39q-65 0 -94 -88h-136q23 119 74 189t141 71q90 0 179 -38q90 -38 131 -38zM1075 1110v-694q0 -205 -133 -325t-334 -120t-333 120t-132 325v694h250v-676q-1 -106 55 -172t161 -66t161 66q55 66 55 172
v676h250z" />
    <glyph glyph-name="acircumflex.sc" horiz-adv-x="1191" 
d="M965 1217h-234l-141 184l-141 -184h-230l236 294h276zM440 438h303l-153 383zM-4 0l481 1110h240l479 -1110h-278l-99 242h-457l-96 -242h-270z" />
    <glyph glyph-name="fi.sc" horiz-adv-x="1552" 
d="M156 0v1110h747v-211h-497v-262h468v-201h-468v-436h-250zM1147 0v1110h250v-1110h-250z" />
    <glyph glyph-name="ldot.sc" horiz-adv-x="886" 
d="M547 641q0 59 45 103q46 44 112 44t112 -42t46 -105t-46 -105t-113 -42t-111 44t-45 103zM156 0v1110h250v-891h452v-219h-702z" />
    <glyph glyph-name="zero.sc" horiz-adv-x="1056" 
d="M709 554q-1 165 -49 266q-48 102 -132 102t-132 -102t-48 -265q0 -164 48 -263t133 -99t133 98q47 98 47 263zM954 555q0 -279 -114 -431t-313 -153q-197 0 -311 153q-114 154 -114 432t114 430t312 153q198 -1 312 -153t114 -431z" />
    <glyph glyph-name="b.sc" horiz-adv-x="1107" 
d="M399 907v-241h152q74 0 116 34t42 95q0 113 -162 112h-148zM399 473v-274h164q90 0 140 38t51 107q0 129 -164 129h-191zM156 0v1110h448q158 0 257 -73t99 -227t-149 -222v-6q92 -24 143 -90t52 -164q0 -170 -125 -249t-310 -79h-415z" />
    <glyph glyph-name="caron.cap" 
d="M-104 1860h233l141 -185l142 185h225l-236 -295h-272z" />
    <glyph glyph-name="two.sc" horiz-adv-x="1056" 
d="M150 0v201l376 366q123 117 123 226q0 55 -35 95t-97 40t-103 -42t-54 -118l-227 33q19 147 125 242t264 95t266 -86q108 -87 107 -241q0 -188 -188 -371l-246 -235h442v-205h-753z" />
    <glyph glyph-name="dotaccent.sc" 
d="M111 1378q0 60 45 104q46 44 112 44t112 -42t46 -106t-46 -105q-46 -42 -113 -42t-111 44t-45 103z" />
    <glyph glyph-name="yen.sc" horiz-adv-x="1056" 
d="M387 0v190h-252v156h252v113h-252v155h191l-310 496h281l223 -422l225 422h261l-306 -496h181v-155h-252v-113h252v-156h-252v-190h-242z" />
    <glyph glyph-name="scedilla.sc" horiz-adv-x="1007" 
d="M515 930q-71 0 -119 -28t-48 -86t50 -87t148 -52t149 -45q53 -22 107 -59q116 -78 113 -231q0 -188 -124 -280q-104 -76 -252 -88l-74 -105q16 2 39 2q215 0 215 -170q0 -102 -84 -147q-84 -46 -202 -46t-218 54l47 98q78 -41 168 -41q117 0 117 84q0 74 -109 74
q-43 0 -80 -13l-47 52l109 158q-95 8 -198 50t-177 128l174 176q43 -62 115 -100t148 -38t124 30q49 30 49 94t-52 96t-191 64q-139 34 -224 104q-84 70 -84 208q0 172 123 262t295 91q119 0 227 -43t169 -125l-170 -162q-38 51 -100 86t-133 35z" />
    <glyph glyph-name="cent.sc" horiz-adv-x="1056" 
d="M340 494q0 -114 58 -198q58 -85 163 -112v613q-109 -23 -165 -106t-56 -197zM672 1145v-137q236 -8 348 -142l-158 -159q-82 86 -190 92v-615q115 0 198 95l150 -162q-123 -133 -348 -142v-147h-111v147q-207 19 -331 163t-124 356t122 349q122 136 333 165v137h111z" />
    <glyph glyph-name="uogonek.sc" horiz-adv-x="1218" 
d="M414 -309q0 131 170 281q-185 7 -313 123t-128 321v694h250v-676q-1 -106 55 -172t161 -66t161 66q55 66 55 172v676h250v-694q0 -205 -133 -325q-93 -83 -218 -109q-50 -48 -100 -116t-50 -118q0 -49 27 -77q28 -27 78 -27t99 43l51 -101q-98 -78 -194 -78
q-97 0 -159 50t-62 133z" />
    <glyph glyph-name="emacron.sc" horiz-adv-x="1040" 
d="M864 1440v-160h-655v160h655zM156 0v1110h766v-207h-516v-233h489v-197h-489v-260h542v-213h-792z" />
    <glyph glyph-name="rcaron.sc" horiz-adv-x="1083" 
d="M166 1511h233l142 -184l141 184h225l-235 -294h-273zM406 623h126q197 0 197 151q0 133 -180 133h-143v-284zM156 0v1110h403q186 0 304 -81t118 -253q0 -116 -60 -196t-155 -111l264 -469h-295l-221 432h-108v-432h-250z" />
    <glyph glyph-name="eth.sc" horiz-adv-x="1275" 
d="M406 207h131q266 0 347 180q32 72 32 173q-1 282 -236 333q-63 14 -143 14h-131v-237h253v-168h-253v-295zM156 0v502h-138v168h138v440h419q244 0 421 -121q90 -61 140 -172t50 -260q0 -269 -181 -413t-438 -144h-411z" />
    <glyph glyph-name="ampersand.sc" horiz-adv-x="1185" 
d="M463 170q113 0 172 74l-211 219q-106 -55 -107 -156q0 -59 41 -98t105 -39zM627 850q0 40 -29 68t-71 28q-41 0 -71 -28t-30 -68q0 -72 74 -148q127 59 127 148zM476 -29q-177 0 -291 88t-113 240q0 203 221 315q-105 115 -105 246t100 205t238 74t230 -73t92 -206
q0 -193 -213 -299l137 -139l92 156h271l-207 -310l260 -268h-320l-84 92q-131 -121 -308 -121z" />
    <glyph glyph-name="eight.onum" horiz-adv-x="1255" 
d="M885 410q0 108 -73 179q-72 71 -184 71t-184 -70t-72 -180t72 -178q70 -68 184 -68t186 70q72 68 71 176zM627 1288q-91 0 -153 -60t-62 -152t62 -154t154 -62t154 62q63 62 64 153q0 89 -64 151t-155 62zM1135 399q-1 -203 -147 -319t-359 -117q-213 0 -361 117
q-147 117 -147 319q0 135 77 231t193 132v4q-100 35 -162 120q-61 85 -61 201q0 182 134 291t327 109t325 -108t133 -289q0 -115 -60 -203t-161 -121v-4q117 -30 193 -130t76 -233z" />
    <glyph glyph-name="ncaron.sc" horiz-adv-x="1298" 
d="M283 1511h233l141 -184l142 184h225l-236 -294h-272zM156 0v1110h303l440 -766h4v766h240v-1110h-303l-441 768h-4v-768h-239z" />
    <glyph glyph-name="x.sc" horiz-adv-x="1073" 
d="M0 0l381 588l-346 522h297l205 -342l202 342h283l-342 -528l393 -582h-309l-238 385l-229 -385h-297z" />
    <glyph glyph-name="breve.sc" 
d="M266 1376q94 0 144 27q49 27 69 108h135q-14 -147 -107 -221t-244 -74t-244 74t-101 221h137q25 -135 211 -135z" />
    <glyph glyph-name="fl.sc" horiz-adv-x="1878" 
d="M156 0v1110h747v-211h-497v-262h468v-201h-468v-436h-250zM1147 0v1110h250v-891h452v-219h-702z" />
    <glyph glyph-name="dcaron.sc" horiz-adv-x="1275" 
d="M223 1511h234l141 -184l141 184h226l-236 -294h-272zM406 207h131q266 0 347 180q32 72 32 173q-1 282 -236 333q-63 14 -143 14h-131v-700zM156 0v1110h419q244 0 421 -121q90 -61 140 -172t50 -260q0 -269 -181 -413t-438 -144h-411z" />
    <glyph glyph-name="agrave.sc" horiz-adv-x="1191" 
d="M512 1511l203 -294h-193l-289 294h279zM440 438h303l-153 383zM-4 0l481 1110h240l479 -1110h-278l-99 242h-457l-96 -242h-270z" />
    <glyph glyph-name="rcommaaccent.sc" horiz-adv-x="1083" 
d="M332 -492l133 400h217l-164 -400h-186zM406 623h126q197 0 197 151q0 133 -180 133h-143v-284zM156 0v1110h403q186 0 304 -81t118 -253q0 -116 -60 -196t-155 -111l264 -469h-295l-221 432h-108v-432h-250z" />
    <glyph glyph-name="u.sc" horiz-adv-x="1218" 
d="M1075 1110v-694q0 -205 -133 -325t-334 -120t-333 120t-132 325v694h250v-676q-1 -106 55 -172t161 -66t161 66q55 66 55 172v676h250z" />
    <glyph glyph-name="uacute.sc" horiz-adv-x="1218" 
d="M483 1217l203 294h279l-289 -294h-193zM1075 1110v-694q0 -205 -133 -325t-334 -120t-333 120t-132 325v694h250v-676q-1 -106 55 -172t161 -66t161 66q55 66 55 172v676h250z" />
    <glyph glyph-name="zero.onum" horiz-adv-x="1445" 
d="M1075 562q0 161 -98 266q-98 106 -256 106t-254 -106t-96 -266q0 -161 96 -267q96 -107 255 -107t256 106t97 268zM1329 563q0 -262 -173 -427t-433 -165t-433 166t-173 427t172 423t433 162t434 -162t173 -424z" />
    <glyph glyph-name="eacute.sc" horiz-adv-x="1040" 
d="M381 1217l203 294h278l-289 -294h-192zM156 0v1110h766v-207h-516v-233h489v-197h-489v-260h542v-213h-792z" />
    <glyph glyph-name="dotlessj" horiz-adv-x="548" 
d="M152 983h245v-1042q0 -318 -177 -400q-72 -33 -156 -33t-134 13l21 209q31 -8 67 -9q80 1 107 55t27 154v1053z" />
    <glyph glyph-name="eight.sc" horiz-adv-x="1056" 
d="M527 942q-56 0 -94 -37t-38 -96t37 -95t94 -36t97 37q39 37 39 95t-39 95q-40 37 -96 37zM692 327q0 71 -48 115t-118 45q-70 0 -116 -44q-46 -43 -45 -115q0 -72 46 -115q47 -43 117 -43t117 43t47 114zM156 821q0 143 106 231t267 87q161 0 267 -83t105 -239
q0 -156 -145 -227v-4q84 -33 135 -103t51 -164q0 -164 -119 -256t-295 -92t-295 92t-118 256q0 94 51 165t135 102v4q-69 31 -107 93t-38 138z" />
    <glyph glyph-name="dieresis.sc" 
d="M319 1380q0 56 42 100q43 44 105 44t105 -41t43 -103t-43 -102q-43 -41 -105 -41t-105 43q-42 43 -42 100zM-82 1380q0 56 42 100t104 44t106 -41t43 -103q0 -62 -43 -102q-44 -41 -106 -41t-104 43t-42 100z" />
    <glyph glyph-name="edieresis.sc" horiz-adv-x="1040" 
d="M596 1380q0 56 42 100t104 44t106 -41t43 -103q0 -62 -43 -102q-44 -41 -106 -41t-104 43t-42 100zM195 1380q0 56 42 100t104 44t105 -41t43 -103t-43 -102q-43 -41 -105 -41t-104 43t-42 100zM156 0v1110h766v-207h-516v-233h489v-197h-489v-260h542v-213h-792z" />
    <glyph glyph-name="caron.alt" 
d="M137 1051l133 399h217l-163 -399h-187z" />
    <glyph glyph-name="amacron.sc" horiz-adv-x="1191" 
d="M918 1440v-160h-656v160h656zM440 438h303l-153 383zM-4 0l481 1110h240l479 -1110h-278l-99 242h-457l-96 -242h-270z" />
    <glyph glyph-name="ccircumflex.sc" horiz-adv-x="1157" 
d="M1069 1217h-233l-142 184l-141 -184h-229l235 294h277zM365 561q0 -158 90 -259q89 -101 241 -101t246 131l197 -150q-156 -211 -457 -211q-268 0 -430 161t-162 424t173 423q173 159 441 159t414 -184l-190 -157q-84 119 -234 119t-239 -99q-90 -98 -90 -256z" />
    <glyph glyph-name="g.sc" horiz-adv-x="1259" 
d="M1147 647v-581q-193 -94 -453 -94t-433 163q-171 164 -171 425t172 420t446 159t433 -148l-174 -190q-91 115 -257 115t-256 -99q-90 -98 -89 -258q0 -160 97 -261t255 -101q102 0 182 30v228h-225v192h473z" />
    <glyph glyph-name="ecaron.sc" horiz-adv-x="1040" 
d="M174 1511h234l141 -184l141 184h225l-235 -294h-272zM156 0v1110h766v-207h-516v-233h489v-197h-489v-260h542v-213h-792z" />
    <glyph glyph-name="eogonek.sc" horiz-adv-x="1040" 
d="M801 -492q-97 0 -159 50t-62 131q0 82 62 166t142 145h-628v1110h766v-207h-516v-233h489v-197h-489v-260h542v-213h-39q-61 -53 -115 -128t-54 -124t27 -77q28 -27 77 -27t100 43l51 -101q-98 -78 -194 -78z" />
    <glyph glyph-name="lcommaaccent.sc" horiz-adv-x="886" 
d="M289 -492l133 400h217l-164 -400h-186zM156 0v1110h250v-891h452v-219h-702z" />
    <glyph glyph-name="ae.sc" horiz-adv-x="1755" 
d="M870 449v458h-26l-279 -458h305zM1636 1110v-207h-516v-233h490v-197h-490v-260h543v-213h-793v256h-421l-156 -256h-301l700 1110h944z" />
    <glyph glyph-name="ccaron.sc" horiz-adv-x="1157" 
d="M322 1511h233l141 -184l142 184h225l-236 -294h-272zM365 561q0 -158 90 -259q89 -101 241 -101t246 131l197 -150q-156 -211 -457 -211q-268 0 -430 161t-162 424t173 423q173 159 441 159t414 -184l-190 -157q-84 119 -234 119t-239 -99q-90 -98 -90 -256z" />
    <glyph glyph-name="v.sc" horiz-adv-x="1081" 
d="M430 0l-438 1110h270l279 -780h8l282 780h259l-445 -1110h-215z" />
    <glyph glyph-name="thorn.sc" horiz-adv-x="1024" 
d="M399 463h121q195 0 195 139q0 66 -43 98t-144 33h-129v-270zM156 0v1110h243v-174h150q414 0 414 -332q0 -158 -115 -247t-316 -89h-133v-268h-243z" />
    <glyph glyph-name="ring.cap" 
d="M387 1751q0 51 -35 84t-86 33t-86 -34t-35 -84t35 -83t86 -33t86 33t35 84zM481 1751q0 -90 -61 -149q-60 -60 -152 -60t-154 60t-62 148q0 90 60 150q62 60 154 60t154 -59q61 -60 61 -150z" />
    <glyph glyph-name="e.sc" horiz-adv-x="1040" 
d="M156 0v1110h766v-207h-516v-233h489v-197h-489v-260h542v-213h-792z" />
    <glyph glyph-name="abreve.sc" horiz-adv-x="1191" 
d="M592 1376q94 0 143 27t70 108h135q-14 -147 -107 -221t-244 -74t-244 74t-101 221h137q25 -135 211 -135zM440 438h303l-153 383zM-4 0l481 1110h240l479 -1110h-278l-99 242h-457l-96 -242h-270z" />
    <glyph glyph-name="adieresis.sc" horiz-adv-x="1191" 
d="M649 1380q0 56 42 100q43 44 105 44t105 -41t43 -103t-43 -102q-43 -41 -105 -41t-105 43q-42 43 -42 100zM248 1380q0 56 42 100t104 44t106 -41t43 -103q0 -62 -43 -102q-44 -41 -106 -41t-104 43t-42 100zM440 438h303l-153 383zM-4 0l481 1110h240l479 -1110h-278
l-99 242h-457l-96 -242h-270z" />
    <glyph glyph-name="five.sc" horiz-adv-x="1056" 
d="M686 360q0 181 -231 181q-113 0 -265 -78l35 647h645v-203h-428l-12 -188q61 14 109 14q171 0 281 -98t110 -272t-116 -283t-304 -109q-145 0 -250 73q-104 73 -147 200l219 80q18 -70 67 -111t119 -41t119 49t49 139z" />
    <glyph glyph-name="ecircumflex.sc" horiz-adv-x="1040" 
d="M911 1217h-233l-141 184l-142 -184h-229l235 294h277zM156 0v1110h766v-207h-516v-233h489v-197h-489v-260h542v-213h-792z" />
    <glyph glyph-name="circumflex.cap" 
d="M639 1565h-233l-142 184l-141 -184h-229l235 295h277z" />
    <glyph glyph-name="commaaccent" 
d="M88 -492l133 400h217l-164 -400h-186z" />
    <glyph glyph-name="cacute.sc" horiz-adv-x="1157" 
d="M510 1217l203 294h278l-289 -294h-192zM365 561q0 -158 90 -259q89 -101 241 -101t246 131l197 -150q-156 -211 -457 -211q-268 0 -430 161t-162 424t173 423q173 159 441 159t414 -184l-190 -157q-84 119 -234 119t-239 -99q-90 -98 -90 -256z" />
    <glyph glyph-name="breve.cap" 
d="M-82 1860h137q25 -135 211 -136q94 0 144 27q49 27 69 109h135q-14 -148 -107 -222t-244 -74t-244 75q-93 74 -101 221z" />
    <glyph glyph-name="edotaccent.sc" horiz-adv-x="1040" 
d="M393 1378q0 60 45 104t112 44t113 -42t46 -106t-46 -105q-46 -42 -113 -42t-112 44t-45 103zM156 0v1110h766v-207h-516v-233h489v-197h-489v-260h542v-213h-792z" />
    <glyph glyph-name="six.sc" horiz-adv-x="1056" 
d="M354 359q0 -81 52 -130t124 -49q74 0 125 50t51 131t-50 129q-52 48 -126 48t-125 -48q-51 -50 -51 -131zM950 363q0 -168 -123 -280t-302 -112t-299 111q-120 110 -120 280t134 373l241 375h295l-287 -405l5 -5q49 18 102 19q152 0 253 -94t101 -262z" />
    <glyph glyph-name="egrave.sc" horiz-adv-x="1040" 
d="M545 1511l203 -294h-193l-289 294h279zM156 0v1110h766v-207h-516v-233h489v-197h-489v-260h542v-213h-792z" />
    <glyph glyph-name="c.sc" horiz-adv-x="1157" 
d="M365 561q0 -158 90 -259q89 -101 241 -101t246 131l197 -150q-156 -211 -457 -211q-268 0 -430 161t-162 424t173 423q173 159 441 159t414 -184l-190 -157q-84 119 -234 119t-239 -99q-90 -98 -90 -256z" />
    <glyph glyph-name="circumflex.sc" 
d="M639 1217h-233l-142 184l-141 -184h-229l235 294h277z" />
    <glyph glyph-name="t.sc" horiz-adv-x="913" 
d="M332 0v899h-324v211h897v-211h-323v-899h-250z" />
    <glyph glyph-name="dieresis.cap" 
d="M319 1729q0 57 42 100q43 43 105 43t105 -41t43 -102t-43 -103t-105 -41q-62 0 -105 43q-42 44 -42 101zM-82 1729q0 57 42 100t104 43t106 -41t43 -102q0 -61 -43 -103q-44 -42 -106 -41q-62 -1 -104 43t-42 101z" />
    <glyph glyph-name="sacute.sc" horiz-adv-x="1007" 
d="M346 1217l203 294h278l-288 -294h-193zM515 930q-71 0 -119 -28t-48 -86t50 -87t148 -52t149 -45q53 -22 107 -59q116 -78 113 -231q0 -188 -124 -280q-125 -91 -314 -91q-125 0 -241 47t-191 134l174 176q43 -62 115 -100t148 -38t124 30q49 30 49 94t-52 96t-191 64
q-139 34 -224 104q-84 70 -84 208q0 172 123 262t295 91q119 0 227 -43t169 -125l-170 -162q-38 51 -100 86t-133 35z" />
    <glyph glyph-name="caron.sc" 
d="M-104 1511h233l141 -184l142 184h225l-236 -294h-272z" />
    <glyph glyph-name="d.sc" horiz-adv-x="1275" 
d="M406 207h131q266 0 347 180q32 72 32 173q-1 282 -236 333q-63 14 -143 14h-131v-700zM156 0v1110h419q244 0 421 -121q90 -61 140 -172t50 -260q0 -269 -181 -413t-438 -144h-411z" />
    <glyph glyph-name="cdotaccent.sc" horiz-adv-x="1157" 
d="M532 1378q0 60 46 104t112 44t112 -42t46 -106t-46 -105q-46 -42 -113 -42t-112 44t-45 103zM365 561q0 -158 90 -259q89 -101 241 -101t246 131l197 -150q-156 -211 -457 -211q-268 0 -430 161t-162 424t173 423q173 159 441 159t414 -184l-190 -157q-84 119 -234 119
t-239 -99q-90 -98 -90 -256z" />
    <glyph glyph-name="f.sc" horiz-adv-x="991" 
d="M156 0v1110h747v-211h-497v-262h468v-201h-468v-436h-250z" />
    <glyph glyph-name="commaaccent.alt" 
d="M444 1554l-133 -399h-217l164 399h186z" />
    <glyph glyph-name="tcaron.sc" horiz-adv-x="913" 
d="M88 1511h234l141 -184l141 184h225l-235 -294h-272zM332 0v899h-324v211h897v-211h-323v-899h-250z" />
    <glyph glyph-name="gdotaccent.sc" horiz-adv-x="1259" 
d="M549 1378q0 60 45 104t112 44q66 0 112 -42t46 -106t-46 -105q-46 -42 -112 -42t-112 44q-45 44 -45 103zM1147 647v-581q-193 -94 -453 -94t-433 163q-171 164 -171 425t172 420t446 159t433 -148l-174 -190q-91 115 -257 115t-256 -99q-90 -98 -89 -258q0 -160 97 -261
t255 -101q102 0 182 30v228h-225v192h473z" />
    <glyph glyph-name="gcommaaccent.sc" horiz-adv-x="1259" 
d="M479 -492l133 400h217l-163 -400h-187zM1147 647v-581q-193 -94 -453 -94t-433 163q-171 164 -171 425t172 420t446 159t433 -148l-174 -190q-91 115 -257 115t-256 -99q-90 -98 -89 -258q0 -160 97 -261t255 -101q102 0 182 30v228h-225v192h473z" />
    <glyph glyph-name="gcircumflex.sc" horiz-adv-x="1259" 
d="M1083 1217h-233l-141 184l-142 -184h-229l235 294h277zM1147 647v-581q-193 -94 -453 -94t-433 163q-171 164 -171 425t172 420t446 159t433 -148l-174 -190q-91 115 -257 115t-256 -99q-90 -98 -89 -258q0 -160 97 -261t255 -101q102 0 182 30v228h-225v192h473z" />
    </font>
</defs>
</svg>
